M48
; DRILL file {KiCad 9.0.6} date 2026-01-07T20:30:44-0600
; FORMAT={-:-/ absolute / inch / decimal}
; #@! TF.CreationDate,2026-01-07T20:30:44-06:00
; #@! TF.GenerationSoftware,Kicad,Pcbnew,9.0.6
; #@! TF.FileFunction,Plated,1,2,PTH
FMAT,2
INCH
; #@! TA.AperFunction,Plated,PTH,ViaDrill
T1C0.0157
; #@! TA.AperFunction,Plated,PTH,ComponentDrill
T2C0.0295
; #@! TA.AperFunction,Plated,PTH,ComponentDrill
T3C0.0315
; #@! TA.AperFunction,Plated,PTH,ComponentDrill
T4C0.0394
; #@! TA.AperFunction,Plated,PTH,ComponentDrill
T5C0.0512
; #@! TA.AperFunction,Plated,PTH,ComponentDrill
T6C0.0591
; #@! TA.AperFunction,Plated,PTH,ComponentDrill
T7C0.0669
%
G90
G05
T1
X2.846Y-3.451
X2.847Y-3.28
X2.847Y-3.651
X2.86Y-3.8
X2.91Y-3.04
X2.96Y-3.81
X2.989Y-3.976
X3.01Y-3.35
X3.01Y-3.67
X3.02Y-3.54
X3.11Y-3.04
X3.18Y-3.49
X3.19Y-3.37
X3.22Y-3.04
X3.24Y-3.82
X3.311Y-3.98
X3.32Y-3.04
X3.35Y-3.35
X3.36Y-3.61
X3.37Y-3.5
X3.43Y-3.81
X3.47Y-3.02
X3.47Y-3.34
X3.51Y-3.19
X3.53Y-3.5
X3.54Y-3.36
X3.55Y-3.63
X3.62Y-3.02
X3.69Y-3.18
X3.7Y-3.38
X3.7Y-3.62
X3.78Y-3.02
X3.8Y-3.29
X3.8Y-3.5
X3.87Y-3.64
X3.92Y-3.02
X3.93Y-3.87
X3.99Y-3.5
X4.0Y-3.17
X4.04Y-3.61
X4.07Y-3.03
X4.07Y-3.11
X4.085Y-3.962
X4.1Y-3.4
X4.14Y-3.62
X4.19Y-3.03
X4.19Y-3.11
X4.21Y-3.4
X4.24Y-3.63
X4.24Y-3.76
X4.309Y-3.97
X4.32Y-3.03
X4.32Y-3.11
X4.4Y-3.3
X4.4Y-3.76
X4.405Y-3.439
X4.406Y-3.641
T2
X4.025Y-3.8
X4.075Y-3.8
X4.125Y-3.8
T3
X3.325Y-3.75
X3.625Y-3.75
T4
X2.925Y-3.3
X2.925Y-3.4
X2.925Y-3.5
X2.925Y-3.6
X2.925Y-3.7
X3.1047Y-3.275
X3.1047Y-3.5
X3.2535Y-3.275
X3.2535Y-3.5
X3.425Y-3.1
X3.425Y-3.9
X3.525Y-3.1
X3.525Y-3.9
X3.625Y-3.1
X3.625Y-3.9
X3.725Y-3.1
X3.725Y-3.9
X3.825Y-3.1
X3.825Y-3.9
X4.325Y-3.3
X4.325Y-3.4
X4.325Y-3.5
X4.325Y-3.6
X4.325Y-3.7
T5
X3.7Y-3.275
X3.7Y-3.5
X3.8984Y-3.275
X3.8984Y-3.5
X4.0969Y-3.275
X4.0969Y-3.5
T6
X2.62Y-3.2
X4.63Y-3.21
T7
X2.52Y-3.1
X2.52Y-3.3
X2.72Y-3.1
X2.72Y-3.3
X4.53Y-3.11
X4.53Y-3.31
X4.73Y-3.11
X4.73Y-3.31
M30
