M48
;GenerationSoftware,Autodesk,EAGLE,9.6.2*%
;CreationDate,2024-08-07T14:30:01Z*%
FMAT,2
ICI,OFF
METRIC,TZ,000.000
T2C0.813
T1C1.016
%
G90
M71
T1
X2540Y2540
X2540Y5080
X2540Y7620
X2540Y10160
X35560Y2540
X35560Y5080
X35560Y7620
X35560Y10160
T2
X5080Y10922
X5080Y8382
X5080Y3810
X5080Y6350
X25400Y10922
X22860Y10922
X18161Y10922
X20701Y10922
X21082Y1778
X18542Y1778
X13843Y1778
X16383Y1778
X33020Y8890
X33020Y6350
X33020Y1778
X33020Y4318
X6822Y2123
X14006Y9307
X16093Y9942
X23277Y2758
X25110Y3647
X32294Y10831
M30