G04 EAGLE Gerber RS-274X export*
G75*
%MOMM*%
%FSLAX34Y34*%
%LPD*%
%INSilkscreen Top*%
%IPPOS*%
%AMOC8*
5,1,8,0,0,1.08239X$1,22.5*%
G01*
%ADD10C,0.076200*%
%ADD11C,0.203200*%
%ADD12C,0.152400*%
%ADD13C,0.304800*%
%ADD14C,0.127000*%
%ADD15R,0.863600X0.609600*%


D10*
X239141Y9271D02*
X239141Y15113D01*
X240764Y15113D01*
X240844Y15111D01*
X240923Y15105D01*
X241002Y15095D01*
X241081Y15082D01*
X241158Y15064D01*
X241235Y15043D01*
X241311Y15018D01*
X241385Y14989D01*
X241458Y14957D01*
X241529Y14921D01*
X241598Y14882D01*
X241666Y14839D01*
X241731Y14794D01*
X241794Y14745D01*
X241854Y14693D01*
X241912Y14638D01*
X241967Y14580D01*
X242019Y14520D01*
X242068Y14457D01*
X242113Y14392D01*
X242156Y14324D01*
X242195Y14255D01*
X242231Y14184D01*
X242263Y14111D01*
X242292Y14037D01*
X242317Y13961D01*
X242338Y13884D01*
X242356Y13807D01*
X242369Y13728D01*
X242379Y13649D01*
X242385Y13570D01*
X242387Y13490D01*
X242385Y13410D01*
X242379Y13331D01*
X242369Y13252D01*
X242356Y13173D01*
X242338Y13096D01*
X242317Y13019D01*
X242292Y12943D01*
X242263Y12869D01*
X242231Y12796D01*
X242195Y12725D01*
X242156Y12656D01*
X242113Y12588D01*
X242068Y12523D01*
X242019Y12460D01*
X241967Y12400D01*
X241912Y12342D01*
X241854Y12287D01*
X241794Y12235D01*
X241731Y12186D01*
X241666Y12141D01*
X241598Y12098D01*
X241529Y12059D01*
X241458Y12023D01*
X241385Y11991D01*
X241311Y11962D01*
X241235Y11937D01*
X241158Y11916D01*
X241081Y11898D01*
X241002Y11885D01*
X240923Y11875D01*
X240844Y11869D01*
X240764Y11867D01*
X239141Y11867D01*
X241088Y11867D02*
X242387Y9271D01*
X245940Y9271D02*
X247563Y9271D01*
X245940Y9271D02*
X245879Y9273D01*
X245818Y9279D01*
X245757Y9288D01*
X245698Y9302D01*
X245639Y9319D01*
X245581Y9339D01*
X245525Y9364D01*
X245471Y9391D01*
X245418Y9423D01*
X245367Y9457D01*
X245319Y9495D01*
X245273Y9535D01*
X245230Y9578D01*
X245190Y9624D01*
X245152Y9672D01*
X245118Y9723D01*
X245086Y9776D01*
X245059Y9830D01*
X245034Y9886D01*
X245014Y9944D01*
X244997Y10003D01*
X244983Y10062D01*
X244974Y10123D01*
X244968Y10184D01*
X244966Y10245D01*
X244966Y11867D01*
X244968Y11937D01*
X244974Y12007D01*
X244983Y12077D01*
X244996Y12146D01*
X245013Y12214D01*
X245034Y12281D01*
X245058Y12347D01*
X245086Y12412D01*
X245117Y12475D01*
X245152Y12536D01*
X245190Y12595D01*
X245231Y12653D01*
X245275Y12707D01*
X245322Y12760D01*
X245371Y12809D01*
X245424Y12856D01*
X245478Y12900D01*
X245536Y12941D01*
X245595Y12979D01*
X245656Y13014D01*
X245719Y13045D01*
X245784Y13073D01*
X245850Y13097D01*
X245917Y13118D01*
X245985Y13135D01*
X246054Y13148D01*
X246124Y13157D01*
X246194Y13163D01*
X246264Y13165D01*
X246334Y13163D01*
X246404Y13157D01*
X246474Y13148D01*
X246543Y13135D01*
X246611Y13118D01*
X246678Y13097D01*
X246744Y13073D01*
X246809Y13045D01*
X246872Y13014D01*
X246933Y12979D01*
X246992Y12941D01*
X247050Y12900D01*
X247104Y12856D01*
X247157Y12809D01*
X247206Y12760D01*
X247253Y12707D01*
X247297Y12653D01*
X247338Y12595D01*
X247376Y12536D01*
X247411Y12475D01*
X247442Y12412D01*
X247470Y12347D01*
X247494Y12281D01*
X247515Y12214D01*
X247532Y12146D01*
X247545Y12077D01*
X247554Y12007D01*
X247560Y11937D01*
X247562Y11867D01*
X247563Y11867D02*
X247563Y11218D01*
X244966Y11218D01*
X249919Y13166D02*
X251217Y9271D01*
X252516Y13166D01*
X257789Y9271D02*
X259736Y15113D01*
X261684Y9271D01*
X261197Y10732D02*
X258276Y10732D01*
X267227Y14464D02*
X267227Y15113D01*
X270473Y15113D01*
X268850Y9271D01*
X272846Y9271D02*
X274793Y15113D01*
X276741Y9271D01*
X276254Y10732D02*
X273333Y10732D01*
X279312Y10894D02*
X279312Y15113D01*
X279312Y10894D02*
X279314Y10814D01*
X279320Y10735D01*
X279330Y10656D01*
X279343Y10577D01*
X279361Y10500D01*
X279382Y10423D01*
X279407Y10347D01*
X279436Y10273D01*
X279468Y10200D01*
X279504Y10129D01*
X279543Y10060D01*
X279586Y9992D01*
X279631Y9927D01*
X279680Y9864D01*
X279732Y9804D01*
X279787Y9746D01*
X279845Y9691D01*
X279905Y9639D01*
X279968Y9590D01*
X280033Y9545D01*
X280101Y9502D01*
X280170Y9463D01*
X280241Y9427D01*
X280314Y9395D01*
X280388Y9366D01*
X280464Y9341D01*
X280541Y9320D01*
X280618Y9302D01*
X280697Y9289D01*
X280776Y9279D01*
X280855Y9273D01*
X280935Y9271D01*
X281015Y9273D01*
X281094Y9279D01*
X281173Y9289D01*
X281252Y9302D01*
X281329Y9320D01*
X281406Y9341D01*
X281482Y9366D01*
X281556Y9395D01*
X281629Y9427D01*
X281700Y9463D01*
X281769Y9502D01*
X281837Y9545D01*
X281902Y9590D01*
X281965Y9639D01*
X282025Y9691D01*
X282083Y9746D01*
X282138Y9804D01*
X282190Y9864D01*
X282239Y9927D01*
X282284Y9992D01*
X282327Y10060D01*
X282366Y10129D01*
X282402Y10200D01*
X282434Y10273D01*
X282463Y10347D01*
X282488Y10423D01*
X282509Y10500D01*
X282527Y10577D01*
X282540Y10656D01*
X282550Y10735D01*
X282556Y10814D01*
X282558Y10894D01*
X282558Y15113D01*
X287924Y12517D02*
X288898Y12517D01*
X288898Y9271D01*
X286950Y9271D01*
X286880Y9273D01*
X286810Y9279D01*
X286740Y9288D01*
X286671Y9301D01*
X286603Y9318D01*
X286536Y9339D01*
X286470Y9363D01*
X286405Y9391D01*
X286342Y9422D01*
X286281Y9457D01*
X286222Y9495D01*
X286164Y9536D01*
X286110Y9580D01*
X286057Y9627D01*
X286008Y9676D01*
X285961Y9729D01*
X285917Y9783D01*
X285876Y9841D01*
X285838Y9900D01*
X285803Y9961D01*
X285772Y10024D01*
X285744Y10089D01*
X285720Y10155D01*
X285699Y10222D01*
X285682Y10290D01*
X285669Y10359D01*
X285660Y10429D01*
X285654Y10499D01*
X285652Y10569D01*
X285652Y13815D01*
X285654Y13885D01*
X285660Y13955D01*
X285669Y14025D01*
X285682Y14094D01*
X285699Y14162D01*
X285720Y14229D01*
X285744Y14295D01*
X285772Y14360D01*
X285803Y14423D01*
X285838Y14484D01*
X285876Y14543D01*
X285917Y14601D01*
X285961Y14655D01*
X286008Y14708D01*
X286057Y14757D01*
X286110Y14804D01*
X286164Y14848D01*
X286222Y14889D01*
X286281Y14927D01*
X286342Y14962D01*
X286405Y14993D01*
X286470Y15021D01*
X286536Y15045D01*
X286603Y15066D01*
X286671Y15083D01*
X286740Y15096D01*
X286810Y15105D01*
X286880Y15111D01*
X286950Y15113D01*
X288898Y15113D01*
X291237Y15113D02*
X291237Y16411D01*
X295164Y15114D02*
X295238Y15112D01*
X295312Y15107D01*
X295385Y15097D01*
X295458Y15084D01*
X295530Y15067D01*
X295601Y15047D01*
X295671Y15023D01*
X295740Y14996D01*
X295807Y14965D01*
X295873Y14930D01*
X295937Y14893D01*
X295999Y14852D01*
X296058Y14808D01*
X296116Y14762D01*
X296171Y14712D01*
X296223Y14660D01*
X296273Y14605D01*
X296319Y14547D01*
X296363Y14488D01*
X296404Y14426D01*
X296441Y14362D01*
X296476Y14296D01*
X296507Y14229D01*
X296534Y14160D01*
X296558Y14090D01*
X296578Y14019D01*
X296595Y13947D01*
X296608Y13874D01*
X296618Y13801D01*
X296623Y13727D01*
X296625Y13653D01*
X295164Y15113D02*
X295080Y15111D01*
X294996Y15105D01*
X294912Y15096D01*
X294829Y15083D01*
X294746Y15066D01*
X294665Y15045D01*
X294584Y15021D01*
X294504Y14993D01*
X294426Y14962D01*
X294349Y14927D01*
X294274Y14889D01*
X294201Y14847D01*
X294130Y14802D01*
X294061Y14754D01*
X293994Y14703D01*
X293929Y14649D01*
X293867Y14592D01*
X293807Y14533D01*
X293750Y14470D01*
X293696Y14406D01*
X293645Y14339D01*
X293598Y14269D01*
X293553Y14198D01*
X293511Y14125D01*
X293473Y14049D01*
X293438Y13973D01*
X293407Y13895D01*
X293379Y13815D01*
X296138Y12517D02*
X296191Y12570D01*
X296241Y12625D01*
X296289Y12683D01*
X296334Y12742D01*
X296376Y12804D01*
X296415Y12868D01*
X296450Y12934D01*
X296483Y13001D01*
X296512Y13069D01*
X296539Y13140D01*
X296561Y13211D01*
X296581Y13283D01*
X296597Y13356D01*
X296609Y13430D01*
X296618Y13504D01*
X296623Y13578D01*
X296625Y13653D01*
X296138Y12517D02*
X293379Y9271D01*
X296624Y9271D01*
X299322Y10569D02*
X300621Y15113D01*
X299322Y10569D02*
X302568Y10569D01*
X301594Y11867D02*
X301594Y9271D01*
D11*
X12700Y95250D02*
X12700Y107950D01*
X19050Y114300D01*
X31750Y114300D02*
X38100Y107950D01*
X12700Y69850D02*
X19050Y63500D01*
X12700Y69850D02*
X12700Y82550D01*
X19050Y88900D01*
X31750Y88900D02*
X38100Y82550D01*
X38100Y69850D01*
X31750Y63500D01*
X19050Y88900D02*
X12700Y95250D01*
X31750Y88900D02*
X38100Y95250D01*
X38100Y107950D01*
X12700Y31750D02*
X12700Y19050D01*
X12700Y31750D02*
X19050Y38100D01*
X31750Y38100D02*
X38100Y31750D01*
X19050Y38100D02*
X12700Y44450D01*
X12700Y57150D01*
X19050Y63500D01*
X31750Y63500D02*
X38100Y57150D01*
X38100Y44450D01*
X31750Y38100D01*
X31750Y12700D02*
X19050Y12700D01*
X12700Y19050D01*
X31750Y12700D02*
X38100Y19050D01*
X38100Y31750D01*
X31750Y114300D02*
X19050Y114300D01*
D12*
X9398Y87856D02*
X2794Y87856D01*
X9398Y87122D02*
X9398Y88590D01*
X2794Y88590D02*
X2794Y87122D01*
X2794Y92117D02*
X9398Y92117D01*
X9398Y95786D02*
X2794Y92117D01*
X2794Y95786D02*
X9398Y95786D01*
D11*
X342900Y95250D02*
X342900Y107950D01*
X349250Y114300D01*
X361950Y114300D02*
X368300Y107950D01*
X342900Y69850D02*
X349250Y63500D01*
X342900Y69850D02*
X342900Y82550D01*
X349250Y88900D01*
X361950Y88900D02*
X368300Y82550D01*
X368300Y69850D01*
X361950Y63500D01*
X349250Y88900D02*
X342900Y95250D01*
X361950Y88900D02*
X368300Y95250D01*
X368300Y107950D01*
X342900Y31750D02*
X342900Y19050D01*
X342900Y31750D02*
X349250Y38100D01*
X361950Y38100D02*
X368300Y31750D01*
X349250Y38100D02*
X342900Y44450D01*
X342900Y57150D01*
X349250Y63500D01*
X361950Y63500D02*
X368300Y57150D01*
X368300Y44450D01*
X361950Y38100D01*
X361950Y12700D02*
X349250Y12700D01*
X342900Y19050D01*
X361950Y12700D02*
X368300Y19050D01*
X368300Y31750D01*
X361950Y114300D02*
X349250Y114300D01*
D12*
X372928Y82042D02*
X375864Y82042D01*
X372928Y82042D02*
X372843Y82044D01*
X372759Y82050D01*
X372675Y82060D01*
X372591Y82073D01*
X372508Y82091D01*
X372426Y82112D01*
X372345Y82137D01*
X372265Y82166D01*
X372187Y82198D01*
X372111Y82234D01*
X372036Y82274D01*
X371963Y82317D01*
X371892Y82363D01*
X371823Y82412D01*
X371756Y82465D01*
X371692Y82521D01*
X371631Y82579D01*
X371573Y82640D01*
X371517Y82704D01*
X371464Y82771D01*
X371415Y82840D01*
X371369Y82911D01*
X371326Y82984D01*
X371286Y83059D01*
X371250Y83135D01*
X371218Y83213D01*
X371189Y83293D01*
X371164Y83374D01*
X371143Y83456D01*
X371125Y83539D01*
X371112Y83623D01*
X371102Y83707D01*
X371096Y83791D01*
X371094Y83876D01*
X371096Y83961D01*
X371102Y84045D01*
X371112Y84129D01*
X371125Y84213D01*
X371143Y84296D01*
X371164Y84378D01*
X371189Y84459D01*
X371218Y84539D01*
X371250Y84617D01*
X371286Y84693D01*
X371326Y84768D01*
X371369Y84841D01*
X371415Y84912D01*
X371464Y84981D01*
X371517Y85048D01*
X371573Y85112D01*
X371631Y85173D01*
X371692Y85231D01*
X371756Y85287D01*
X371823Y85340D01*
X371892Y85389D01*
X371963Y85435D01*
X372036Y85478D01*
X372111Y85518D01*
X372187Y85554D01*
X372265Y85586D01*
X372345Y85615D01*
X372426Y85640D01*
X372508Y85661D01*
X372591Y85679D01*
X372675Y85692D01*
X372759Y85702D01*
X372843Y85708D01*
X372928Y85710D01*
X372928Y85711D02*
X375864Y85711D01*
X375864Y85710D02*
X375949Y85708D01*
X376033Y85702D01*
X376117Y85692D01*
X376201Y85679D01*
X376284Y85661D01*
X376366Y85640D01*
X376447Y85615D01*
X376527Y85586D01*
X376605Y85554D01*
X376681Y85518D01*
X376756Y85478D01*
X376829Y85435D01*
X376900Y85389D01*
X376969Y85340D01*
X377036Y85287D01*
X377100Y85231D01*
X377161Y85173D01*
X377219Y85112D01*
X377275Y85048D01*
X377328Y84981D01*
X377377Y84912D01*
X377423Y84841D01*
X377466Y84768D01*
X377506Y84693D01*
X377542Y84617D01*
X377574Y84539D01*
X377603Y84459D01*
X377628Y84378D01*
X377649Y84296D01*
X377667Y84213D01*
X377680Y84129D01*
X377690Y84045D01*
X377696Y83961D01*
X377698Y83876D01*
X377696Y83791D01*
X377690Y83707D01*
X377680Y83623D01*
X377667Y83539D01*
X377649Y83456D01*
X377628Y83374D01*
X377603Y83293D01*
X377574Y83213D01*
X377542Y83135D01*
X377506Y83059D01*
X377466Y82984D01*
X377423Y82911D01*
X377377Y82840D01*
X377328Y82771D01*
X377275Y82704D01*
X377219Y82640D01*
X377161Y82579D01*
X377100Y82521D01*
X377036Y82465D01*
X376969Y82412D01*
X376900Y82363D01*
X376829Y82317D01*
X376756Y82274D01*
X376681Y82234D01*
X376605Y82198D01*
X376527Y82166D01*
X376447Y82137D01*
X376366Y82112D01*
X376284Y82091D01*
X376201Y82073D01*
X376117Y82060D01*
X376033Y82050D01*
X375949Y82044D01*
X375864Y82042D01*
X375864Y89601D02*
X371094Y89601D01*
X375864Y89601D02*
X375949Y89603D01*
X376033Y89609D01*
X376117Y89619D01*
X376201Y89632D01*
X376284Y89650D01*
X376366Y89671D01*
X376447Y89696D01*
X376527Y89725D01*
X376605Y89757D01*
X376681Y89793D01*
X376756Y89833D01*
X376829Y89876D01*
X376900Y89922D01*
X376969Y89971D01*
X377036Y90024D01*
X377100Y90080D01*
X377161Y90138D01*
X377219Y90199D01*
X377275Y90263D01*
X377328Y90330D01*
X377377Y90399D01*
X377423Y90470D01*
X377466Y90543D01*
X377506Y90618D01*
X377542Y90694D01*
X377574Y90772D01*
X377603Y90852D01*
X377628Y90933D01*
X377649Y91015D01*
X377667Y91098D01*
X377680Y91182D01*
X377690Y91266D01*
X377696Y91350D01*
X377698Y91435D01*
X377696Y91520D01*
X377690Y91604D01*
X377680Y91688D01*
X377667Y91772D01*
X377649Y91855D01*
X377628Y91937D01*
X377603Y92018D01*
X377574Y92098D01*
X377542Y92176D01*
X377506Y92252D01*
X377466Y92327D01*
X377423Y92400D01*
X377377Y92471D01*
X377328Y92540D01*
X377275Y92607D01*
X377219Y92671D01*
X377161Y92732D01*
X377100Y92790D01*
X377036Y92846D01*
X376969Y92899D01*
X376900Y92948D01*
X376829Y92994D01*
X376756Y93037D01*
X376681Y93077D01*
X376605Y93113D01*
X376527Y93145D01*
X376447Y93174D01*
X376366Y93199D01*
X376284Y93220D01*
X376201Y93238D01*
X376117Y93251D01*
X376033Y93261D01*
X375949Y93267D01*
X375864Y93269D01*
X375864Y93270D02*
X371094Y93270D01*
X371094Y98507D02*
X377698Y98507D01*
X371094Y100341D02*
X371094Y96672D01*
X57150Y118110D02*
X44450Y118110D01*
X57150Y118110D02*
X57290Y118108D01*
X57430Y118102D01*
X57570Y118093D01*
X57709Y118079D01*
X57848Y118062D01*
X57986Y118041D01*
X58124Y118016D01*
X58261Y117987D01*
X58397Y117955D01*
X58532Y117918D01*
X58666Y117878D01*
X58799Y117835D01*
X58931Y117787D01*
X59062Y117737D01*
X59191Y117682D01*
X59318Y117624D01*
X59444Y117563D01*
X59568Y117498D01*
X59690Y117429D01*
X59810Y117358D01*
X59928Y117283D01*
X60045Y117205D01*
X60159Y117123D01*
X60270Y117039D01*
X60379Y116951D01*
X60486Y116861D01*
X60591Y116767D01*
X60692Y116671D01*
X60791Y116572D01*
X60887Y116471D01*
X60981Y116366D01*
X61071Y116259D01*
X61159Y116150D01*
X61243Y116039D01*
X61325Y115925D01*
X61403Y115808D01*
X61478Y115690D01*
X61549Y115570D01*
X61618Y115448D01*
X61683Y115324D01*
X61744Y115198D01*
X61802Y115071D01*
X61857Y114942D01*
X61907Y114811D01*
X61955Y114679D01*
X61998Y114546D01*
X62038Y114412D01*
X62075Y114277D01*
X62107Y114141D01*
X62136Y114004D01*
X62161Y113866D01*
X62182Y113728D01*
X62199Y113589D01*
X62213Y113450D01*
X62222Y113310D01*
X62228Y113170D01*
X62230Y113030D01*
X44450Y118110D02*
X44310Y118108D01*
X44170Y118102D01*
X44030Y118093D01*
X43891Y118079D01*
X43752Y118062D01*
X43614Y118041D01*
X43476Y118016D01*
X43339Y117987D01*
X43203Y117955D01*
X43068Y117918D01*
X42934Y117878D01*
X42801Y117835D01*
X42669Y117787D01*
X42538Y117737D01*
X42409Y117682D01*
X42282Y117624D01*
X42156Y117563D01*
X42032Y117498D01*
X41910Y117429D01*
X41790Y117358D01*
X41672Y117283D01*
X41555Y117205D01*
X41441Y117123D01*
X41330Y117039D01*
X41221Y116951D01*
X41114Y116861D01*
X41009Y116767D01*
X40908Y116671D01*
X40809Y116572D01*
X40713Y116471D01*
X40619Y116366D01*
X40529Y116259D01*
X40441Y116150D01*
X40357Y116039D01*
X40275Y115925D01*
X40197Y115808D01*
X40122Y115690D01*
X40051Y115570D01*
X39982Y115448D01*
X39917Y115324D01*
X39856Y115198D01*
X39798Y115071D01*
X39743Y114942D01*
X39693Y114811D01*
X39645Y114679D01*
X39602Y114546D01*
X39562Y114412D01*
X39525Y114277D01*
X39493Y114141D01*
X39464Y114004D01*
X39439Y113866D01*
X39418Y113728D01*
X39401Y113589D01*
X39387Y113450D01*
X39378Y113310D01*
X39372Y113170D01*
X39370Y113030D01*
X62230Y113030D02*
X62230Y80010D01*
X57150Y74930D02*
X44450Y74930D01*
X39370Y80010D02*
X39370Y113030D01*
X62230Y80010D02*
X62228Y79870D01*
X62222Y79730D01*
X62213Y79590D01*
X62199Y79451D01*
X62182Y79312D01*
X62161Y79174D01*
X62136Y79036D01*
X62107Y78899D01*
X62075Y78763D01*
X62038Y78628D01*
X61998Y78494D01*
X61955Y78361D01*
X61907Y78229D01*
X61857Y78098D01*
X61802Y77969D01*
X61744Y77842D01*
X61683Y77716D01*
X61618Y77592D01*
X61549Y77470D01*
X61478Y77350D01*
X61403Y77232D01*
X61325Y77115D01*
X61243Y77001D01*
X61159Y76890D01*
X61071Y76781D01*
X60981Y76674D01*
X60887Y76569D01*
X60791Y76468D01*
X60692Y76369D01*
X60591Y76273D01*
X60486Y76179D01*
X60379Y76089D01*
X60270Y76001D01*
X60159Y75917D01*
X60045Y75835D01*
X59928Y75757D01*
X59810Y75682D01*
X59690Y75611D01*
X59568Y75542D01*
X59444Y75477D01*
X59318Y75416D01*
X59191Y75358D01*
X59062Y75303D01*
X58931Y75253D01*
X58799Y75205D01*
X58666Y75162D01*
X58532Y75122D01*
X58397Y75085D01*
X58261Y75053D01*
X58124Y75024D01*
X57986Y74999D01*
X57848Y74978D01*
X57709Y74961D01*
X57570Y74947D01*
X57430Y74938D01*
X57290Y74932D01*
X57150Y74930D01*
X44450Y74930D02*
X44310Y74932D01*
X44170Y74938D01*
X44030Y74947D01*
X43891Y74961D01*
X43752Y74978D01*
X43614Y74999D01*
X43476Y75024D01*
X43339Y75053D01*
X43203Y75085D01*
X43068Y75122D01*
X42934Y75162D01*
X42801Y75205D01*
X42669Y75253D01*
X42538Y75303D01*
X42409Y75358D01*
X42282Y75416D01*
X42156Y75477D01*
X42032Y75542D01*
X41910Y75611D01*
X41790Y75682D01*
X41672Y75757D01*
X41555Y75835D01*
X41441Y75917D01*
X41330Y76001D01*
X41221Y76089D01*
X41114Y76179D01*
X41009Y76273D01*
X40908Y76369D01*
X40809Y76468D01*
X40713Y76569D01*
X40619Y76674D01*
X40529Y76781D01*
X40441Y76890D01*
X40357Y77001D01*
X40275Y77115D01*
X40197Y77232D01*
X40122Y77350D01*
X40051Y77470D01*
X39982Y77592D01*
X39917Y77716D01*
X39856Y77842D01*
X39798Y77969D01*
X39743Y78098D01*
X39693Y78229D01*
X39645Y78361D01*
X39602Y78494D01*
X39562Y78628D01*
X39525Y78763D01*
X39493Y78899D01*
X39464Y79036D01*
X39439Y79174D01*
X39418Y79312D01*
X39401Y79451D01*
X39387Y79590D01*
X39378Y79730D01*
X39372Y79870D01*
X39370Y80010D01*
D13*
X43180Y99568D02*
X58420Y99568D01*
X58420Y93218D02*
X43180Y93218D01*
D14*
X67945Y111125D02*
X70485Y111125D01*
X67945Y111125D02*
X67845Y111127D01*
X67746Y111133D01*
X67646Y111143D01*
X67548Y111156D01*
X67449Y111174D01*
X67352Y111195D01*
X67256Y111220D01*
X67160Y111249D01*
X67066Y111282D01*
X66973Y111318D01*
X66882Y111358D01*
X66792Y111402D01*
X66704Y111449D01*
X66618Y111499D01*
X66534Y111553D01*
X66452Y111610D01*
X66373Y111670D01*
X66295Y111734D01*
X66221Y111800D01*
X66149Y111869D01*
X66080Y111941D01*
X66014Y112015D01*
X65950Y112093D01*
X65890Y112172D01*
X65833Y112254D01*
X65779Y112338D01*
X65729Y112424D01*
X65682Y112512D01*
X65638Y112602D01*
X65598Y112693D01*
X65562Y112786D01*
X65529Y112880D01*
X65500Y112976D01*
X65475Y113072D01*
X65454Y113169D01*
X65436Y113268D01*
X65423Y113366D01*
X65413Y113466D01*
X65407Y113565D01*
X65405Y113665D01*
X65405Y120015D01*
X65407Y120115D01*
X65413Y120214D01*
X65423Y120314D01*
X65436Y120412D01*
X65454Y120511D01*
X65475Y120608D01*
X65500Y120704D01*
X65529Y120800D01*
X65562Y120894D01*
X65598Y120987D01*
X65638Y121078D01*
X65682Y121168D01*
X65729Y121256D01*
X65779Y121342D01*
X65833Y121426D01*
X65890Y121508D01*
X65950Y121587D01*
X66014Y121665D01*
X66080Y121739D01*
X66149Y121811D01*
X66221Y121880D01*
X66295Y121946D01*
X66373Y122010D01*
X66452Y122070D01*
X66534Y122127D01*
X66618Y122181D01*
X66704Y122231D01*
X66792Y122278D01*
X66882Y122322D01*
X66973Y122362D01*
X67066Y122398D01*
X67160Y122431D01*
X67256Y122460D01*
X67352Y122485D01*
X67449Y122506D01*
X67548Y122524D01*
X67646Y122537D01*
X67746Y122547D01*
X67845Y122553D01*
X67945Y122555D01*
X70485Y122555D01*
X74967Y120015D02*
X78142Y122555D01*
X78142Y111125D01*
X74967Y111125D02*
X81317Y111125D01*
D12*
X57150Y29210D02*
X44450Y29210D01*
X44310Y29212D01*
X44170Y29218D01*
X44030Y29227D01*
X43891Y29241D01*
X43752Y29258D01*
X43614Y29279D01*
X43476Y29304D01*
X43339Y29333D01*
X43203Y29365D01*
X43068Y29402D01*
X42934Y29442D01*
X42801Y29485D01*
X42669Y29533D01*
X42538Y29583D01*
X42409Y29638D01*
X42282Y29696D01*
X42156Y29757D01*
X42032Y29822D01*
X41910Y29891D01*
X41790Y29962D01*
X41672Y30037D01*
X41555Y30115D01*
X41441Y30197D01*
X41330Y30281D01*
X41221Y30369D01*
X41114Y30459D01*
X41009Y30553D01*
X40908Y30649D01*
X40809Y30748D01*
X40713Y30849D01*
X40619Y30954D01*
X40529Y31061D01*
X40441Y31170D01*
X40357Y31281D01*
X40275Y31395D01*
X40197Y31512D01*
X40122Y31630D01*
X40051Y31750D01*
X39982Y31872D01*
X39917Y31996D01*
X39856Y32122D01*
X39798Y32249D01*
X39743Y32378D01*
X39693Y32509D01*
X39645Y32641D01*
X39602Y32774D01*
X39562Y32908D01*
X39525Y33043D01*
X39493Y33179D01*
X39464Y33316D01*
X39439Y33454D01*
X39418Y33592D01*
X39401Y33731D01*
X39387Y33870D01*
X39378Y34010D01*
X39372Y34150D01*
X39370Y34290D01*
X57150Y29210D02*
X57290Y29212D01*
X57430Y29218D01*
X57570Y29227D01*
X57709Y29241D01*
X57848Y29258D01*
X57986Y29279D01*
X58124Y29304D01*
X58261Y29333D01*
X58397Y29365D01*
X58532Y29402D01*
X58666Y29442D01*
X58799Y29485D01*
X58931Y29533D01*
X59062Y29583D01*
X59191Y29638D01*
X59318Y29696D01*
X59444Y29757D01*
X59568Y29822D01*
X59690Y29891D01*
X59810Y29962D01*
X59928Y30037D01*
X60045Y30115D01*
X60159Y30197D01*
X60270Y30281D01*
X60379Y30369D01*
X60486Y30459D01*
X60591Y30553D01*
X60692Y30649D01*
X60791Y30748D01*
X60887Y30849D01*
X60981Y30954D01*
X61071Y31061D01*
X61159Y31170D01*
X61243Y31281D01*
X61325Y31395D01*
X61403Y31512D01*
X61478Y31630D01*
X61549Y31750D01*
X61618Y31872D01*
X61683Y31996D01*
X61744Y32122D01*
X61802Y32249D01*
X61857Y32378D01*
X61907Y32509D01*
X61955Y32641D01*
X61998Y32774D01*
X62038Y32908D01*
X62075Y33043D01*
X62107Y33179D01*
X62136Y33316D01*
X62161Y33454D01*
X62182Y33592D01*
X62199Y33731D01*
X62213Y33870D01*
X62222Y34010D01*
X62228Y34150D01*
X62230Y34290D01*
X39370Y34290D02*
X39370Y67310D01*
X44450Y72390D02*
X57150Y72390D01*
X62230Y67310D02*
X62230Y34290D01*
X39370Y67310D02*
X39372Y67450D01*
X39378Y67590D01*
X39387Y67730D01*
X39401Y67869D01*
X39418Y68008D01*
X39439Y68146D01*
X39464Y68284D01*
X39493Y68421D01*
X39525Y68557D01*
X39562Y68692D01*
X39602Y68826D01*
X39645Y68959D01*
X39693Y69091D01*
X39743Y69222D01*
X39798Y69351D01*
X39856Y69478D01*
X39917Y69604D01*
X39982Y69728D01*
X40051Y69850D01*
X40122Y69970D01*
X40197Y70088D01*
X40275Y70205D01*
X40357Y70319D01*
X40441Y70430D01*
X40529Y70539D01*
X40619Y70646D01*
X40713Y70751D01*
X40809Y70852D01*
X40908Y70951D01*
X41009Y71047D01*
X41114Y71141D01*
X41221Y71231D01*
X41330Y71319D01*
X41441Y71403D01*
X41555Y71485D01*
X41672Y71563D01*
X41790Y71638D01*
X41910Y71709D01*
X42032Y71778D01*
X42156Y71843D01*
X42282Y71904D01*
X42409Y71962D01*
X42538Y72017D01*
X42669Y72067D01*
X42801Y72115D01*
X42934Y72158D01*
X43068Y72198D01*
X43203Y72235D01*
X43339Y72267D01*
X43476Y72296D01*
X43614Y72321D01*
X43752Y72342D01*
X43891Y72359D01*
X44030Y72373D01*
X44170Y72382D01*
X44310Y72388D01*
X44450Y72390D01*
X57150Y72390D02*
X57290Y72388D01*
X57430Y72382D01*
X57570Y72373D01*
X57709Y72359D01*
X57848Y72342D01*
X57986Y72321D01*
X58124Y72296D01*
X58261Y72267D01*
X58397Y72235D01*
X58532Y72198D01*
X58666Y72158D01*
X58799Y72115D01*
X58931Y72067D01*
X59062Y72017D01*
X59191Y71962D01*
X59318Y71904D01*
X59444Y71843D01*
X59568Y71778D01*
X59690Y71709D01*
X59810Y71638D01*
X59928Y71563D01*
X60045Y71485D01*
X60159Y71403D01*
X60270Y71319D01*
X60379Y71231D01*
X60486Y71141D01*
X60591Y71047D01*
X60692Y70951D01*
X60791Y70852D01*
X60887Y70751D01*
X60981Y70646D01*
X61071Y70539D01*
X61159Y70430D01*
X61243Y70319D01*
X61325Y70205D01*
X61403Y70088D01*
X61478Y69970D01*
X61549Y69850D01*
X61618Y69728D01*
X61683Y69604D01*
X61744Y69478D01*
X61802Y69351D01*
X61857Y69222D01*
X61907Y69091D01*
X61955Y68959D01*
X61998Y68826D01*
X62038Y68692D01*
X62075Y68557D01*
X62107Y68421D01*
X62136Y68284D01*
X62161Y68146D01*
X62182Y68008D01*
X62199Y67869D01*
X62213Y67730D01*
X62222Y67590D01*
X62228Y67450D01*
X62230Y67310D01*
D13*
X58420Y47752D02*
X43180Y47752D01*
X43180Y54102D02*
X58420Y54102D01*
D12*
X262890Y102870D02*
X262890Y115570D01*
X262890Y102870D02*
X262888Y102730D01*
X262882Y102590D01*
X262873Y102450D01*
X262859Y102311D01*
X262842Y102172D01*
X262821Y102034D01*
X262796Y101896D01*
X262767Y101759D01*
X262735Y101623D01*
X262698Y101488D01*
X262658Y101354D01*
X262615Y101221D01*
X262567Y101089D01*
X262517Y100958D01*
X262462Y100829D01*
X262404Y100702D01*
X262343Y100576D01*
X262278Y100452D01*
X262209Y100330D01*
X262138Y100210D01*
X262063Y100092D01*
X261985Y99975D01*
X261903Y99861D01*
X261819Y99750D01*
X261731Y99641D01*
X261641Y99534D01*
X261547Y99429D01*
X261451Y99328D01*
X261352Y99229D01*
X261251Y99133D01*
X261146Y99039D01*
X261039Y98949D01*
X260930Y98861D01*
X260819Y98777D01*
X260705Y98695D01*
X260588Y98617D01*
X260470Y98542D01*
X260350Y98471D01*
X260228Y98402D01*
X260104Y98337D01*
X259978Y98276D01*
X259851Y98218D01*
X259722Y98163D01*
X259591Y98113D01*
X259459Y98065D01*
X259326Y98022D01*
X259192Y97982D01*
X259057Y97945D01*
X258921Y97913D01*
X258784Y97884D01*
X258646Y97859D01*
X258508Y97838D01*
X258369Y97821D01*
X258230Y97807D01*
X258090Y97798D01*
X257950Y97792D01*
X257810Y97790D01*
X262890Y115570D02*
X262888Y115710D01*
X262882Y115850D01*
X262873Y115990D01*
X262859Y116129D01*
X262842Y116268D01*
X262821Y116406D01*
X262796Y116544D01*
X262767Y116681D01*
X262735Y116817D01*
X262698Y116952D01*
X262658Y117086D01*
X262615Y117219D01*
X262567Y117351D01*
X262517Y117482D01*
X262462Y117611D01*
X262404Y117738D01*
X262343Y117864D01*
X262278Y117988D01*
X262209Y118110D01*
X262138Y118230D01*
X262063Y118348D01*
X261985Y118465D01*
X261903Y118579D01*
X261819Y118690D01*
X261731Y118799D01*
X261641Y118906D01*
X261547Y119011D01*
X261451Y119112D01*
X261352Y119211D01*
X261251Y119307D01*
X261146Y119401D01*
X261039Y119491D01*
X260930Y119579D01*
X260819Y119663D01*
X260705Y119745D01*
X260588Y119823D01*
X260470Y119898D01*
X260350Y119969D01*
X260228Y120038D01*
X260104Y120103D01*
X259978Y120164D01*
X259851Y120222D01*
X259722Y120277D01*
X259591Y120327D01*
X259459Y120375D01*
X259326Y120418D01*
X259192Y120458D01*
X259057Y120495D01*
X258921Y120527D01*
X258784Y120556D01*
X258646Y120581D01*
X258508Y120602D01*
X258369Y120619D01*
X258230Y120633D01*
X258090Y120642D01*
X257950Y120648D01*
X257810Y120650D01*
X257810Y97790D02*
X224790Y97790D01*
X219710Y102870D02*
X219710Y115570D01*
X224790Y120650D02*
X257810Y120650D01*
X224790Y97790D02*
X224650Y97792D01*
X224510Y97798D01*
X224370Y97807D01*
X224231Y97821D01*
X224092Y97838D01*
X223954Y97859D01*
X223816Y97884D01*
X223679Y97913D01*
X223543Y97945D01*
X223408Y97982D01*
X223274Y98022D01*
X223141Y98065D01*
X223009Y98113D01*
X222878Y98163D01*
X222749Y98218D01*
X222622Y98276D01*
X222496Y98337D01*
X222372Y98402D01*
X222250Y98471D01*
X222130Y98542D01*
X222012Y98617D01*
X221895Y98695D01*
X221781Y98777D01*
X221670Y98861D01*
X221561Y98949D01*
X221454Y99039D01*
X221349Y99133D01*
X221248Y99229D01*
X221149Y99328D01*
X221053Y99429D01*
X220959Y99534D01*
X220869Y99641D01*
X220781Y99750D01*
X220697Y99861D01*
X220615Y99975D01*
X220537Y100092D01*
X220462Y100210D01*
X220391Y100330D01*
X220322Y100452D01*
X220257Y100576D01*
X220196Y100702D01*
X220138Y100829D01*
X220083Y100958D01*
X220033Y101089D01*
X219985Y101221D01*
X219942Y101354D01*
X219902Y101488D01*
X219865Y101623D01*
X219833Y101759D01*
X219804Y101896D01*
X219779Y102034D01*
X219758Y102172D01*
X219741Y102311D01*
X219727Y102450D01*
X219718Y102590D01*
X219712Y102730D01*
X219710Y102870D01*
X219710Y115570D02*
X219712Y115710D01*
X219718Y115850D01*
X219727Y115990D01*
X219741Y116129D01*
X219758Y116268D01*
X219779Y116406D01*
X219804Y116544D01*
X219833Y116681D01*
X219865Y116817D01*
X219902Y116952D01*
X219942Y117086D01*
X219985Y117219D01*
X220033Y117351D01*
X220083Y117482D01*
X220138Y117611D01*
X220196Y117738D01*
X220257Y117864D01*
X220322Y117988D01*
X220391Y118110D01*
X220462Y118230D01*
X220537Y118348D01*
X220615Y118465D01*
X220697Y118579D01*
X220781Y118690D01*
X220869Y118799D01*
X220959Y118906D01*
X221053Y119011D01*
X221149Y119112D01*
X221248Y119211D01*
X221349Y119307D01*
X221454Y119401D01*
X221561Y119491D01*
X221670Y119579D01*
X221781Y119663D01*
X221895Y119745D01*
X222012Y119823D01*
X222130Y119898D01*
X222250Y119969D01*
X222372Y120038D01*
X222496Y120103D01*
X222622Y120164D01*
X222749Y120222D01*
X222878Y120277D01*
X223009Y120327D01*
X223141Y120375D01*
X223274Y120418D01*
X223408Y120458D01*
X223543Y120495D01*
X223679Y120527D01*
X223816Y120556D01*
X223954Y120581D01*
X224092Y120602D01*
X224231Y120619D01*
X224370Y120633D01*
X224510Y120642D01*
X224650Y120648D01*
X224790Y120650D01*
D13*
X244348Y116840D02*
X244348Y101600D01*
X237998Y101600D02*
X237998Y116840D01*
D14*
X157443Y111125D02*
X154903Y111125D01*
X154803Y111127D01*
X154704Y111133D01*
X154604Y111143D01*
X154506Y111156D01*
X154407Y111174D01*
X154310Y111195D01*
X154214Y111220D01*
X154118Y111249D01*
X154024Y111282D01*
X153931Y111318D01*
X153840Y111358D01*
X153750Y111402D01*
X153662Y111449D01*
X153576Y111499D01*
X153492Y111553D01*
X153410Y111610D01*
X153331Y111670D01*
X153253Y111734D01*
X153179Y111800D01*
X153107Y111869D01*
X153038Y111941D01*
X152972Y112015D01*
X152908Y112093D01*
X152848Y112172D01*
X152791Y112254D01*
X152737Y112338D01*
X152687Y112424D01*
X152640Y112512D01*
X152596Y112602D01*
X152556Y112693D01*
X152520Y112786D01*
X152487Y112880D01*
X152458Y112976D01*
X152433Y113072D01*
X152412Y113169D01*
X152394Y113268D01*
X152381Y113366D01*
X152371Y113466D01*
X152365Y113565D01*
X152363Y113665D01*
X152363Y120015D01*
X152365Y120115D01*
X152371Y120214D01*
X152381Y120314D01*
X152394Y120412D01*
X152412Y120511D01*
X152433Y120608D01*
X152458Y120704D01*
X152487Y120800D01*
X152520Y120894D01*
X152556Y120987D01*
X152596Y121078D01*
X152640Y121168D01*
X152687Y121256D01*
X152737Y121342D01*
X152791Y121426D01*
X152848Y121508D01*
X152908Y121587D01*
X152972Y121665D01*
X153038Y121739D01*
X153107Y121811D01*
X153179Y121880D01*
X153253Y121946D01*
X153331Y122010D01*
X153410Y122070D01*
X153492Y122127D01*
X153576Y122181D01*
X153662Y122231D01*
X153750Y122278D01*
X153840Y122322D01*
X153931Y122362D01*
X154024Y122398D01*
X154118Y122431D01*
X154214Y122460D01*
X154310Y122485D01*
X154407Y122506D01*
X154506Y122524D01*
X154604Y122537D01*
X154704Y122547D01*
X154803Y122553D01*
X154903Y122555D01*
X157443Y122555D01*
X165418Y122556D02*
X165522Y122554D01*
X165627Y122548D01*
X165731Y122539D01*
X165834Y122526D01*
X165937Y122508D01*
X166039Y122488D01*
X166141Y122463D01*
X166241Y122435D01*
X166341Y122403D01*
X166439Y122367D01*
X166536Y122328D01*
X166631Y122286D01*
X166725Y122240D01*
X166817Y122190D01*
X166907Y122138D01*
X166995Y122082D01*
X167081Y122022D01*
X167165Y121960D01*
X167246Y121895D01*
X167325Y121827D01*
X167402Y121755D01*
X167475Y121682D01*
X167547Y121605D01*
X167615Y121526D01*
X167680Y121445D01*
X167742Y121361D01*
X167802Y121275D01*
X167858Y121187D01*
X167910Y121097D01*
X167960Y121005D01*
X168006Y120911D01*
X168048Y120816D01*
X168087Y120719D01*
X168123Y120621D01*
X168155Y120521D01*
X168183Y120421D01*
X168208Y120319D01*
X168228Y120217D01*
X168246Y120114D01*
X168259Y120011D01*
X168268Y119907D01*
X168274Y119802D01*
X168276Y119698D01*
X165418Y122555D02*
X165300Y122553D01*
X165181Y122547D01*
X165063Y122538D01*
X164946Y122525D01*
X164829Y122507D01*
X164712Y122487D01*
X164596Y122462D01*
X164481Y122434D01*
X164368Y122401D01*
X164255Y122366D01*
X164143Y122326D01*
X164033Y122284D01*
X163924Y122237D01*
X163816Y122187D01*
X163711Y122134D01*
X163607Y122077D01*
X163505Y122017D01*
X163405Y121954D01*
X163307Y121887D01*
X163211Y121818D01*
X163118Y121745D01*
X163027Y121669D01*
X162938Y121591D01*
X162852Y121509D01*
X162769Y121425D01*
X162688Y121339D01*
X162611Y121249D01*
X162536Y121158D01*
X162464Y121064D01*
X162395Y120967D01*
X162330Y120869D01*
X162267Y120768D01*
X162208Y120665D01*
X162152Y120561D01*
X162100Y120455D01*
X162051Y120347D01*
X162006Y120238D01*
X161964Y120127D01*
X161926Y120015D01*
X167323Y117476D02*
X167399Y117551D01*
X167474Y117630D01*
X167545Y117711D01*
X167614Y117795D01*
X167679Y117881D01*
X167741Y117969D01*
X167801Y118059D01*
X167857Y118151D01*
X167910Y118246D01*
X167959Y118342D01*
X168005Y118440D01*
X168048Y118539D01*
X168087Y118640D01*
X168122Y118742D01*
X168154Y118845D01*
X168182Y118949D01*
X168207Y119054D01*
X168228Y119161D01*
X168245Y119267D01*
X168258Y119374D01*
X168267Y119482D01*
X168273Y119590D01*
X168275Y119698D01*
X167323Y117475D02*
X161925Y111125D01*
X168275Y111125D01*
D12*
X172720Y115570D02*
X172720Y102870D01*
X172720Y115570D02*
X172722Y115710D01*
X172728Y115850D01*
X172737Y115990D01*
X172751Y116129D01*
X172768Y116268D01*
X172789Y116406D01*
X172814Y116544D01*
X172843Y116681D01*
X172875Y116817D01*
X172912Y116952D01*
X172952Y117086D01*
X172995Y117219D01*
X173043Y117351D01*
X173093Y117482D01*
X173148Y117611D01*
X173206Y117738D01*
X173267Y117864D01*
X173332Y117988D01*
X173401Y118110D01*
X173472Y118230D01*
X173547Y118348D01*
X173625Y118465D01*
X173707Y118579D01*
X173791Y118690D01*
X173879Y118799D01*
X173969Y118906D01*
X174063Y119011D01*
X174159Y119112D01*
X174258Y119211D01*
X174359Y119307D01*
X174464Y119401D01*
X174571Y119491D01*
X174680Y119579D01*
X174791Y119663D01*
X174905Y119745D01*
X175022Y119823D01*
X175140Y119898D01*
X175260Y119969D01*
X175382Y120038D01*
X175506Y120103D01*
X175632Y120164D01*
X175759Y120222D01*
X175888Y120277D01*
X176019Y120327D01*
X176151Y120375D01*
X176284Y120418D01*
X176418Y120458D01*
X176553Y120495D01*
X176689Y120527D01*
X176826Y120556D01*
X176964Y120581D01*
X177102Y120602D01*
X177241Y120619D01*
X177380Y120633D01*
X177520Y120642D01*
X177660Y120648D01*
X177800Y120650D01*
X172720Y102870D02*
X172722Y102730D01*
X172728Y102590D01*
X172737Y102450D01*
X172751Y102311D01*
X172768Y102172D01*
X172789Y102034D01*
X172814Y101896D01*
X172843Y101759D01*
X172875Y101623D01*
X172912Y101488D01*
X172952Y101354D01*
X172995Y101221D01*
X173043Y101089D01*
X173093Y100958D01*
X173148Y100829D01*
X173206Y100702D01*
X173267Y100576D01*
X173332Y100452D01*
X173401Y100330D01*
X173472Y100210D01*
X173547Y100092D01*
X173625Y99975D01*
X173707Y99861D01*
X173791Y99750D01*
X173879Y99641D01*
X173969Y99534D01*
X174063Y99429D01*
X174159Y99328D01*
X174258Y99229D01*
X174359Y99133D01*
X174464Y99039D01*
X174571Y98949D01*
X174680Y98861D01*
X174791Y98777D01*
X174905Y98695D01*
X175022Y98617D01*
X175140Y98542D01*
X175260Y98471D01*
X175382Y98402D01*
X175506Y98337D01*
X175632Y98276D01*
X175759Y98218D01*
X175888Y98163D01*
X176019Y98113D01*
X176151Y98065D01*
X176284Y98022D01*
X176418Y97982D01*
X176553Y97945D01*
X176689Y97913D01*
X176826Y97884D01*
X176964Y97859D01*
X177102Y97838D01*
X177241Y97821D01*
X177380Y97807D01*
X177520Y97798D01*
X177660Y97792D01*
X177800Y97790D01*
X177800Y120650D02*
X210820Y120650D01*
X215900Y115570D02*
X215900Y102870D01*
X210820Y97790D02*
X177800Y97790D01*
X210820Y120650D02*
X210960Y120648D01*
X211100Y120642D01*
X211240Y120633D01*
X211379Y120619D01*
X211518Y120602D01*
X211656Y120581D01*
X211794Y120556D01*
X211931Y120527D01*
X212067Y120495D01*
X212202Y120458D01*
X212336Y120418D01*
X212469Y120375D01*
X212601Y120327D01*
X212732Y120277D01*
X212861Y120222D01*
X212988Y120164D01*
X213114Y120103D01*
X213238Y120038D01*
X213360Y119969D01*
X213480Y119898D01*
X213598Y119823D01*
X213715Y119745D01*
X213829Y119663D01*
X213940Y119579D01*
X214049Y119491D01*
X214156Y119401D01*
X214261Y119307D01*
X214362Y119211D01*
X214461Y119112D01*
X214557Y119011D01*
X214651Y118906D01*
X214741Y118799D01*
X214829Y118690D01*
X214913Y118579D01*
X214995Y118465D01*
X215073Y118348D01*
X215148Y118230D01*
X215219Y118110D01*
X215288Y117988D01*
X215353Y117864D01*
X215414Y117738D01*
X215472Y117611D01*
X215527Y117482D01*
X215577Y117351D01*
X215625Y117219D01*
X215668Y117086D01*
X215708Y116952D01*
X215745Y116817D01*
X215777Y116681D01*
X215806Y116544D01*
X215831Y116406D01*
X215852Y116268D01*
X215869Y116129D01*
X215883Y115990D01*
X215892Y115850D01*
X215898Y115710D01*
X215900Y115570D01*
X215900Y102870D02*
X215898Y102730D01*
X215892Y102590D01*
X215883Y102450D01*
X215869Y102311D01*
X215852Y102172D01*
X215831Y102034D01*
X215806Y101896D01*
X215777Y101759D01*
X215745Y101623D01*
X215708Y101488D01*
X215668Y101354D01*
X215625Y101221D01*
X215577Y101089D01*
X215527Y100958D01*
X215472Y100829D01*
X215414Y100702D01*
X215353Y100576D01*
X215288Y100452D01*
X215219Y100330D01*
X215148Y100210D01*
X215073Y100092D01*
X214995Y99975D01*
X214913Y99861D01*
X214829Y99750D01*
X214741Y99641D01*
X214651Y99534D01*
X214557Y99429D01*
X214461Y99328D01*
X214362Y99229D01*
X214261Y99133D01*
X214156Y99039D01*
X214049Y98949D01*
X213940Y98861D01*
X213829Y98777D01*
X213715Y98695D01*
X213598Y98617D01*
X213480Y98542D01*
X213360Y98471D01*
X213238Y98402D01*
X213114Y98337D01*
X212988Y98276D01*
X212861Y98218D01*
X212732Y98163D01*
X212601Y98113D01*
X212469Y98065D01*
X212336Y98022D01*
X212202Y97982D01*
X212067Y97945D01*
X211931Y97913D01*
X211794Y97884D01*
X211656Y97859D01*
X211518Y97838D01*
X211379Y97821D01*
X211240Y97807D01*
X211100Y97798D01*
X210960Y97792D01*
X210820Y97790D01*
D13*
X191262Y101600D02*
X191262Y116840D01*
X197612Y116840D02*
X197612Y101600D01*
D12*
X219710Y24130D02*
X219710Y11430D01*
X219708Y11290D01*
X219702Y11150D01*
X219693Y11010D01*
X219679Y10871D01*
X219662Y10732D01*
X219641Y10594D01*
X219616Y10456D01*
X219587Y10319D01*
X219555Y10183D01*
X219518Y10048D01*
X219478Y9914D01*
X219435Y9781D01*
X219387Y9649D01*
X219337Y9518D01*
X219282Y9389D01*
X219224Y9262D01*
X219163Y9136D01*
X219098Y9012D01*
X219029Y8890D01*
X218958Y8770D01*
X218883Y8652D01*
X218805Y8535D01*
X218723Y8421D01*
X218639Y8310D01*
X218551Y8201D01*
X218461Y8094D01*
X218367Y7989D01*
X218271Y7888D01*
X218172Y7789D01*
X218071Y7693D01*
X217966Y7599D01*
X217859Y7509D01*
X217750Y7421D01*
X217639Y7337D01*
X217525Y7255D01*
X217408Y7177D01*
X217290Y7102D01*
X217170Y7031D01*
X217048Y6962D01*
X216924Y6897D01*
X216798Y6836D01*
X216671Y6778D01*
X216542Y6723D01*
X216411Y6673D01*
X216279Y6625D01*
X216146Y6582D01*
X216012Y6542D01*
X215877Y6505D01*
X215741Y6473D01*
X215604Y6444D01*
X215466Y6419D01*
X215328Y6398D01*
X215189Y6381D01*
X215050Y6367D01*
X214910Y6358D01*
X214770Y6352D01*
X214630Y6350D01*
X219710Y24130D02*
X219708Y24270D01*
X219702Y24410D01*
X219693Y24550D01*
X219679Y24689D01*
X219662Y24828D01*
X219641Y24966D01*
X219616Y25104D01*
X219587Y25241D01*
X219555Y25377D01*
X219518Y25512D01*
X219478Y25646D01*
X219435Y25779D01*
X219387Y25911D01*
X219337Y26042D01*
X219282Y26171D01*
X219224Y26298D01*
X219163Y26424D01*
X219098Y26548D01*
X219029Y26670D01*
X218958Y26790D01*
X218883Y26908D01*
X218805Y27025D01*
X218723Y27139D01*
X218639Y27250D01*
X218551Y27359D01*
X218461Y27466D01*
X218367Y27571D01*
X218271Y27672D01*
X218172Y27771D01*
X218071Y27867D01*
X217966Y27961D01*
X217859Y28051D01*
X217750Y28139D01*
X217639Y28223D01*
X217525Y28305D01*
X217408Y28383D01*
X217290Y28458D01*
X217170Y28529D01*
X217048Y28598D01*
X216924Y28663D01*
X216798Y28724D01*
X216671Y28782D01*
X216542Y28837D01*
X216411Y28887D01*
X216279Y28935D01*
X216146Y28978D01*
X216012Y29018D01*
X215877Y29055D01*
X215741Y29087D01*
X215604Y29116D01*
X215466Y29141D01*
X215328Y29162D01*
X215189Y29179D01*
X215050Y29193D01*
X214910Y29202D01*
X214770Y29208D01*
X214630Y29210D01*
X214630Y6350D02*
X181610Y6350D01*
X176530Y11430D02*
X176530Y24130D01*
X181610Y29210D02*
X214630Y29210D01*
X181610Y6350D02*
X181470Y6352D01*
X181330Y6358D01*
X181190Y6367D01*
X181051Y6381D01*
X180912Y6398D01*
X180774Y6419D01*
X180636Y6444D01*
X180499Y6473D01*
X180363Y6505D01*
X180228Y6542D01*
X180094Y6582D01*
X179961Y6625D01*
X179829Y6673D01*
X179698Y6723D01*
X179569Y6778D01*
X179442Y6836D01*
X179316Y6897D01*
X179192Y6962D01*
X179070Y7031D01*
X178950Y7102D01*
X178832Y7177D01*
X178715Y7255D01*
X178601Y7337D01*
X178490Y7421D01*
X178381Y7509D01*
X178274Y7599D01*
X178169Y7693D01*
X178068Y7789D01*
X177969Y7888D01*
X177873Y7989D01*
X177779Y8094D01*
X177689Y8201D01*
X177601Y8310D01*
X177517Y8421D01*
X177435Y8535D01*
X177357Y8652D01*
X177282Y8770D01*
X177211Y8890D01*
X177142Y9012D01*
X177077Y9136D01*
X177016Y9262D01*
X176958Y9389D01*
X176903Y9518D01*
X176853Y9649D01*
X176805Y9781D01*
X176762Y9914D01*
X176722Y10048D01*
X176685Y10183D01*
X176653Y10319D01*
X176624Y10456D01*
X176599Y10594D01*
X176578Y10732D01*
X176561Y10871D01*
X176547Y11010D01*
X176538Y11150D01*
X176532Y11290D01*
X176530Y11430D01*
X176530Y24130D02*
X176532Y24270D01*
X176538Y24410D01*
X176547Y24550D01*
X176561Y24689D01*
X176578Y24828D01*
X176599Y24966D01*
X176624Y25104D01*
X176653Y25241D01*
X176685Y25377D01*
X176722Y25512D01*
X176762Y25646D01*
X176805Y25779D01*
X176853Y25911D01*
X176903Y26042D01*
X176958Y26171D01*
X177016Y26298D01*
X177077Y26424D01*
X177142Y26548D01*
X177211Y26670D01*
X177282Y26790D01*
X177357Y26908D01*
X177435Y27025D01*
X177517Y27139D01*
X177601Y27250D01*
X177689Y27359D01*
X177779Y27466D01*
X177873Y27571D01*
X177969Y27672D01*
X178068Y27771D01*
X178169Y27867D01*
X178274Y27961D01*
X178381Y28051D01*
X178490Y28139D01*
X178601Y28223D01*
X178715Y28305D01*
X178832Y28383D01*
X178950Y28458D01*
X179070Y28529D01*
X179192Y28598D01*
X179316Y28663D01*
X179442Y28724D01*
X179569Y28782D01*
X179698Y28837D01*
X179829Y28887D01*
X179961Y28935D01*
X180094Y28978D01*
X180228Y29018D01*
X180363Y29055D01*
X180499Y29087D01*
X180636Y29116D01*
X180774Y29141D01*
X180912Y29162D01*
X181051Y29179D01*
X181190Y29193D01*
X181330Y29202D01*
X181470Y29208D01*
X181610Y29210D01*
D13*
X201168Y25400D02*
X201168Y10160D01*
X194818Y10160D02*
X194818Y25400D01*
D14*
X176493Y33655D02*
X173953Y33655D01*
X173853Y33657D01*
X173754Y33663D01*
X173654Y33673D01*
X173556Y33686D01*
X173457Y33704D01*
X173360Y33725D01*
X173264Y33750D01*
X173168Y33779D01*
X173074Y33812D01*
X172981Y33848D01*
X172890Y33888D01*
X172800Y33932D01*
X172712Y33979D01*
X172626Y34029D01*
X172542Y34083D01*
X172460Y34140D01*
X172381Y34200D01*
X172303Y34264D01*
X172229Y34330D01*
X172157Y34399D01*
X172088Y34471D01*
X172022Y34545D01*
X171958Y34623D01*
X171898Y34702D01*
X171841Y34784D01*
X171787Y34868D01*
X171737Y34954D01*
X171690Y35042D01*
X171646Y35132D01*
X171606Y35223D01*
X171570Y35316D01*
X171537Y35410D01*
X171508Y35506D01*
X171483Y35602D01*
X171462Y35699D01*
X171444Y35798D01*
X171431Y35896D01*
X171421Y35996D01*
X171415Y36095D01*
X171413Y36195D01*
X171413Y42545D01*
X171415Y42645D01*
X171421Y42744D01*
X171431Y42844D01*
X171444Y42942D01*
X171462Y43041D01*
X171483Y43138D01*
X171508Y43234D01*
X171537Y43330D01*
X171570Y43424D01*
X171606Y43517D01*
X171646Y43608D01*
X171690Y43698D01*
X171737Y43786D01*
X171787Y43872D01*
X171841Y43956D01*
X171898Y44038D01*
X171958Y44117D01*
X172022Y44195D01*
X172088Y44269D01*
X172157Y44341D01*
X172229Y44410D01*
X172303Y44476D01*
X172381Y44540D01*
X172460Y44600D01*
X172542Y44657D01*
X172626Y44711D01*
X172712Y44761D01*
X172800Y44808D01*
X172890Y44852D01*
X172981Y44892D01*
X173074Y44928D01*
X173168Y44961D01*
X173264Y44990D01*
X173360Y45015D01*
X173457Y45036D01*
X173556Y45054D01*
X173654Y45067D01*
X173754Y45077D01*
X173853Y45083D01*
X173953Y45085D01*
X176493Y45085D01*
X180975Y33655D02*
X184150Y33655D01*
X184261Y33657D01*
X184371Y33663D01*
X184482Y33672D01*
X184592Y33686D01*
X184701Y33703D01*
X184810Y33724D01*
X184918Y33749D01*
X185025Y33778D01*
X185131Y33810D01*
X185236Y33846D01*
X185339Y33886D01*
X185441Y33929D01*
X185542Y33976D01*
X185641Y34027D01*
X185737Y34080D01*
X185832Y34137D01*
X185925Y34198D01*
X186016Y34261D01*
X186105Y34328D01*
X186191Y34398D01*
X186274Y34471D01*
X186356Y34546D01*
X186434Y34624D01*
X186509Y34706D01*
X186582Y34789D01*
X186652Y34875D01*
X186719Y34964D01*
X186782Y35055D01*
X186843Y35148D01*
X186900Y35242D01*
X186953Y35339D01*
X187004Y35438D01*
X187051Y35539D01*
X187094Y35641D01*
X187134Y35744D01*
X187170Y35849D01*
X187202Y35955D01*
X187231Y36062D01*
X187256Y36170D01*
X187277Y36279D01*
X187294Y36388D01*
X187308Y36498D01*
X187317Y36609D01*
X187323Y36719D01*
X187325Y36830D01*
X187323Y36941D01*
X187317Y37051D01*
X187308Y37162D01*
X187294Y37272D01*
X187277Y37381D01*
X187256Y37490D01*
X187231Y37598D01*
X187202Y37705D01*
X187170Y37811D01*
X187134Y37916D01*
X187094Y38019D01*
X187051Y38121D01*
X187004Y38222D01*
X186953Y38321D01*
X186900Y38417D01*
X186843Y38512D01*
X186782Y38605D01*
X186719Y38696D01*
X186652Y38785D01*
X186582Y38871D01*
X186509Y38954D01*
X186434Y39036D01*
X186356Y39114D01*
X186274Y39189D01*
X186191Y39262D01*
X186105Y39332D01*
X186016Y39399D01*
X185925Y39462D01*
X185832Y39523D01*
X185738Y39580D01*
X185641Y39633D01*
X185542Y39684D01*
X185441Y39731D01*
X185339Y39774D01*
X185236Y39814D01*
X185131Y39850D01*
X185025Y39882D01*
X184918Y39911D01*
X184810Y39936D01*
X184701Y39957D01*
X184592Y39974D01*
X184482Y39988D01*
X184371Y39997D01*
X184261Y40003D01*
X184150Y40005D01*
X184785Y45085D02*
X180975Y45085D01*
X184785Y45085D02*
X184885Y45083D01*
X184984Y45077D01*
X185084Y45067D01*
X185182Y45054D01*
X185281Y45036D01*
X185378Y45015D01*
X185474Y44990D01*
X185570Y44961D01*
X185664Y44928D01*
X185757Y44892D01*
X185848Y44852D01*
X185938Y44808D01*
X186026Y44761D01*
X186112Y44711D01*
X186196Y44657D01*
X186278Y44600D01*
X186357Y44540D01*
X186435Y44476D01*
X186509Y44410D01*
X186581Y44341D01*
X186650Y44269D01*
X186716Y44195D01*
X186780Y44117D01*
X186840Y44038D01*
X186897Y43956D01*
X186951Y43872D01*
X187001Y43786D01*
X187048Y43698D01*
X187092Y43608D01*
X187132Y43517D01*
X187168Y43424D01*
X187201Y43330D01*
X187230Y43234D01*
X187255Y43138D01*
X187276Y43041D01*
X187294Y42942D01*
X187307Y42844D01*
X187317Y42744D01*
X187323Y42645D01*
X187325Y42545D01*
X187323Y42445D01*
X187317Y42346D01*
X187307Y42246D01*
X187294Y42148D01*
X187276Y42049D01*
X187255Y41952D01*
X187230Y41856D01*
X187201Y41760D01*
X187168Y41666D01*
X187132Y41573D01*
X187092Y41482D01*
X187048Y41392D01*
X187001Y41304D01*
X186951Y41218D01*
X186897Y41134D01*
X186840Y41052D01*
X186780Y40973D01*
X186716Y40895D01*
X186650Y40821D01*
X186581Y40749D01*
X186509Y40680D01*
X186435Y40614D01*
X186357Y40550D01*
X186278Y40490D01*
X186196Y40433D01*
X186112Y40379D01*
X186026Y40329D01*
X185938Y40282D01*
X185848Y40238D01*
X185757Y40198D01*
X185664Y40162D01*
X185570Y40129D01*
X185474Y40100D01*
X185378Y40075D01*
X185281Y40054D01*
X185182Y40036D01*
X185084Y40023D01*
X184984Y40013D01*
X184885Y40007D01*
X184785Y40005D01*
X182245Y40005D01*
D12*
X129540Y24130D02*
X129540Y11430D01*
X129540Y24130D02*
X129542Y24270D01*
X129548Y24410D01*
X129557Y24550D01*
X129571Y24689D01*
X129588Y24828D01*
X129609Y24966D01*
X129634Y25104D01*
X129663Y25241D01*
X129695Y25377D01*
X129732Y25512D01*
X129772Y25646D01*
X129815Y25779D01*
X129863Y25911D01*
X129913Y26042D01*
X129968Y26171D01*
X130026Y26298D01*
X130087Y26424D01*
X130152Y26548D01*
X130221Y26670D01*
X130292Y26790D01*
X130367Y26908D01*
X130445Y27025D01*
X130527Y27139D01*
X130611Y27250D01*
X130699Y27359D01*
X130789Y27466D01*
X130883Y27571D01*
X130979Y27672D01*
X131078Y27771D01*
X131179Y27867D01*
X131284Y27961D01*
X131391Y28051D01*
X131500Y28139D01*
X131611Y28223D01*
X131725Y28305D01*
X131842Y28383D01*
X131960Y28458D01*
X132080Y28529D01*
X132202Y28598D01*
X132326Y28663D01*
X132452Y28724D01*
X132579Y28782D01*
X132708Y28837D01*
X132839Y28887D01*
X132971Y28935D01*
X133104Y28978D01*
X133238Y29018D01*
X133373Y29055D01*
X133509Y29087D01*
X133646Y29116D01*
X133784Y29141D01*
X133922Y29162D01*
X134061Y29179D01*
X134200Y29193D01*
X134340Y29202D01*
X134480Y29208D01*
X134620Y29210D01*
X129540Y11430D02*
X129542Y11290D01*
X129548Y11150D01*
X129557Y11010D01*
X129571Y10871D01*
X129588Y10732D01*
X129609Y10594D01*
X129634Y10456D01*
X129663Y10319D01*
X129695Y10183D01*
X129732Y10048D01*
X129772Y9914D01*
X129815Y9781D01*
X129863Y9649D01*
X129913Y9518D01*
X129968Y9389D01*
X130026Y9262D01*
X130087Y9136D01*
X130152Y9012D01*
X130221Y8890D01*
X130292Y8770D01*
X130367Y8652D01*
X130445Y8535D01*
X130527Y8421D01*
X130611Y8310D01*
X130699Y8201D01*
X130789Y8094D01*
X130883Y7989D01*
X130979Y7888D01*
X131078Y7789D01*
X131179Y7693D01*
X131284Y7599D01*
X131391Y7509D01*
X131500Y7421D01*
X131611Y7337D01*
X131725Y7255D01*
X131842Y7177D01*
X131960Y7102D01*
X132080Y7031D01*
X132202Y6962D01*
X132326Y6897D01*
X132452Y6836D01*
X132579Y6778D01*
X132708Y6723D01*
X132839Y6673D01*
X132971Y6625D01*
X133104Y6582D01*
X133238Y6542D01*
X133373Y6505D01*
X133509Y6473D01*
X133646Y6444D01*
X133784Y6419D01*
X133922Y6398D01*
X134061Y6381D01*
X134200Y6367D01*
X134340Y6358D01*
X134480Y6352D01*
X134620Y6350D01*
X134620Y29210D02*
X167640Y29210D01*
X172720Y24130D02*
X172720Y11430D01*
X167640Y6350D02*
X134620Y6350D01*
X167640Y29210D02*
X167780Y29208D01*
X167920Y29202D01*
X168060Y29193D01*
X168199Y29179D01*
X168338Y29162D01*
X168476Y29141D01*
X168614Y29116D01*
X168751Y29087D01*
X168887Y29055D01*
X169022Y29018D01*
X169156Y28978D01*
X169289Y28935D01*
X169421Y28887D01*
X169552Y28837D01*
X169681Y28782D01*
X169808Y28724D01*
X169934Y28663D01*
X170058Y28598D01*
X170180Y28529D01*
X170300Y28458D01*
X170418Y28383D01*
X170535Y28305D01*
X170649Y28223D01*
X170760Y28139D01*
X170869Y28051D01*
X170976Y27961D01*
X171081Y27867D01*
X171182Y27771D01*
X171281Y27672D01*
X171377Y27571D01*
X171471Y27466D01*
X171561Y27359D01*
X171649Y27250D01*
X171733Y27139D01*
X171815Y27025D01*
X171893Y26908D01*
X171968Y26790D01*
X172039Y26670D01*
X172108Y26548D01*
X172173Y26424D01*
X172234Y26298D01*
X172292Y26171D01*
X172347Y26042D01*
X172397Y25911D01*
X172445Y25779D01*
X172488Y25646D01*
X172528Y25512D01*
X172565Y25377D01*
X172597Y25241D01*
X172626Y25104D01*
X172651Y24966D01*
X172672Y24828D01*
X172689Y24689D01*
X172703Y24550D01*
X172712Y24410D01*
X172718Y24270D01*
X172720Y24130D01*
X172720Y11430D02*
X172718Y11290D01*
X172712Y11150D01*
X172703Y11010D01*
X172689Y10871D01*
X172672Y10732D01*
X172651Y10594D01*
X172626Y10456D01*
X172597Y10319D01*
X172565Y10183D01*
X172528Y10048D01*
X172488Y9914D01*
X172445Y9781D01*
X172397Y9649D01*
X172347Y9518D01*
X172292Y9389D01*
X172234Y9262D01*
X172173Y9136D01*
X172108Y9012D01*
X172039Y8890D01*
X171968Y8770D01*
X171893Y8652D01*
X171815Y8535D01*
X171733Y8421D01*
X171649Y8310D01*
X171561Y8201D01*
X171471Y8094D01*
X171377Y7989D01*
X171281Y7888D01*
X171182Y7789D01*
X171081Y7693D01*
X170976Y7599D01*
X170869Y7509D01*
X170760Y7421D01*
X170649Y7337D01*
X170535Y7255D01*
X170418Y7177D01*
X170300Y7102D01*
X170180Y7031D01*
X170058Y6962D01*
X169934Y6897D01*
X169808Y6836D01*
X169681Y6778D01*
X169552Y6723D01*
X169421Y6673D01*
X169289Y6625D01*
X169156Y6582D01*
X169022Y6542D01*
X168887Y6505D01*
X168751Y6473D01*
X168614Y6444D01*
X168476Y6419D01*
X168338Y6398D01*
X168199Y6381D01*
X168060Y6367D01*
X167920Y6358D01*
X167780Y6352D01*
X167640Y6350D01*
D13*
X148082Y10160D02*
X148082Y25400D01*
X154432Y25400D02*
X154432Y10160D01*
D12*
X323850Y97790D02*
X336550Y97790D01*
X336690Y97788D01*
X336830Y97782D01*
X336970Y97773D01*
X337109Y97759D01*
X337248Y97742D01*
X337386Y97721D01*
X337524Y97696D01*
X337661Y97667D01*
X337797Y97635D01*
X337932Y97598D01*
X338066Y97558D01*
X338199Y97515D01*
X338331Y97467D01*
X338462Y97417D01*
X338591Y97362D01*
X338718Y97304D01*
X338844Y97243D01*
X338968Y97178D01*
X339090Y97109D01*
X339210Y97038D01*
X339328Y96963D01*
X339445Y96885D01*
X339559Y96803D01*
X339670Y96719D01*
X339779Y96631D01*
X339886Y96541D01*
X339991Y96447D01*
X340092Y96351D01*
X340191Y96252D01*
X340287Y96151D01*
X340381Y96046D01*
X340471Y95939D01*
X340559Y95830D01*
X340643Y95719D01*
X340725Y95605D01*
X340803Y95488D01*
X340878Y95370D01*
X340949Y95250D01*
X341018Y95128D01*
X341083Y95004D01*
X341144Y94878D01*
X341202Y94751D01*
X341257Y94622D01*
X341307Y94491D01*
X341355Y94359D01*
X341398Y94226D01*
X341438Y94092D01*
X341475Y93957D01*
X341507Y93821D01*
X341536Y93684D01*
X341561Y93546D01*
X341582Y93408D01*
X341599Y93269D01*
X341613Y93130D01*
X341622Y92990D01*
X341628Y92850D01*
X341630Y92710D01*
X323850Y97790D02*
X323710Y97788D01*
X323570Y97782D01*
X323430Y97773D01*
X323291Y97759D01*
X323152Y97742D01*
X323014Y97721D01*
X322876Y97696D01*
X322739Y97667D01*
X322603Y97635D01*
X322468Y97598D01*
X322334Y97558D01*
X322201Y97515D01*
X322069Y97467D01*
X321938Y97417D01*
X321809Y97362D01*
X321682Y97304D01*
X321556Y97243D01*
X321432Y97178D01*
X321310Y97109D01*
X321190Y97038D01*
X321072Y96963D01*
X320955Y96885D01*
X320841Y96803D01*
X320730Y96719D01*
X320621Y96631D01*
X320514Y96541D01*
X320409Y96447D01*
X320308Y96351D01*
X320209Y96252D01*
X320113Y96151D01*
X320019Y96046D01*
X319929Y95939D01*
X319841Y95830D01*
X319757Y95719D01*
X319675Y95605D01*
X319597Y95488D01*
X319522Y95370D01*
X319451Y95250D01*
X319382Y95128D01*
X319317Y95004D01*
X319256Y94878D01*
X319198Y94751D01*
X319143Y94622D01*
X319093Y94491D01*
X319045Y94359D01*
X319002Y94226D01*
X318962Y94092D01*
X318925Y93957D01*
X318893Y93821D01*
X318864Y93684D01*
X318839Y93546D01*
X318818Y93408D01*
X318801Y93269D01*
X318787Y93130D01*
X318778Y92990D01*
X318772Y92850D01*
X318770Y92710D01*
X341630Y92710D02*
X341630Y59690D01*
X336550Y54610D02*
X323850Y54610D01*
X318770Y59690D02*
X318770Y92710D01*
X341630Y59690D02*
X341628Y59550D01*
X341622Y59410D01*
X341613Y59270D01*
X341599Y59131D01*
X341582Y58992D01*
X341561Y58854D01*
X341536Y58716D01*
X341507Y58579D01*
X341475Y58443D01*
X341438Y58308D01*
X341398Y58174D01*
X341355Y58041D01*
X341307Y57909D01*
X341257Y57778D01*
X341202Y57649D01*
X341144Y57522D01*
X341083Y57396D01*
X341018Y57272D01*
X340949Y57150D01*
X340878Y57030D01*
X340803Y56912D01*
X340725Y56795D01*
X340643Y56681D01*
X340559Y56570D01*
X340471Y56461D01*
X340381Y56354D01*
X340287Y56249D01*
X340191Y56148D01*
X340092Y56049D01*
X339991Y55953D01*
X339886Y55859D01*
X339779Y55769D01*
X339670Y55681D01*
X339559Y55597D01*
X339445Y55515D01*
X339328Y55437D01*
X339210Y55362D01*
X339090Y55291D01*
X338968Y55222D01*
X338844Y55157D01*
X338718Y55096D01*
X338591Y55038D01*
X338462Y54983D01*
X338331Y54933D01*
X338199Y54885D01*
X338066Y54842D01*
X337932Y54802D01*
X337797Y54765D01*
X337661Y54733D01*
X337524Y54704D01*
X337386Y54679D01*
X337248Y54658D01*
X337109Y54641D01*
X336970Y54627D01*
X336830Y54618D01*
X336690Y54612D01*
X336550Y54610D01*
X323850Y54610D02*
X323710Y54612D01*
X323570Y54618D01*
X323430Y54627D01*
X323291Y54641D01*
X323152Y54658D01*
X323014Y54679D01*
X322876Y54704D01*
X322739Y54733D01*
X322603Y54765D01*
X322468Y54802D01*
X322334Y54842D01*
X322201Y54885D01*
X322069Y54933D01*
X321938Y54983D01*
X321809Y55038D01*
X321682Y55096D01*
X321556Y55157D01*
X321432Y55222D01*
X321310Y55291D01*
X321190Y55362D01*
X321072Y55437D01*
X320955Y55515D01*
X320841Y55597D01*
X320730Y55681D01*
X320621Y55769D01*
X320514Y55859D01*
X320409Y55953D01*
X320308Y56049D01*
X320209Y56148D01*
X320113Y56249D01*
X320019Y56354D01*
X319929Y56461D01*
X319841Y56570D01*
X319757Y56681D01*
X319675Y56795D01*
X319597Y56912D01*
X319522Y57030D01*
X319451Y57150D01*
X319382Y57272D01*
X319317Y57396D01*
X319256Y57522D01*
X319198Y57649D01*
X319143Y57778D01*
X319093Y57909D01*
X319045Y58041D01*
X319002Y58174D01*
X318962Y58308D01*
X318925Y58443D01*
X318893Y58579D01*
X318864Y58716D01*
X318839Y58854D01*
X318818Y58992D01*
X318801Y59131D01*
X318787Y59270D01*
X318778Y59410D01*
X318772Y59550D01*
X318770Y59690D01*
D13*
X322580Y79248D02*
X337820Y79248D01*
X337820Y72898D02*
X322580Y72898D01*
D14*
X299085Y52705D02*
X296545Y52705D01*
X296445Y52707D01*
X296346Y52713D01*
X296246Y52723D01*
X296148Y52736D01*
X296049Y52754D01*
X295952Y52775D01*
X295856Y52800D01*
X295760Y52829D01*
X295666Y52862D01*
X295573Y52898D01*
X295482Y52938D01*
X295392Y52982D01*
X295304Y53029D01*
X295218Y53079D01*
X295134Y53133D01*
X295052Y53190D01*
X294973Y53250D01*
X294895Y53314D01*
X294821Y53380D01*
X294749Y53449D01*
X294680Y53521D01*
X294614Y53595D01*
X294550Y53673D01*
X294490Y53752D01*
X294433Y53834D01*
X294379Y53918D01*
X294329Y54004D01*
X294282Y54092D01*
X294238Y54182D01*
X294198Y54273D01*
X294162Y54366D01*
X294129Y54460D01*
X294100Y54556D01*
X294075Y54652D01*
X294054Y54749D01*
X294036Y54848D01*
X294023Y54946D01*
X294013Y55046D01*
X294007Y55145D01*
X294005Y55245D01*
X294005Y61595D01*
X294007Y61695D01*
X294013Y61794D01*
X294023Y61894D01*
X294036Y61992D01*
X294054Y62091D01*
X294075Y62188D01*
X294100Y62284D01*
X294129Y62380D01*
X294162Y62474D01*
X294198Y62567D01*
X294238Y62658D01*
X294282Y62748D01*
X294329Y62836D01*
X294379Y62922D01*
X294433Y63006D01*
X294490Y63088D01*
X294550Y63167D01*
X294614Y63245D01*
X294680Y63319D01*
X294749Y63391D01*
X294821Y63460D01*
X294895Y63526D01*
X294973Y63590D01*
X295052Y63650D01*
X295134Y63707D01*
X295218Y63761D01*
X295304Y63811D01*
X295392Y63858D01*
X295482Y63902D01*
X295573Y63942D01*
X295666Y63978D01*
X295760Y64011D01*
X295856Y64040D01*
X295952Y64065D01*
X296049Y64086D01*
X296148Y64104D01*
X296246Y64117D01*
X296346Y64127D01*
X296445Y64133D01*
X296545Y64135D01*
X299085Y64135D01*
X306107Y64135D02*
X303567Y55245D01*
X309917Y55245D01*
X308012Y57785D02*
X308012Y52705D01*
D12*
X323850Y8890D02*
X336550Y8890D01*
X323850Y8890D02*
X323710Y8892D01*
X323570Y8898D01*
X323430Y8907D01*
X323291Y8921D01*
X323152Y8938D01*
X323014Y8959D01*
X322876Y8984D01*
X322739Y9013D01*
X322603Y9045D01*
X322468Y9082D01*
X322334Y9122D01*
X322201Y9165D01*
X322069Y9213D01*
X321938Y9263D01*
X321809Y9318D01*
X321682Y9376D01*
X321556Y9437D01*
X321432Y9502D01*
X321310Y9571D01*
X321190Y9642D01*
X321072Y9717D01*
X320955Y9795D01*
X320841Y9877D01*
X320730Y9961D01*
X320621Y10049D01*
X320514Y10139D01*
X320409Y10233D01*
X320308Y10329D01*
X320209Y10428D01*
X320113Y10529D01*
X320019Y10634D01*
X319929Y10741D01*
X319841Y10850D01*
X319757Y10961D01*
X319675Y11075D01*
X319597Y11192D01*
X319522Y11310D01*
X319451Y11430D01*
X319382Y11552D01*
X319317Y11676D01*
X319256Y11802D01*
X319198Y11929D01*
X319143Y12058D01*
X319093Y12189D01*
X319045Y12321D01*
X319002Y12454D01*
X318962Y12588D01*
X318925Y12723D01*
X318893Y12859D01*
X318864Y12996D01*
X318839Y13134D01*
X318818Y13272D01*
X318801Y13411D01*
X318787Y13550D01*
X318778Y13690D01*
X318772Y13830D01*
X318770Y13970D01*
X336550Y8890D02*
X336690Y8892D01*
X336830Y8898D01*
X336970Y8907D01*
X337109Y8921D01*
X337248Y8938D01*
X337386Y8959D01*
X337524Y8984D01*
X337661Y9013D01*
X337797Y9045D01*
X337932Y9082D01*
X338066Y9122D01*
X338199Y9165D01*
X338331Y9213D01*
X338462Y9263D01*
X338591Y9318D01*
X338718Y9376D01*
X338844Y9437D01*
X338968Y9502D01*
X339090Y9571D01*
X339210Y9642D01*
X339328Y9717D01*
X339445Y9795D01*
X339559Y9877D01*
X339670Y9961D01*
X339779Y10049D01*
X339886Y10139D01*
X339991Y10233D01*
X340092Y10329D01*
X340191Y10428D01*
X340287Y10529D01*
X340381Y10634D01*
X340471Y10741D01*
X340559Y10850D01*
X340643Y10961D01*
X340725Y11075D01*
X340803Y11192D01*
X340878Y11310D01*
X340949Y11430D01*
X341018Y11552D01*
X341083Y11676D01*
X341144Y11802D01*
X341202Y11929D01*
X341257Y12058D01*
X341307Y12189D01*
X341355Y12321D01*
X341398Y12454D01*
X341438Y12588D01*
X341475Y12723D01*
X341507Y12859D01*
X341536Y12996D01*
X341561Y13134D01*
X341582Y13272D01*
X341599Y13411D01*
X341613Y13550D01*
X341622Y13690D01*
X341628Y13830D01*
X341630Y13970D01*
X318770Y13970D02*
X318770Y46990D01*
X323850Y52070D02*
X336550Y52070D01*
X341630Y46990D02*
X341630Y13970D01*
X318770Y46990D02*
X318772Y47130D01*
X318778Y47270D01*
X318787Y47410D01*
X318801Y47549D01*
X318818Y47688D01*
X318839Y47826D01*
X318864Y47964D01*
X318893Y48101D01*
X318925Y48237D01*
X318962Y48372D01*
X319002Y48506D01*
X319045Y48639D01*
X319093Y48771D01*
X319143Y48902D01*
X319198Y49031D01*
X319256Y49158D01*
X319317Y49284D01*
X319382Y49408D01*
X319451Y49530D01*
X319522Y49650D01*
X319597Y49768D01*
X319675Y49885D01*
X319757Y49999D01*
X319841Y50110D01*
X319929Y50219D01*
X320019Y50326D01*
X320113Y50431D01*
X320209Y50532D01*
X320308Y50631D01*
X320409Y50727D01*
X320514Y50821D01*
X320621Y50911D01*
X320730Y50999D01*
X320841Y51083D01*
X320955Y51165D01*
X321072Y51243D01*
X321190Y51318D01*
X321310Y51389D01*
X321432Y51458D01*
X321556Y51523D01*
X321682Y51584D01*
X321809Y51642D01*
X321938Y51697D01*
X322069Y51747D01*
X322201Y51795D01*
X322334Y51838D01*
X322468Y51878D01*
X322603Y51915D01*
X322739Y51947D01*
X322876Y51976D01*
X323014Y52001D01*
X323152Y52022D01*
X323291Y52039D01*
X323430Y52053D01*
X323570Y52062D01*
X323710Y52068D01*
X323850Y52070D01*
X336550Y52070D02*
X336690Y52068D01*
X336830Y52062D01*
X336970Y52053D01*
X337109Y52039D01*
X337248Y52022D01*
X337386Y52001D01*
X337524Y51976D01*
X337661Y51947D01*
X337797Y51915D01*
X337932Y51878D01*
X338066Y51838D01*
X338199Y51795D01*
X338331Y51747D01*
X338462Y51697D01*
X338591Y51642D01*
X338718Y51584D01*
X338844Y51523D01*
X338968Y51458D01*
X339090Y51389D01*
X339210Y51318D01*
X339328Y51243D01*
X339445Y51165D01*
X339559Y51083D01*
X339670Y50999D01*
X339779Y50911D01*
X339886Y50821D01*
X339991Y50727D01*
X340092Y50631D01*
X340191Y50532D01*
X340287Y50431D01*
X340381Y50326D01*
X340471Y50219D01*
X340559Y50110D01*
X340643Y49999D01*
X340725Y49885D01*
X340803Y49768D01*
X340878Y49650D01*
X340949Y49530D01*
X341018Y49408D01*
X341083Y49284D01*
X341144Y49158D01*
X341202Y49031D01*
X341257Y48902D01*
X341307Y48771D01*
X341355Y48639D01*
X341398Y48506D01*
X341438Y48372D01*
X341475Y48237D01*
X341507Y48101D01*
X341536Y47964D01*
X341561Y47826D01*
X341582Y47688D01*
X341599Y47549D01*
X341613Y47410D01*
X341622Y47270D01*
X341628Y47130D01*
X341630Y46990D01*
D13*
X337820Y27432D02*
X322580Y27432D01*
X322580Y33782D02*
X337820Y33782D01*
D12*
X75403Y40986D02*
X75334Y41058D01*
X75268Y41132D01*
X75204Y41210D01*
X75144Y41289D01*
X75087Y41371D01*
X75033Y41455D01*
X74983Y41541D01*
X74936Y41629D01*
X74892Y41719D01*
X74852Y41810D01*
X74816Y41903D01*
X74783Y41997D01*
X74754Y42093D01*
X74729Y42189D01*
X74708Y42286D01*
X74690Y42385D01*
X74677Y42483D01*
X74667Y42583D01*
X74661Y42682D01*
X74659Y42782D01*
X74661Y42882D01*
X74667Y42981D01*
X74677Y43081D01*
X74690Y43179D01*
X74708Y43278D01*
X74729Y43375D01*
X74754Y43471D01*
X74783Y43567D01*
X74816Y43661D01*
X74852Y43754D01*
X74892Y43845D01*
X74936Y43935D01*
X74983Y44023D01*
X75033Y44109D01*
X75087Y44193D01*
X75144Y44275D01*
X75204Y44354D01*
X75268Y44432D01*
X75334Y44506D01*
X75403Y44578D01*
X87976Y28413D02*
X88048Y28344D01*
X88122Y28278D01*
X88200Y28214D01*
X88279Y28154D01*
X88361Y28097D01*
X88445Y28043D01*
X88531Y27993D01*
X88619Y27946D01*
X88709Y27902D01*
X88800Y27862D01*
X88893Y27826D01*
X88987Y27793D01*
X89083Y27764D01*
X89179Y27739D01*
X89276Y27718D01*
X89375Y27700D01*
X89473Y27687D01*
X89573Y27677D01*
X89672Y27671D01*
X89772Y27669D01*
X89872Y27671D01*
X89971Y27677D01*
X90071Y27687D01*
X90169Y27700D01*
X90268Y27718D01*
X90365Y27739D01*
X90461Y27764D01*
X90557Y27793D01*
X90651Y27826D01*
X90744Y27862D01*
X90835Y27902D01*
X90925Y27946D01*
X91013Y27993D01*
X91099Y28043D01*
X91183Y28097D01*
X91265Y28154D01*
X91344Y28214D01*
X91422Y28278D01*
X91496Y28344D01*
X91568Y28413D01*
X132877Y69722D02*
X132946Y69794D01*
X133012Y69868D01*
X133076Y69946D01*
X133136Y70025D01*
X133193Y70107D01*
X133247Y70191D01*
X133297Y70277D01*
X133344Y70365D01*
X133388Y70455D01*
X133428Y70546D01*
X133464Y70639D01*
X133497Y70733D01*
X133526Y70829D01*
X133551Y70925D01*
X133572Y71022D01*
X133590Y71121D01*
X133603Y71219D01*
X133613Y71319D01*
X133619Y71418D01*
X133621Y71518D01*
X133619Y71618D01*
X133613Y71717D01*
X133603Y71817D01*
X133590Y71915D01*
X133572Y72014D01*
X133551Y72111D01*
X133526Y72207D01*
X133497Y72303D01*
X133464Y72397D01*
X133428Y72490D01*
X133388Y72581D01*
X133344Y72671D01*
X133297Y72759D01*
X133247Y72845D01*
X133193Y72929D01*
X133136Y73011D01*
X133076Y73090D01*
X133012Y73168D01*
X132946Y73242D01*
X132877Y73314D01*
X120304Y85887D02*
X120232Y85956D01*
X120158Y86022D01*
X120080Y86086D01*
X120001Y86146D01*
X119919Y86203D01*
X119835Y86257D01*
X119749Y86307D01*
X119661Y86354D01*
X119571Y86398D01*
X119480Y86438D01*
X119387Y86474D01*
X119293Y86507D01*
X119197Y86536D01*
X119101Y86561D01*
X119004Y86582D01*
X118905Y86600D01*
X118807Y86613D01*
X118707Y86623D01*
X118608Y86629D01*
X118508Y86631D01*
X118408Y86629D01*
X118309Y86623D01*
X118209Y86613D01*
X118111Y86600D01*
X118012Y86582D01*
X117915Y86561D01*
X117819Y86536D01*
X117723Y86507D01*
X117629Y86474D01*
X117536Y86438D01*
X117445Y86398D01*
X117355Y86354D01*
X117267Y86307D01*
X117181Y86257D01*
X117097Y86203D01*
X117015Y86146D01*
X116936Y86086D01*
X116858Y86022D01*
X116784Y85956D01*
X116712Y85887D01*
X75403Y40986D02*
X87976Y28413D01*
X75403Y44578D02*
X78097Y47272D01*
X79893Y47272D01*
X94262Y31107D02*
X91568Y28413D01*
X94262Y31107D02*
X94262Y32903D01*
X114018Y81397D02*
X114018Y83193D01*
X114018Y81397D02*
X79893Y47272D01*
X128387Y67028D02*
X130183Y67028D01*
X128387Y67028D02*
X94262Y32903D01*
X114018Y83193D02*
X116712Y85887D01*
X132877Y69722D02*
X130183Y67028D01*
X132877Y73314D02*
X120304Y85887D01*
D15*
G36*
X134852Y83552D02*
X128746Y77446D01*
X124436Y81756D01*
X130542Y87862D01*
X134852Y83552D01*
G37*
G36*
X83844Y32544D02*
X77738Y26438D01*
X73428Y30748D01*
X79534Y36854D01*
X83844Y32544D01*
G37*
D14*
X85781Y62512D02*
X77699Y70594D01*
X85781Y62512D02*
X89373Y66104D01*
X86212Y75515D02*
X86661Y79556D01*
X94743Y71474D01*
X92498Y69229D02*
X96988Y73719D01*
D12*
X180686Y92237D02*
X180758Y92306D01*
X180832Y92372D01*
X180910Y92436D01*
X180989Y92496D01*
X181071Y92553D01*
X181155Y92607D01*
X181241Y92657D01*
X181329Y92704D01*
X181419Y92748D01*
X181510Y92788D01*
X181603Y92824D01*
X181697Y92857D01*
X181793Y92886D01*
X181889Y92911D01*
X181986Y92932D01*
X182085Y92950D01*
X182183Y92963D01*
X182283Y92973D01*
X182382Y92979D01*
X182482Y92981D01*
X182582Y92979D01*
X182681Y92973D01*
X182781Y92963D01*
X182879Y92950D01*
X182978Y92932D01*
X183075Y92911D01*
X183171Y92886D01*
X183267Y92857D01*
X183361Y92824D01*
X183454Y92788D01*
X183545Y92748D01*
X183635Y92704D01*
X183723Y92657D01*
X183809Y92607D01*
X183893Y92553D01*
X183975Y92496D01*
X184054Y92436D01*
X184132Y92372D01*
X184206Y92306D01*
X184278Y92237D01*
X168113Y79664D02*
X168044Y79592D01*
X167978Y79518D01*
X167914Y79440D01*
X167854Y79361D01*
X167797Y79279D01*
X167743Y79195D01*
X167693Y79109D01*
X167646Y79021D01*
X167602Y78931D01*
X167562Y78840D01*
X167526Y78747D01*
X167493Y78653D01*
X167464Y78557D01*
X167439Y78461D01*
X167418Y78364D01*
X167400Y78265D01*
X167387Y78167D01*
X167377Y78067D01*
X167371Y77968D01*
X167369Y77868D01*
X167371Y77768D01*
X167377Y77669D01*
X167387Y77569D01*
X167400Y77471D01*
X167418Y77372D01*
X167439Y77275D01*
X167464Y77179D01*
X167493Y77083D01*
X167526Y76989D01*
X167562Y76896D01*
X167602Y76805D01*
X167646Y76715D01*
X167693Y76627D01*
X167743Y76541D01*
X167797Y76457D01*
X167854Y76375D01*
X167914Y76296D01*
X167978Y76218D01*
X168044Y76144D01*
X168113Y76072D01*
X209422Y34763D02*
X209494Y34694D01*
X209568Y34628D01*
X209646Y34564D01*
X209725Y34504D01*
X209807Y34447D01*
X209891Y34393D01*
X209977Y34343D01*
X210065Y34296D01*
X210155Y34252D01*
X210246Y34212D01*
X210339Y34176D01*
X210433Y34143D01*
X210529Y34114D01*
X210625Y34089D01*
X210722Y34068D01*
X210821Y34050D01*
X210919Y34037D01*
X211019Y34027D01*
X211118Y34021D01*
X211218Y34019D01*
X211318Y34021D01*
X211417Y34027D01*
X211517Y34037D01*
X211615Y34050D01*
X211714Y34068D01*
X211811Y34089D01*
X211907Y34114D01*
X212003Y34143D01*
X212097Y34176D01*
X212190Y34212D01*
X212281Y34252D01*
X212371Y34296D01*
X212459Y34343D01*
X212545Y34393D01*
X212629Y34447D01*
X212711Y34504D01*
X212790Y34564D01*
X212868Y34628D01*
X212942Y34694D01*
X213014Y34763D01*
X225587Y47336D02*
X225656Y47408D01*
X225722Y47482D01*
X225786Y47560D01*
X225846Y47639D01*
X225903Y47721D01*
X225957Y47805D01*
X226007Y47891D01*
X226054Y47979D01*
X226098Y48069D01*
X226138Y48160D01*
X226174Y48253D01*
X226207Y48347D01*
X226236Y48443D01*
X226261Y48539D01*
X226282Y48636D01*
X226300Y48735D01*
X226313Y48833D01*
X226323Y48933D01*
X226329Y49032D01*
X226331Y49132D01*
X226329Y49232D01*
X226323Y49331D01*
X226313Y49431D01*
X226300Y49529D01*
X226282Y49628D01*
X226261Y49725D01*
X226236Y49821D01*
X226207Y49917D01*
X226174Y50011D01*
X226138Y50104D01*
X226098Y50195D01*
X226054Y50285D01*
X226007Y50373D01*
X225957Y50459D01*
X225903Y50543D01*
X225846Y50625D01*
X225786Y50704D01*
X225722Y50782D01*
X225656Y50856D01*
X225587Y50928D01*
X180686Y92237D02*
X168113Y79664D01*
X184278Y92237D02*
X186972Y89543D01*
X186972Y87747D01*
X170807Y73378D02*
X168113Y76072D01*
X170807Y73378D02*
X172603Y73378D01*
X221097Y53622D02*
X222893Y53622D01*
X221097Y53622D02*
X186972Y87747D01*
X206728Y39253D02*
X206728Y37457D01*
X206728Y39253D02*
X172603Y73378D01*
X222893Y53622D02*
X225587Y50928D01*
X209422Y34763D02*
X206728Y37457D01*
X213014Y34763D02*
X225587Y47336D01*
D15*
G36*
X223252Y32788D02*
X217146Y38894D01*
X221456Y43204D01*
X227562Y37098D01*
X223252Y32788D01*
G37*
G36*
X172244Y83796D02*
X166138Y89902D01*
X170448Y94212D01*
X176554Y88106D01*
X172244Y83796D01*
G37*
D14*
X202212Y81859D02*
X210294Y89941D01*
X202212Y81859D02*
X205804Y78267D01*
X219481Y76713D02*
X219555Y76790D01*
X219626Y76870D01*
X219695Y76952D01*
X219760Y77037D01*
X219821Y77124D01*
X219880Y77213D01*
X219935Y77305D01*
X219987Y77399D01*
X220035Y77494D01*
X220080Y77591D01*
X220120Y77690D01*
X220158Y77790D01*
X220191Y77892D01*
X220221Y77994D01*
X220246Y78098D01*
X220268Y78203D01*
X220286Y78308D01*
X220300Y78414D01*
X220310Y78520D01*
X220316Y78627D01*
X220318Y78734D01*
X220316Y78841D01*
X220310Y78948D01*
X220300Y79054D01*
X220286Y79160D01*
X220268Y79265D01*
X220246Y79370D01*
X220221Y79474D01*
X220191Y79576D01*
X220158Y79678D01*
X220120Y79778D01*
X220080Y79877D01*
X220035Y79974D01*
X219987Y80069D01*
X219935Y80163D01*
X219880Y80255D01*
X219821Y80344D01*
X219760Y80431D01*
X219695Y80516D01*
X219626Y80598D01*
X219555Y80678D01*
X219481Y80755D01*
X219396Y80837D01*
X219308Y80917D01*
X219218Y80993D01*
X219125Y81067D01*
X219030Y81138D01*
X218933Y81205D01*
X218834Y81270D01*
X218733Y81331D01*
X218629Y81389D01*
X218524Y81444D01*
X218418Y81495D01*
X218309Y81542D01*
X218199Y81587D01*
X218088Y81627D01*
X217976Y81664D01*
X217862Y81698D01*
X217748Y81727D01*
X217632Y81753D01*
X217516Y81775D01*
X217399Y81794D01*
X217282Y81809D01*
X217164Y81819D01*
X217045Y81826D01*
X216927Y81830D01*
X216809Y81829D01*
X216690Y81825D01*
X216572Y81817D01*
X216455Y81805D01*
X216337Y81789D01*
X216221Y81769D01*
X216104Y81746D01*
X215989Y81719D01*
X215875Y81688D01*
X215762Y81654D01*
X215650Y81616D01*
X215539Y81574D01*
X215429Y81529D01*
X215321Y81480D01*
X215215Y81428D01*
X217235Y75816D02*
X217343Y75815D01*
X217451Y75818D01*
X217559Y75825D01*
X217667Y75836D01*
X217774Y75850D01*
X217880Y75868D01*
X217986Y75890D01*
X218091Y75916D01*
X218195Y75945D01*
X218298Y75978D01*
X218399Y76015D01*
X218500Y76055D01*
X218599Y76099D01*
X218696Y76146D01*
X218791Y76196D01*
X218885Y76250D01*
X218977Y76307D01*
X219066Y76367D01*
X219154Y76431D01*
X219239Y76497D01*
X219322Y76567D01*
X219402Y76639D01*
X219480Y76714D01*
X217236Y75815D02*
X208929Y75142D01*
X213419Y70651D01*
D12*
X258283Y59818D02*
X258214Y59746D01*
X258148Y59672D01*
X258084Y59594D01*
X258024Y59515D01*
X257967Y59433D01*
X257913Y59349D01*
X257863Y59263D01*
X257816Y59175D01*
X257772Y59085D01*
X257732Y58994D01*
X257696Y58901D01*
X257663Y58807D01*
X257634Y58711D01*
X257609Y58615D01*
X257588Y58518D01*
X257570Y58419D01*
X257557Y58321D01*
X257547Y58221D01*
X257541Y58122D01*
X257539Y58022D01*
X257541Y57922D01*
X257547Y57823D01*
X257557Y57723D01*
X257570Y57625D01*
X257588Y57526D01*
X257609Y57429D01*
X257634Y57333D01*
X257663Y57237D01*
X257696Y57143D01*
X257732Y57050D01*
X257772Y56959D01*
X257816Y56869D01*
X257863Y56781D01*
X257913Y56695D01*
X257967Y56611D01*
X258024Y56529D01*
X258084Y56450D01*
X258148Y56372D01*
X258214Y56298D01*
X258283Y56226D01*
X270856Y43653D02*
X270928Y43584D01*
X271002Y43518D01*
X271080Y43454D01*
X271159Y43394D01*
X271241Y43337D01*
X271325Y43283D01*
X271411Y43233D01*
X271499Y43186D01*
X271589Y43142D01*
X271680Y43102D01*
X271773Y43066D01*
X271867Y43033D01*
X271963Y43004D01*
X272059Y42979D01*
X272156Y42958D01*
X272255Y42940D01*
X272353Y42927D01*
X272453Y42917D01*
X272552Y42911D01*
X272652Y42909D01*
X272752Y42911D01*
X272851Y42917D01*
X272951Y42927D01*
X273049Y42940D01*
X273148Y42958D01*
X273245Y42979D01*
X273341Y43004D01*
X273437Y43033D01*
X273531Y43066D01*
X273624Y43102D01*
X273715Y43142D01*
X273805Y43186D01*
X273893Y43233D01*
X273979Y43283D01*
X274063Y43337D01*
X274145Y43394D01*
X274224Y43454D01*
X274302Y43518D01*
X274376Y43584D01*
X274448Y43653D01*
X315757Y84962D02*
X315826Y85034D01*
X315892Y85108D01*
X315956Y85186D01*
X316016Y85265D01*
X316073Y85347D01*
X316127Y85431D01*
X316177Y85517D01*
X316224Y85605D01*
X316268Y85695D01*
X316308Y85786D01*
X316344Y85879D01*
X316377Y85973D01*
X316406Y86069D01*
X316431Y86165D01*
X316452Y86262D01*
X316470Y86361D01*
X316483Y86459D01*
X316493Y86559D01*
X316499Y86658D01*
X316501Y86758D01*
X316499Y86858D01*
X316493Y86957D01*
X316483Y87057D01*
X316470Y87155D01*
X316452Y87254D01*
X316431Y87351D01*
X316406Y87447D01*
X316377Y87543D01*
X316344Y87637D01*
X316308Y87730D01*
X316268Y87821D01*
X316224Y87911D01*
X316177Y87999D01*
X316127Y88085D01*
X316073Y88169D01*
X316016Y88251D01*
X315956Y88330D01*
X315892Y88408D01*
X315826Y88482D01*
X315757Y88554D01*
X303184Y101127D02*
X303112Y101196D01*
X303038Y101262D01*
X302960Y101326D01*
X302881Y101386D01*
X302799Y101443D01*
X302715Y101497D01*
X302629Y101547D01*
X302541Y101594D01*
X302451Y101638D01*
X302360Y101678D01*
X302267Y101714D01*
X302173Y101747D01*
X302077Y101776D01*
X301981Y101801D01*
X301884Y101822D01*
X301785Y101840D01*
X301687Y101853D01*
X301587Y101863D01*
X301488Y101869D01*
X301388Y101871D01*
X301288Y101869D01*
X301189Y101863D01*
X301089Y101853D01*
X300991Y101840D01*
X300892Y101822D01*
X300795Y101801D01*
X300699Y101776D01*
X300603Y101747D01*
X300509Y101714D01*
X300416Y101678D01*
X300325Y101638D01*
X300235Y101594D01*
X300147Y101547D01*
X300061Y101497D01*
X299977Y101443D01*
X299895Y101386D01*
X299816Y101326D01*
X299738Y101262D01*
X299664Y101196D01*
X299592Y101127D01*
X258283Y56226D02*
X270856Y43653D01*
X258283Y59818D02*
X260977Y62512D01*
X262773Y62512D01*
X277142Y46347D02*
X274448Y43653D01*
X277142Y46347D02*
X277142Y48143D01*
X296898Y96637D02*
X296898Y98433D01*
X296898Y96637D02*
X262773Y62512D01*
X311267Y82268D02*
X313063Y82268D01*
X311267Y82268D02*
X277142Y48143D01*
X296898Y98433D02*
X299592Y101127D01*
X315757Y84962D02*
X313063Y82268D01*
X315757Y88554D02*
X303184Y101127D01*
D15*
G36*
X317732Y98792D02*
X311626Y92686D01*
X307316Y96996D01*
X313422Y103102D01*
X317732Y98792D01*
G37*
G36*
X266724Y47784D02*
X260618Y41678D01*
X256308Y45988D01*
X262414Y52094D01*
X266724Y47784D01*
G37*
D14*
X267391Y79022D02*
X259309Y87104D01*
X267391Y79022D02*
X270983Y82614D01*
X274108Y85739D02*
X276353Y87984D01*
X276430Y88064D01*
X276504Y88146D01*
X276575Y88231D01*
X276644Y88318D01*
X276709Y88408D01*
X276771Y88500D01*
X276830Y88594D01*
X276885Y88690D01*
X276937Y88788D01*
X276986Y88887D01*
X277031Y88988D01*
X277072Y89091D01*
X277110Y89195D01*
X277144Y89301D01*
X277175Y89407D01*
X277202Y89515D01*
X277225Y89623D01*
X277244Y89732D01*
X277259Y89842D01*
X277271Y89952D01*
X277279Y90063D01*
X277283Y90174D01*
X277283Y90284D01*
X277279Y90395D01*
X277271Y90506D01*
X277259Y90616D01*
X277244Y90726D01*
X277225Y90835D01*
X277202Y90943D01*
X277175Y91051D01*
X277144Y91157D01*
X277110Y91263D01*
X277072Y91367D01*
X277031Y91470D01*
X276986Y91571D01*
X276937Y91670D01*
X276885Y91768D01*
X276830Y91864D01*
X276771Y91958D01*
X276709Y92050D01*
X276644Y92140D01*
X276575Y92227D01*
X276504Y92312D01*
X276430Y92394D01*
X276353Y92474D01*
X276273Y92551D01*
X276191Y92625D01*
X276106Y92696D01*
X276019Y92765D01*
X275929Y92830D01*
X275837Y92892D01*
X275743Y92951D01*
X275647Y93006D01*
X275549Y93058D01*
X275450Y93107D01*
X275349Y93152D01*
X275246Y93193D01*
X275142Y93231D01*
X275036Y93265D01*
X274930Y93296D01*
X274822Y93323D01*
X274714Y93346D01*
X274605Y93365D01*
X274495Y93380D01*
X274385Y93392D01*
X274274Y93400D01*
X274163Y93404D01*
X274053Y93404D01*
X273942Y93400D01*
X273831Y93392D01*
X273721Y93380D01*
X273611Y93365D01*
X273502Y93346D01*
X273394Y93323D01*
X273286Y93296D01*
X273180Y93265D01*
X273074Y93231D01*
X272970Y93193D01*
X272867Y93152D01*
X272766Y93107D01*
X272667Y93058D01*
X272569Y93006D01*
X272473Y92950D01*
X272379Y92892D01*
X272287Y92830D01*
X272197Y92765D01*
X272110Y92696D01*
X272025Y92625D01*
X271943Y92551D01*
X271863Y92474D01*
X268720Y96515D02*
X266026Y93821D01*
X268720Y96515D02*
X268792Y96584D01*
X268866Y96650D01*
X268944Y96714D01*
X269023Y96774D01*
X269105Y96831D01*
X269189Y96885D01*
X269275Y96935D01*
X269363Y96982D01*
X269453Y97026D01*
X269544Y97066D01*
X269637Y97102D01*
X269731Y97135D01*
X269827Y97164D01*
X269923Y97189D01*
X270020Y97210D01*
X270119Y97228D01*
X270217Y97241D01*
X270317Y97251D01*
X270416Y97257D01*
X270516Y97259D01*
X270616Y97257D01*
X270715Y97251D01*
X270815Y97241D01*
X270913Y97228D01*
X271012Y97210D01*
X271109Y97189D01*
X271205Y97164D01*
X271301Y97135D01*
X271395Y97102D01*
X271488Y97066D01*
X271579Y97026D01*
X271669Y96982D01*
X271757Y96935D01*
X271843Y96885D01*
X271927Y96831D01*
X272009Y96774D01*
X272088Y96714D01*
X272166Y96650D01*
X272240Y96584D01*
X272312Y96515D01*
X272381Y96443D01*
X272447Y96369D01*
X272511Y96291D01*
X272571Y96212D01*
X272628Y96130D01*
X272682Y96046D01*
X272732Y95960D01*
X272779Y95872D01*
X272823Y95782D01*
X272863Y95691D01*
X272899Y95598D01*
X272932Y95504D01*
X272961Y95408D01*
X272986Y95312D01*
X273007Y95215D01*
X273025Y95116D01*
X273038Y95018D01*
X273048Y94918D01*
X273054Y94819D01*
X273056Y94719D01*
X273054Y94619D01*
X273048Y94520D01*
X273038Y94420D01*
X273025Y94322D01*
X273007Y94223D01*
X272986Y94126D01*
X272961Y94030D01*
X272932Y93934D01*
X272899Y93840D01*
X272863Y93747D01*
X272823Y93656D01*
X272779Y93566D01*
X272732Y93478D01*
X272682Y93392D01*
X272628Y93308D01*
X272571Y93226D01*
X272511Y93147D01*
X272447Y93069D01*
X272381Y92995D01*
X272312Y92923D01*
X270516Y91127D01*
M02*
