G04 EAGLE Gerber RS-274X export*
G75*
%MOMM*%
%FSLAX34Y34*%
%LPD*%
%INSilkscreen Bottom*%
%IPPOS*%
%AMOC8*
5,1,8,0,0,1.08239X$1,22.5*%
G01*
%ADD10C,0.152400*%


D10*
X290068Y72362D02*
X290068Y74168D01*
X281037Y74168D01*
X285552Y57912D01*
X265368Y57912D02*
X265368Y74168D01*
X260853Y74168D01*
X260720Y74166D01*
X260588Y74160D01*
X260456Y74150D01*
X260324Y74137D01*
X260192Y74119D01*
X260062Y74098D01*
X259931Y74073D01*
X259802Y74044D01*
X259674Y74011D01*
X259546Y73975D01*
X259420Y73935D01*
X259295Y73891D01*
X259171Y73843D01*
X259049Y73792D01*
X258928Y73737D01*
X258809Y73679D01*
X258691Y73617D01*
X258576Y73552D01*
X258462Y73483D01*
X258351Y73412D01*
X258242Y73336D01*
X258135Y73258D01*
X258030Y73177D01*
X257928Y73092D01*
X257828Y73005D01*
X257731Y72915D01*
X257636Y72822D01*
X257545Y72726D01*
X257456Y72628D01*
X257370Y72527D01*
X257287Y72423D01*
X257207Y72317D01*
X257131Y72209D01*
X257057Y72099D01*
X256987Y71986D01*
X256920Y71872D01*
X256857Y71755D01*
X256797Y71637D01*
X256740Y71517D01*
X256687Y71395D01*
X256638Y71272D01*
X256592Y71148D01*
X256550Y71022D01*
X256512Y70895D01*
X256477Y70767D01*
X256446Y70638D01*
X256419Y70509D01*
X256396Y70378D01*
X256376Y70247D01*
X256361Y70115D01*
X256349Y69983D01*
X256341Y69851D01*
X256337Y69718D01*
X256337Y69586D01*
X256341Y69453D01*
X256349Y69321D01*
X256361Y69189D01*
X256376Y69057D01*
X256396Y68926D01*
X256419Y68795D01*
X256446Y68666D01*
X256477Y68537D01*
X256512Y68409D01*
X256550Y68282D01*
X256592Y68156D01*
X256638Y68032D01*
X256687Y67909D01*
X256740Y67787D01*
X256797Y67667D01*
X256857Y67549D01*
X256920Y67432D01*
X256987Y67318D01*
X257057Y67205D01*
X257131Y67095D01*
X257207Y66987D01*
X257287Y66881D01*
X257370Y66777D01*
X257456Y66676D01*
X257545Y66578D01*
X257636Y66482D01*
X257731Y66389D01*
X257828Y66299D01*
X257928Y66212D01*
X258030Y66127D01*
X258135Y66046D01*
X258242Y65968D01*
X258351Y65892D01*
X258462Y65821D01*
X258576Y65752D01*
X258691Y65687D01*
X258809Y65625D01*
X258928Y65567D01*
X259049Y65512D01*
X259171Y65461D01*
X259295Y65413D01*
X259420Y65369D01*
X259546Y65329D01*
X259674Y65293D01*
X259802Y65260D01*
X259931Y65231D01*
X260062Y65206D01*
X260192Y65185D01*
X260324Y65167D01*
X260456Y65154D01*
X260588Y65144D01*
X260720Y65138D01*
X260853Y65136D01*
X260853Y65137D02*
X265368Y65137D01*
X250608Y65137D02*
X250608Y61524D01*
X250607Y65137D02*
X250605Y65256D01*
X250599Y65376D01*
X250589Y65495D01*
X250575Y65613D01*
X250558Y65732D01*
X250536Y65849D01*
X250511Y65966D01*
X250481Y66081D01*
X250448Y66196D01*
X250411Y66310D01*
X250371Y66422D01*
X250326Y66533D01*
X250278Y66642D01*
X250227Y66750D01*
X250172Y66856D01*
X250113Y66960D01*
X250051Y67062D01*
X249986Y67162D01*
X249917Y67260D01*
X249845Y67356D01*
X249770Y67449D01*
X249693Y67539D01*
X249612Y67627D01*
X249528Y67712D01*
X249441Y67794D01*
X249352Y67874D01*
X249260Y67950D01*
X249166Y68024D01*
X249069Y68094D01*
X248971Y68161D01*
X248870Y68225D01*
X248766Y68285D01*
X248661Y68342D01*
X248554Y68395D01*
X248446Y68445D01*
X248336Y68491D01*
X248224Y68533D01*
X248111Y68572D01*
X247997Y68607D01*
X247882Y68638D01*
X247765Y68666D01*
X247648Y68689D01*
X247531Y68709D01*
X247412Y68725D01*
X247293Y68737D01*
X247174Y68745D01*
X247055Y68749D01*
X246935Y68749D01*
X246816Y68745D01*
X246697Y68737D01*
X246578Y68725D01*
X246459Y68709D01*
X246342Y68689D01*
X246225Y68666D01*
X246108Y68638D01*
X245993Y68607D01*
X245879Y68572D01*
X245766Y68533D01*
X245654Y68491D01*
X245544Y68445D01*
X245436Y68395D01*
X245329Y68342D01*
X245224Y68285D01*
X245120Y68225D01*
X245019Y68161D01*
X244921Y68094D01*
X244824Y68024D01*
X244730Y67950D01*
X244638Y67874D01*
X244549Y67794D01*
X244462Y67712D01*
X244378Y67627D01*
X244297Y67539D01*
X244220Y67449D01*
X244145Y67356D01*
X244073Y67260D01*
X244004Y67162D01*
X243939Y67062D01*
X243877Y66960D01*
X243818Y66856D01*
X243763Y66750D01*
X243712Y66642D01*
X243664Y66533D01*
X243619Y66422D01*
X243579Y66310D01*
X243542Y66196D01*
X243509Y66081D01*
X243479Y65966D01*
X243454Y65849D01*
X243432Y65732D01*
X243415Y65613D01*
X243401Y65495D01*
X243391Y65376D01*
X243385Y65256D01*
X243383Y65137D01*
X243383Y61524D01*
X243385Y61405D01*
X243391Y61285D01*
X243401Y61166D01*
X243415Y61048D01*
X243432Y60929D01*
X243454Y60812D01*
X243479Y60695D01*
X243509Y60580D01*
X243542Y60465D01*
X243579Y60351D01*
X243619Y60239D01*
X243664Y60128D01*
X243712Y60019D01*
X243763Y59911D01*
X243818Y59805D01*
X243877Y59701D01*
X243939Y59599D01*
X244004Y59499D01*
X244073Y59401D01*
X244145Y59305D01*
X244220Y59212D01*
X244297Y59122D01*
X244378Y59034D01*
X244462Y58949D01*
X244549Y58867D01*
X244638Y58787D01*
X244730Y58711D01*
X244824Y58637D01*
X244921Y58567D01*
X245019Y58500D01*
X245120Y58436D01*
X245224Y58376D01*
X245329Y58319D01*
X245436Y58266D01*
X245544Y58216D01*
X245654Y58170D01*
X245766Y58128D01*
X245879Y58089D01*
X245993Y58054D01*
X246108Y58023D01*
X246225Y57995D01*
X246342Y57972D01*
X246459Y57952D01*
X246578Y57936D01*
X246697Y57924D01*
X246816Y57916D01*
X246935Y57912D01*
X247055Y57912D01*
X247174Y57916D01*
X247293Y57924D01*
X247412Y57936D01*
X247531Y57952D01*
X247648Y57972D01*
X247765Y57995D01*
X247882Y58023D01*
X247997Y58054D01*
X248111Y58089D01*
X248224Y58128D01*
X248336Y58170D01*
X248446Y58216D01*
X248554Y58266D01*
X248661Y58319D01*
X248766Y58376D01*
X248870Y58436D01*
X248971Y58500D01*
X249069Y58567D01*
X249166Y58637D01*
X249260Y58711D01*
X249352Y58787D01*
X249441Y58867D01*
X249528Y58949D01*
X249612Y59034D01*
X249693Y59122D01*
X249770Y59212D01*
X249845Y59305D01*
X249917Y59401D01*
X249986Y59499D01*
X250051Y59599D01*
X250113Y59701D01*
X250172Y59805D01*
X250227Y59911D01*
X250278Y60019D01*
X250326Y60128D01*
X250371Y60239D01*
X250411Y60351D01*
X250448Y60465D01*
X250481Y60580D01*
X250511Y60695D01*
X250536Y60812D01*
X250558Y60929D01*
X250575Y61048D01*
X250589Y61166D01*
X250599Y61285D01*
X250605Y61405D01*
X250607Y61524D01*
X236824Y60621D02*
X236824Y74168D01*
X236824Y60621D02*
X236822Y60520D01*
X236816Y60419D01*
X236807Y60318D01*
X236794Y60217D01*
X236777Y60117D01*
X236756Y60018D01*
X236732Y59920D01*
X236704Y59823D01*
X236672Y59726D01*
X236637Y59631D01*
X236598Y59538D01*
X236556Y59446D01*
X236510Y59355D01*
X236461Y59266D01*
X236409Y59180D01*
X236353Y59095D01*
X236295Y59012D01*
X236233Y58932D01*
X236168Y58854D01*
X236101Y58778D01*
X236031Y58705D01*
X235958Y58635D01*
X235882Y58568D01*
X235804Y58503D01*
X235724Y58441D01*
X235641Y58383D01*
X235556Y58327D01*
X235470Y58275D01*
X235381Y58226D01*
X235290Y58180D01*
X235198Y58138D01*
X235105Y58099D01*
X235010Y58064D01*
X234913Y58032D01*
X234816Y58004D01*
X234718Y57980D01*
X234619Y57959D01*
X234519Y57942D01*
X234418Y57929D01*
X234317Y57920D01*
X234216Y57914D01*
X234115Y57912D01*
X226015Y57912D02*
X221499Y57912D01*
X226015Y57912D02*
X226116Y57914D01*
X226217Y57920D01*
X226318Y57929D01*
X226419Y57942D01*
X226519Y57959D01*
X226618Y57980D01*
X226716Y58004D01*
X226813Y58032D01*
X226910Y58064D01*
X227005Y58099D01*
X227098Y58138D01*
X227190Y58180D01*
X227281Y58226D01*
X227370Y58275D01*
X227456Y58327D01*
X227541Y58383D01*
X227624Y58441D01*
X227704Y58503D01*
X227782Y58568D01*
X227858Y58635D01*
X227931Y58705D01*
X228001Y58778D01*
X228068Y58854D01*
X228133Y58932D01*
X228195Y59012D01*
X228253Y59095D01*
X228309Y59180D01*
X228361Y59266D01*
X228410Y59355D01*
X228456Y59446D01*
X228498Y59538D01*
X228537Y59631D01*
X228572Y59726D01*
X228604Y59823D01*
X228632Y59920D01*
X228656Y60018D01*
X228677Y60117D01*
X228694Y60217D01*
X228707Y60318D01*
X228716Y60419D01*
X228722Y60520D01*
X228724Y60621D01*
X228724Y65137D01*
X228722Y65256D01*
X228716Y65376D01*
X228706Y65495D01*
X228692Y65613D01*
X228675Y65732D01*
X228653Y65849D01*
X228628Y65966D01*
X228598Y66081D01*
X228565Y66196D01*
X228528Y66310D01*
X228488Y66422D01*
X228443Y66533D01*
X228395Y66642D01*
X228344Y66750D01*
X228289Y66856D01*
X228230Y66960D01*
X228168Y67062D01*
X228103Y67162D01*
X228034Y67260D01*
X227962Y67356D01*
X227887Y67449D01*
X227810Y67539D01*
X227729Y67627D01*
X227645Y67712D01*
X227558Y67794D01*
X227469Y67874D01*
X227377Y67950D01*
X227283Y68024D01*
X227186Y68094D01*
X227088Y68161D01*
X226987Y68225D01*
X226883Y68285D01*
X226778Y68342D01*
X226671Y68395D01*
X226563Y68445D01*
X226453Y68491D01*
X226341Y68533D01*
X226228Y68572D01*
X226114Y68607D01*
X225999Y68638D01*
X225882Y68666D01*
X225765Y68689D01*
X225648Y68709D01*
X225529Y68725D01*
X225410Y68737D01*
X225291Y68745D01*
X225172Y68749D01*
X225052Y68749D01*
X224933Y68745D01*
X224814Y68737D01*
X224695Y68725D01*
X224576Y68709D01*
X224459Y68689D01*
X224342Y68666D01*
X224225Y68638D01*
X224110Y68607D01*
X223996Y68572D01*
X223883Y68533D01*
X223771Y68491D01*
X223661Y68445D01*
X223553Y68395D01*
X223446Y68342D01*
X223341Y68285D01*
X223237Y68225D01*
X223136Y68161D01*
X223038Y68094D01*
X222941Y68024D01*
X222847Y67950D01*
X222755Y67874D01*
X222666Y67794D01*
X222579Y67712D01*
X222495Y67627D01*
X222414Y67539D01*
X222337Y67449D01*
X222262Y67356D01*
X222190Y67260D01*
X222121Y67162D01*
X222056Y67062D01*
X221994Y66960D01*
X221935Y66856D01*
X221880Y66750D01*
X221829Y66642D01*
X221781Y66533D01*
X221736Y66422D01*
X221696Y66310D01*
X221659Y66196D01*
X221626Y66081D01*
X221596Y65966D01*
X221571Y65849D01*
X221549Y65732D01*
X221532Y65613D01*
X221518Y65495D01*
X221508Y65376D01*
X221502Y65256D01*
X221500Y65137D01*
X221499Y65137D02*
X221499Y63331D01*
X228724Y63331D01*
X206151Y57912D02*
X206151Y74168D01*
X206151Y57912D02*
X198926Y57912D01*
X192422Y57912D02*
X192422Y74168D01*
X187907Y74168D01*
X187774Y74166D01*
X187642Y74160D01*
X187510Y74150D01*
X187378Y74137D01*
X187246Y74119D01*
X187116Y74098D01*
X186985Y74073D01*
X186856Y74044D01*
X186728Y74011D01*
X186600Y73975D01*
X186474Y73935D01*
X186349Y73891D01*
X186225Y73843D01*
X186103Y73792D01*
X185982Y73737D01*
X185863Y73679D01*
X185745Y73617D01*
X185630Y73552D01*
X185516Y73483D01*
X185405Y73412D01*
X185296Y73336D01*
X185189Y73258D01*
X185084Y73177D01*
X184982Y73092D01*
X184882Y73005D01*
X184785Y72915D01*
X184690Y72822D01*
X184599Y72726D01*
X184510Y72628D01*
X184424Y72527D01*
X184341Y72423D01*
X184261Y72317D01*
X184185Y72209D01*
X184111Y72099D01*
X184041Y71986D01*
X183974Y71872D01*
X183911Y71755D01*
X183851Y71637D01*
X183794Y71517D01*
X183741Y71395D01*
X183692Y71272D01*
X183646Y71148D01*
X183604Y71022D01*
X183566Y70895D01*
X183531Y70767D01*
X183500Y70638D01*
X183473Y70509D01*
X183450Y70378D01*
X183430Y70247D01*
X183415Y70115D01*
X183403Y69983D01*
X183395Y69851D01*
X183391Y69718D01*
X183391Y69586D01*
X183395Y69453D01*
X183403Y69321D01*
X183415Y69189D01*
X183430Y69057D01*
X183450Y68926D01*
X183473Y68795D01*
X183500Y68666D01*
X183531Y68537D01*
X183566Y68409D01*
X183604Y68282D01*
X183646Y68156D01*
X183692Y68032D01*
X183741Y67909D01*
X183794Y67787D01*
X183851Y67667D01*
X183911Y67549D01*
X183974Y67432D01*
X184041Y67318D01*
X184111Y67205D01*
X184185Y67095D01*
X184261Y66987D01*
X184341Y66881D01*
X184424Y66777D01*
X184510Y66676D01*
X184599Y66578D01*
X184690Y66482D01*
X184785Y66389D01*
X184882Y66299D01*
X184982Y66212D01*
X185084Y66127D01*
X185189Y66046D01*
X185296Y65968D01*
X185405Y65892D01*
X185516Y65821D01*
X185630Y65752D01*
X185745Y65687D01*
X185863Y65625D01*
X185982Y65567D01*
X186103Y65512D01*
X186225Y65461D01*
X186349Y65413D01*
X186474Y65369D01*
X186600Y65329D01*
X186728Y65293D01*
X186856Y65260D01*
X186985Y65231D01*
X187116Y65206D01*
X187246Y65185D01*
X187378Y65167D01*
X187510Y65154D01*
X187642Y65144D01*
X187774Y65138D01*
X187907Y65136D01*
X187907Y65137D02*
X192422Y65137D01*
X176972Y57912D02*
X176972Y74168D01*
X169747Y74168D01*
X169747Y66943D02*
X176972Y66943D01*
X154907Y66943D02*
X150392Y66943D01*
X150392Y66944D02*
X150259Y66942D01*
X150127Y66936D01*
X149995Y66926D01*
X149863Y66913D01*
X149731Y66895D01*
X149601Y66874D01*
X149470Y66849D01*
X149341Y66820D01*
X149213Y66787D01*
X149085Y66751D01*
X148959Y66711D01*
X148834Y66667D01*
X148710Y66619D01*
X148588Y66568D01*
X148467Y66513D01*
X148348Y66455D01*
X148230Y66393D01*
X148115Y66328D01*
X148001Y66259D01*
X147890Y66188D01*
X147781Y66112D01*
X147674Y66034D01*
X147569Y65953D01*
X147467Y65868D01*
X147367Y65781D01*
X147270Y65691D01*
X147175Y65598D01*
X147084Y65502D01*
X146995Y65404D01*
X146909Y65303D01*
X146826Y65199D01*
X146746Y65093D01*
X146670Y64985D01*
X146596Y64875D01*
X146526Y64762D01*
X146459Y64648D01*
X146396Y64531D01*
X146336Y64413D01*
X146279Y64293D01*
X146226Y64171D01*
X146177Y64048D01*
X146131Y63924D01*
X146089Y63798D01*
X146051Y63671D01*
X146016Y63543D01*
X145985Y63414D01*
X145958Y63285D01*
X145935Y63154D01*
X145915Y63023D01*
X145900Y62891D01*
X145888Y62759D01*
X145880Y62627D01*
X145876Y62494D01*
X145876Y62362D01*
X145880Y62229D01*
X145888Y62097D01*
X145900Y61965D01*
X145915Y61833D01*
X145935Y61702D01*
X145958Y61571D01*
X145985Y61442D01*
X146016Y61313D01*
X146051Y61185D01*
X146089Y61058D01*
X146131Y60932D01*
X146177Y60808D01*
X146226Y60685D01*
X146279Y60563D01*
X146336Y60443D01*
X146396Y60325D01*
X146459Y60208D01*
X146526Y60094D01*
X146596Y59981D01*
X146670Y59871D01*
X146746Y59763D01*
X146826Y59657D01*
X146909Y59553D01*
X146995Y59452D01*
X147084Y59354D01*
X147175Y59258D01*
X147270Y59165D01*
X147367Y59075D01*
X147467Y58988D01*
X147569Y58903D01*
X147674Y58822D01*
X147781Y58744D01*
X147890Y58668D01*
X148001Y58597D01*
X148115Y58528D01*
X148230Y58463D01*
X148348Y58401D01*
X148467Y58343D01*
X148588Y58288D01*
X148710Y58237D01*
X148834Y58189D01*
X148959Y58145D01*
X149085Y58105D01*
X149213Y58069D01*
X149341Y58036D01*
X149470Y58007D01*
X149601Y57982D01*
X149731Y57961D01*
X149863Y57943D01*
X149995Y57930D01*
X150127Y57920D01*
X150259Y57914D01*
X150392Y57912D01*
X154907Y57912D01*
X154907Y74168D01*
X150392Y74168D01*
X150273Y74166D01*
X150153Y74160D01*
X150034Y74150D01*
X149916Y74136D01*
X149797Y74119D01*
X149680Y74097D01*
X149563Y74072D01*
X149448Y74042D01*
X149333Y74009D01*
X149219Y73972D01*
X149107Y73932D01*
X148996Y73887D01*
X148887Y73839D01*
X148779Y73788D01*
X148673Y73733D01*
X148569Y73674D01*
X148467Y73612D01*
X148367Y73547D01*
X148269Y73478D01*
X148173Y73406D01*
X148080Y73331D01*
X147990Y73254D01*
X147902Y73173D01*
X147817Y73089D01*
X147735Y73002D01*
X147655Y72913D01*
X147579Y72821D01*
X147505Y72727D01*
X147435Y72630D01*
X147368Y72532D01*
X147304Y72431D01*
X147244Y72327D01*
X147187Y72222D01*
X147134Y72115D01*
X147084Y72007D01*
X147038Y71897D01*
X146996Y71785D01*
X146957Y71672D01*
X146922Y71558D01*
X146891Y71443D01*
X146863Y71326D01*
X146840Y71209D01*
X146820Y71092D01*
X146804Y70973D01*
X146792Y70854D01*
X146784Y70735D01*
X146780Y70616D01*
X146780Y70496D01*
X146784Y70377D01*
X146792Y70258D01*
X146804Y70139D01*
X146820Y70020D01*
X146840Y69903D01*
X146863Y69786D01*
X146891Y69669D01*
X146922Y69554D01*
X146957Y69440D01*
X146996Y69327D01*
X147038Y69215D01*
X147084Y69105D01*
X147134Y68997D01*
X147187Y68890D01*
X147244Y68785D01*
X147304Y68681D01*
X147368Y68580D01*
X147435Y68482D01*
X147505Y68385D01*
X147579Y68291D01*
X147655Y68199D01*
X147735Y68110D01*
X147817Y68023D01*
X147902Y67939D01*
X147990Y67858D01*
X148080Y67781D01*
X148173Y67706D01*
X148269Y67634D01*
X148367Y67565D01*
X148467Y67500D01*
X148569Y67438D01*
X148673Y67379D01*
X148779Y67324D01*
X148887Y67273D01*
X148996Y67225D01*
X149107Y67180D01*
X149219Y67140D01*
X149333Y67103D01*
X149448Y67070D01*
X149563Y67040D01*
X149680Y67015D01*
X149797Y66993D01*
X149916Y66976D01*
X150034Y66962D01*
X150153Y66952D01*
X150273Y66946D01*
X150392Y66944D01*
X140147Y65137D02*
X140147Y61524D01*
X140147Y65137D02*
X140145Y65256D01*
X140139Y65376D01*
X140129Y65495D01*
X140115Y65613D01*
X140098Y65732D01*
X140076Y65849D01*
X140051Y65966D01*
X140021Y66081D01*
X139988Y66196D01*
X139951Y66310D01*
X139911Y66422D01*
X139866Y66533D01*
X139818Y66642D01*
X139767Y66750D01*
X139712Y66856D01*
X139653Y66960D01*
X139591Y67062D01*
X139526Y67162D01*
X139457Y67260D01*
X139385Y67356D01*
X139310Y67449D01*
X139233Y67539D01*
X139152Y67627D01*
X139068Y67712D01*
X138981Y67794D01*
X138892Y67874D01*
X138800Y67950D01*
X138706Y68024D01*
X138609Y68094D01*
X138511Y68161D01*
X138410Y68225D01*
X138306Y68285D01*
X138201Y68342D01*
X138094Y68395D01*
X137986Y68445D01*
X137876Y68491D01*
X137764Y68533D01*
X137651Y68572D01*
X137537Y68607D01*
X137422Y68638D01*
X137305Y68666D01*
X137188Y68689D01*
X137071Y68709D01*
X136952Y68725D01*
X136833Y68737D01*
X136714Y68745D01*
X136595Y68749D01*
X136475Y68749D01*
X136356Y68745D01*
X136237Y68737D01*
X136118Y68725D01*
X135999Y68709D01*
X135882Y68689D01*
X135765Y68666D01*
X135648Y68638D01*
X135533Y68607D01*
X135419Y68572D01*
X135306Y68533D01*
X135194Y68491D01*
X135084Y68445D01*
X134976Y68395D01*
X134869Y68342D01*
X134764Y68285D01*
X134660Y68225D01*
X134559Y68161D01*
X134461Y68094D01*
X134364Y68024D01*
X134270Y67950D01*
X134178Y67874D01*
X134089Y67794D01*
X134002Y67712D01*
X133918Y67627D01*
X133837Y67539D01*
X133760Y67449D01*
X133685Y67356D01*
X133613Y67260D01*
X133544Y67162D01*
X133479Y67062D01*
X133417Y66960D01*
X133358Y66856D01*
X133303Y66750D01*
X133252Y66642D01*
X133204Y66533D01*
X133159Y66422D01*
X133119Y66310D01*
X133082Y66196D01*
X133049Y66081D01*
X133019Y65966D01*
X132994Y65849D01*
X132972Y65732D01*
X132955Y65613D01*
X132941Y65495D01*
X132931Y65376D01*
X132925Y65256D01*
X132923Y65137D01*
X132922Y65137D02*
X132922Y61524D01*
X132923Y61524D02*
X132925Y61405D01*
X132931Y61285D01*
X132941Y61166D01*
X132955Y61048D01*
X132972Y60929D01*
X132994Y60812D01*
X133019Y60695D01*
X133049Y60580D01*
X133082Y60465D01*
X133119Y60351D01*
X133159Y60239D01*
X133204Y60128D01*
X133252Y60019D01*
X133303Y59911D01*
X133358Y59805D01*
X133417Y59701D01*
X133479Y59599D01*
X133544Y59499D01*
X133613Y59401D01*
X133685Y59305D01*
X133760Y59212D01*
X133837Y59122D01*
X133918Y59034D01*
X134002Y58949D01*
X134089Y58867D01*
X134178Y58787D01*
X134270Y58711D01*
X134364Y58637D01*
X134461Y58567D01*
X134559Y58500D01*
X134660Y58436D01*
X134764Y58376D01*
X134869Y58319D01*
X134976Y58266D01*
X135084Y58216D01*
X135194Y58170D01*
X135306Y58128D01*
X135419Y58089D01*
X135533Y58054D01*
X135648Y58023D01*
X135765Y57995D01*
X135882Y57972D01*
X135999Y57952D01*
X136118Y57936D01*
X136237Y57924D01*
X136356Y57916D01*
X136475Y57912D01*
X136595Y57912D01*
X136714Y57916D01*
X136833Y57924D01*
X136952Y57936D01*
X137071Y57952D01*
X137188Y57972D01*
X137305Y57995D01*
X137422Y58023D01*
X137537Y58054D01*
X137651Y58089D01*
X137764Y58128D01*
X137876Y58170D01*
X137986Y58216D01*
X138094Y58266D01*
X138201Y58319D01*
X138306Y58376D01*
X138410Y58436D01*
X138511Y58500D01*
X138609Y58567D01*
X138706Y58637D01*
X138800Y58711D01*
X138892Y58787D01*
X138981Y58867D01*
X139068Y58949D01*
X139152Y59034D01*
X139233Y59122D01*
X139310Y59212D01*
X139385Y59305D01*
X139457Y59401D01*
X139526Y59499D01*
X139591Y59599D01*
X139653Y59701D01*
X139712Y59805D01*
X139767Y59911D01*
X139818Y60019D01*
X139866Y60128D01*
X139911Y60239D01*
X139951Y60351D01*
X139988Y60465D01*
X140021Y60580D01*
X140051Y60695D01*
X140076Y60812D01*
X140098Y60929D01*
X140115Y61048D01*
X140129Y61166D01*
X140139Y61285D01*
X140145Y61405D01*
X140147Y61524D01*
X123513Y64234D02*
X119449Y64234D01*
X123513Y64234D02*
X123625Y64232D01*
X123736Y64226D01*
X123847Y64216D01*
X123958Y64203D01*
X124068Y64185D01*
X124177Y64163D01*
X124286Y64138D01*
X124394Y64109D01*
X124500Y64076D01*
X124606Y64039D01*
X124710Y63999D01*
X124812Y63955D01*
X124913Y63907D01*
X125012Y63856D01*
X125110Y63801D01*
X125205Y63743D01*
X125298Y63682D01*
X125389Y63617D01*
X125478Y63549D01*
X125564Y63478D01*
X125647Y63405D01*
X125728Y63328D01*
X125807Y63248D01*
X125882Y63166D01*
X125954Y63081D01*
X126024Y62994D01*
X126090Y62904D01*
X126153Y62812D01*
X126213Y62717D01*
X126269Y62621D01*
X126322Y62523D01*
X126371Y62423D01*
X126417Y62321D01*
X126459Y62218D01*
X126498Y62113D01*
X126533Y62007D01*
X126564Y61900D01*
X126591Y61792D01*
X126615Y61683D01*
X126634Y61573D01*
X126650Y61463D01*
X126662Y61352D01*
X126670Y61240D01*
X126674Y61129D01*
X126674Y61017D01*
X126670Y60906D01*
X126662Y60794D01*
X126650Y60683D01*
X126634Y60573D01*
X126615Y60463D01*
X126591Y60354D01*
X126564Y60246D01*
X126533Y60139D01*
X126498Y60033D01*
X126459Y59928D01*
X126417Y59825D01*
X126371Y59723D01*
X126322Y59623D01*
X126269Y59525D01*
X126213Y59429D01*
X126153Y59334D01*
X126090Y59242D01*
X126024Y59152D01*
X125954Y59065D01*
X125882Y58980D01*
X125807Y58898D01*
X125728Y58818D01*
X125647Y58741D01*
X125564Y58668D01*
X125478Y58597D01*
X125389Y58529D01*
X125298Y58464D01*
X125205Y58403D01*
X125110Y58345D01*
X125012Y58290D01*
X124913Y58239D01*
X124812Y58191D01*
X124710Y58147D01*
X124606Y58107D01*
X124500Y58070D01*
X124394Y58037D01*
X124286Y58008D01*
X124177Y57983D01*
X124068Y57961D01*
X123958Y57943D01*
X123847Y57930D01*
X123736Y57920D01*
X123625Y57914D01*
X123513Y57912D01*
X119449Y57912D01*
X119449Y66040D01*
X119451Y66141D01*
X119457Y66242D01*
X119466Y66343D01*
X119479Y66444D01*
X119496Y66544D01*
X119517Y66643D01*
X119541Y66741D01*
X119569Y66838D01*
X119601Y66935D01*
X119636Y67030D01*
X119675Y67123D01*
X119717Y67215D01*
X119763Y67306D01*
X119812Y67395D01*
X119864Y67481D01*
X119920Y67566D01*
X119978Y67649D01*
X120040Y67729D01*
X120105Y67807D01*
X120172Y67883D01*
X120242Y67956D01*
X120315Y68026D01*
X120391Y68093D01*
X120469Y68158D01*
X120549Y68220D01*
X120632Y68278D01*
X120717Y68334D01*
X120804Y68386D01*
X120892Y68435D01*
X120983Y68481D01*
X121075Y68523D01*
X121168Y68562D01*
X121263Y68597D01*
X121360Y68629D01*
X121457Y68657D01*
X121555Y68681D01*
X121654Y68702D01*
X121754Y68719D01*
X121855Y68732D01*
X121956Y68741D01*
X122057Y68747D01*
X122158Y68749D01*
X125770Y68749D01*
X111926Y68749D02*
X111926Y57912D01*
X111926Y68749D02*
X106508Y68749D01*
X106508Y66943D01*
X94439Y74168D02*
X94439Y57912D01*
X98954Y57912D01*
X99055Y57914D01*
X99156Y57920D01*
X99257Y57929D01*
X99358Y57942D01*
X99458Y57959D01*
X99557Y57980D01*
X99655Y58004D01*
X99752Y58032D01*
X99849Y58064D01*
X99944Y58099D01*
X100037Y58138D01*
X100129Y58180D01*
X100220Y58226D01*
X100308Y58275D01*
X100395Y58327D01*
X100480Y58383D01*
X100563Y58441D01*
X100643Y58503D01*
X100721Y58568D01*
X100797Y58635D01*
X100870Y58705D01*
X100940Y58778D01*
X101007Y58854D01*
X101072Y58932D01*
X101134Y59012D01*
X101192Y59095D01*
X101248Y59180D01*
X101300Y59266D01*
X101349Y59355D01*
X101395Y59446D01*
X101437Y59538D01*
X101476Y59631D01*
X101511Y59726D01*
X101543Y59823D01*
X101571Y59920D01*
X101595Y60018D01*
X101616Y60117D01*
X101633Y60217D01*
X101646Y60318D01*
X101655Y60419D01*
X101661Y60520D01*
X101663Y60621D01*
X101664Y60621D02*
X101664Y66040D01*
X101663Y66040D02*
X101661Y66141D01*
X101655Y66242D01*
X101646Y66343D01*
X101633Y66444D01*
X101616Y66544D01*
X101595Y66643D01*
X101571Y66741D01*
X101543Y66838D01*
X101511Y66935D01*
X101476Y67030D01*
X101437Y67123D01*
X101395Y67215D01*
X101349Y67306D01*
X101300Y67395D01*
X101248Y67481D01*
X101192Y67566D01*
X101134Y67649D01*
X101072Y67729D01*
X101007Y67807D01*
X100940Y67883D01*
X100870Y67956D01*
X100797Y68026D01*
X100721Y68093D01*
X100643Y68158D01*
X100563Y68220D01*
X100480Y68278D01*
X100395Y68334D01*
X100309Y68386D01*
X100220Y68435D01*
X100129Y68481D01*
X100037Y68523D01*
X99944Y68562D01*
X99849Y68597D01*
X99752Y68629D01*
X99655Y68657D01*
X99557Y68681D01*
X99458Y68702D01*
X99358Y68719D01*
X99257Y68732D01*
X99156Y68741D01*
X99055Y68747D01*
X98954Y68749D01*
X94439Y68749D01*
M02*
