G04 EAGLE Gerber RS-274X export*
G75*
%MOMM*%
%FSLAX34Y34*%
%LPD*%
%INTop Copper*%
%IPPOS*%
%AMOC8*
5,1,8,0,0,1.08239X$1,22.5*%
G01*
%ADD10C,1.879600*%
%ADD11P,1.429621X8X292.500000*%
%ADD12P,1.429621X8X112.500000*%
%ADD13P,1.429621X8X202.500000*%
%ADD14P,1.429621X8X22.500000*%
%ADD15P,1.429621X8X67.500000*%
%ADD16P,1.429621X8X337.500000*%
%ADD17C,1.016000*%


D10*
X25400Y25400D03*
X25400Y50800D03*
X25400Y76200D03*
X25400Y101600D03*
X355600Y25400D03*
X355600Y50800D03*
X355600Y76200D03*
X355600Y101600D03*
D11*
X50800Y109220D03*
X50800Y83820D03*
D12*
X50800Y38100D03*
X50800Y63500D03*
D13*
X254000Y109220D03*
X228600Y109220D03*
D14*
X181610Y109220D03*
X207010Y109220D03*
D13*
X210820Y17780D03*
X185420Y17780D03*
D14*
X138430Y17780D03*
X163830Y17780D03*
D11*
X330200Y88900D03*
X330200Y63500D03*
D12*
X330200Y17780D03*
X330200Y43180D03*
D15*
X68219Y21229D03*
X140061Y93071D03*
D16*
X160929Y99421D03*
X232771Y27579D03*
D15*
X251099Y36469D03*
X322941Y108311D03*
D17*
X146411Y99421D02*
X140061Y93071D01*
X146411Y99421D02*
X160929Y99421D01*
X170728Y109220D01*
X181610Y109220D01*
X181610Y97790D01*
X190500Y88900D01*
X241300Y88900D01*
X254000Y101600D01*
X254000Y109220D01*
X232771Y27579D02*
X222972Y17780D01*
X210820Y17780D01*
X232771Y27579D02*
X241661Y36469D01*
X251099Y36469D01*
X210820Y30480D02*
X210820Y17780D01*
X210820Y30480D02*
X203200Y38100D01*
X152400Y38100D01*
X138430Y24130D01*
X138430Y17780D01*
X322941Y108311D02*
X330200Y101052D01*
X330200Y88900D01*
X342900Y101600D01*
X355600Y101600D01*
X355600Y76200D01*
X330200Y88900D02*
X317500Y88900D01*
X304800Y76200D01*
X304800Y25400D01*
X312420Y17780D01*
X330200Y17780D01*
X33020Y109220D02*
X25400Y101600D01*
X33020Y109220D02*
X50800Y109220D01*
X25400Y101600D02*
X25400Y76200D01*
X50800Y109220D02*
X68580Y109220D01*
X76200Y101600D01*
X76200Y50800D01*
X63500Y38100D01*
X50800Y38100D01*
X67671Y21229D01*
X68219Y21229D01*
M02*
