G04 EAGLE Gerber RS-274X export*
G75*
%MOMM*%
%FSLAX34Y34*%
%LPD*%
%INBottom Copper*%
%IPPOS*%
%AMOC8*
5,1,8,0,0,1.08239X$1,22.5*%
G01*
%ADD10C,1.879600*%
%ADD11P,1.429621X8X292.500000*%
%ADD12P,1.429621X8X112.500000*%
%ADD13P,1.429621X8X202.500000*%
%ADD14P,1.429621X8X22.500000*%
%ADD15P,1.429621X8X67.500000*%
%ADD16P,1.429621X8X337.500000*%

G36*
X375178Y5084D02*
X375178Y5084D01*
X375197Y5082D01*
X375299Y5104D01*
X375401Y5120D01*
X375418Y5130D01*
X375438Y5134D01*
X375527Y5187D01*
X375618Y5236D01*
X375632Y5250D01*
X375649Y5260D01*
X375716Y5339D01*
X375788Y5414D01*
X375796Y5432D01*
X375809Y5447D01*
X375848Y5543D01*
X375891Y5637D01*
X375893Y5657D01*
X375901Y5675D01*
X375919Y5842D01*
X375919Y121158D01*
X375916Y121178D01*
X375918Y121197D01*
X375896Y121299D01*
X375880Y121401D01*
X375870Y121418D01*
X375866Y121438D01*
X375813Y121527D01*
X375764Y121618D01*
X375750Y121632D01*
X375740Y121649D01*
X375661Y121716D01*
X375586Y121788D01*
X375568Y121796D01*
X375553Y121809D01*
X375457Y121848D01*
X375363Y121891D01*
X375343Y121893D01*
X375325Y121901D01*
X375158Y121919D01*
X5842Y121919D01*
X5822Y121916D01*
X5803Y121918D01*
X5701Y121896D01*
X5599Y121880D01*
X5582Y121870D01*
X5562Y121866D01*
X5473Y121813D01*
X5382Y121764D01*
X5368Y121750D01*
X5351Y121740D01*
X5284Y121661D01*
X5212Y121586D01*
X5204Y121568D01*
X5191Y121553D01*
X5152Y121457D01*
X5109Y121363D01*
X5107Y121343D01*
X5099Y121325D01*
X5081Y121158D01*
X5081Y5842D01*
X5084Y5822D01*
X5082Y5803D01*
X5104Y5701D01*
X5120Y5599D01*
X5130Y5582D01*
X5134Y5562D01*
X5187Y5473D01*
X5236Y5382D01*
X5250Y5368D01*
X5260Y5351D01*
X5339Y5284D01*
X5414Y5212D01*
X5432Y5204D01*
X5447Y5191D01*
X5543Y5152D01*
X5637Y5109D01*
X5657Y5107D01*
X5675Y5099D01*
X5842Y5081D01*
X375158Y5081D01*
X375178Y5084D01*
G37*
%LPC*%
G36*
X23227Y65277D02*
X23227Y65277D01*
X19213Y66940D01*
X16140Y70013D01*
X14477Y74027D01*
X14477Y78373D01*
X16140Y82387D01*
X19213Y85460D01*
X23227Y87123D01*
X27573Y87123D01*
X31587Y85460D01*
X34660Y82387D01*
X36323Y78373D01*
X36323Y74027D01*
X34660Y70013D01*
X31587Y66940D01*
X27573Y65277D01*
X23227Y65277D01*
G37*
%LPD*%
%LPC*%
G36*
X353427Y65277D02*
X353427Y65277D01*
X349413Y66940D01*
X346340Y70013D01*
X344677Y74027D01*
X344677Y78373D01*
X346340Y82387D01*
X349413Y85460D01*
X353427Y87123D01*
X357773Y87123D01*
X361787Y85460D01*
X364860Y82387D01*
X366523Y78373D01*
X366523Y74027D01*
X364860Y70013D01*
X361787Y66940D01*
X357773Y65277D01*
X353427Y65277D01*
G37*
%LPD*%
%LPC*%
G36*
X23227Y90677D02*
X23227Y90677D01*
X19213Y92340D01*
X16140Y95413D01*
X14477Y99427D01*
X14477Y103773D01*
X16140Y107787D01*
X19213Y110860D01*
X23227Y112523D01*
X27573Y112523D01*
X31587Y110860D01*
X34660Y107787D01*
X36323Y103773D01*
X36323Y99427D01*
X34660Y95413D01*
X31587Y92340D01*
X27573Y90677D01*
X23227Y90677D01*
G37*
%LPD*%
%LPC*%
G36*
X353427Y90677D02*
X353427Y90677D01*
X349413Y92340D01*
X346340Y95413D01*
X344677Y99427D01*
X344677Y103773D01*
X346340Y107787D01*
X349413Y110860D01*
X353427Y112523D01*
X357773Y112523D01*
X361787Y110860D01*
X364860Y107787D01*
X366523Y103773D01*
X366523Y99427D01*
X364860Y95413D01*
X361787Y92340D01*
X357773Y90677D01*
X353427Y90677D01*
G37*
%LPD*%
%LPC*%
G36*
X250633Y101091D02*
X250633Y101091D01*
X245871Y105853D01*
X245871Y112587D01*
X250633Y117349D01*
X257367Y117349D01*
X262129Y112587D01*
X262129Y105853D01*
X257367Y101091D01*
X250633Y101091D01*
G37*
%LPD*%
%LPC*%
G36*
X178243Y101091D02*
X178243Y101091D01*
X173481Y105853D01*
X173481Y112587D01*
X178243Y117349D01*
X184977Y117349D01*
X189739Y112587D01*
X189739Y105853D01*
X184977Y101091D01*
X178243Y101091D01*
G37*
%LPD*%
%LPC*%
G36*
X47433Y101091D02*
X47433Y101091D01*
X42671Y105853D01*
X42671Y112587D01*
X47433Y117349D01*
X54167Y117349D01*
X58929Y112587D01*
X58929Y105853D01*
X54167Y101091D01*
X47433Y101091D01*
G37*
%LPD*%
%LPC*%
G36*
X326833Y9651D02*
X326833Y9651D01*
X322071Y14413D01*
X322071Y21147D01*
X326833Y25909D01*
X333567Y25909D01*
X338329Y21147D01*
X338329Y14413D01*
X333567Y9651D01*
X326833Y9651D01*
G37*
%LPD*%
%LPC*%
G36*
X326833Y80771D02*
X326833Y80771D01*
X322071Y85533D01*
X322071Y92267D01*
X326833Y97029D01*
X333567Y97029D01*
X338329Y92267D01*
X338329Y85533D01*
X333567Y80771D01*
X326833Y80771D01*
G37*
%LPD*%
%LPC*%
G36*
X207453Y9651D02*
X207453Y9651D01*
X202691Y14413D01*
X202691Y21147D01*
X207453Y25909D01*
X214187Y25909D01*
X218949Y21147D01*
X218949Y14413D01*
X214187Y9651D01*
X207453Y9651D01*
G37*
%LPD*%
%LPC*%
G36*
X135063Y9651D02*
X135063Y9651D01*
X130301Y14413D01*
X130301Y21147D01*
X135063Y25909D01*
X141797Y25909D01*
X146559Y21147D01*
X146559Y14413D01*
X141797Y9651D01*
X135063Y9651D01*
G37*
%LPD*%
%LPC*%
G36*
X47433Y29971D02*
X47433Y29971D01*
X42671Y34733D01*
X42671Y41467D01*
X47433Y46229D01*
X54167Y46229D01*
X58929Y41467D01*
X58929Y34733D01*
X54167Y29971D01*
X47433Y29971D01*
G37*
%LPD*%
%LPC*%
G36*
X136694Y84942D02*
X136694Y84942D01*
X131932Y89704D01*
X131932Y96438D01*
X136694Y101200D01*
X143428Y101200D01*
X148190Y96438D01*
X148190Y89704D01*
X143428Y84942D01*
X136694Y84942D01*
G37*
%LPD*%
%LPC*%
G36*
X319574Y100182D02*
X319574Y100182D01*
X314812Y104944D01*
X314812Y111678D01*
X319574Y116440D01*
X326308Y116440D01*
X331070Y111678D01*
X331070Y104944D01*
X326308Y100182D01*
X319574Y100182D01*
G37*
%LPD*%
%LPC*%
G36*
X64852Y13100D02*
X64852Y13100D01*
X60090Y17862D01*
X60090Y24596D01*
X64852Y29358D01*
X71586Y29358D01*
X76348Y24596D01*
X76348Y17862D01*
X71586Y13100D01*
X64852Y13100D01*
G37*
%LPD*%
%LPC*%
G36*
X247732Y28340D02*
X247732Y28340D01*
X242970Y33102D01*
X242970Y39836D01*
X247732Y44598D01*
X254466Y44598D01*
X259228Y39836D01*
X259228Y33102D01*
X254466Y28340D01*
X247732Y28340D01*
G37*
%LPD*%
%LPC*%
G36*
X157562Y91292D02*
X157562Y91292D01*
X152800Y96054D01*
X152800Y102788D01*
X157562Y107550D01*
X164296Y107550D01*
X169058Y102788D01*
X169058Y96054D01*
X164296Y91292D01*
X157562Y91292D01*
G37*
%LPD*%
%LPC*%
G36*
X229404Y19450D02*
X229404Y19450D01*
X224642Y24212D01*
X224642Y30946D01*
X229404Y35708D01*
X236138Y35708D01*
X240900Y30946D01*
X240900Y24212D01*
X236138Y19450D01*
X229404Y19450D01*
G37*
%LPD*%
%LPC*%
G36*
X26923Y26923D02*
X26923Y26923D01*
X26923Y37246D01*
X28196Y37045D01*
X29983Y36464D01*
X31657Y35611D01*
X33178Y34506D01*
X34506Y33178D01*
X35611Y31657D01*
X36464Y29983D01*
X37045Y28196D01*
X37246Y26923D01*
X26923Y26923D01*
G37*
%LPD*%
%LPC*%
G36*
X357123Y26923D02*
X357123Y26923D01*
X357123Y37246D01*
X358396Y37045D01*
X360183Y36464D01*
X361857Y35611D01*
X363378Y34506D01*
X364706Y33178D01*
X365811Y31657D01*
X366664Y29983D01*
X367245Y28196D01*
X367446Y26923D01*
X357123Y26923D01*
G37*
%LPD*%
%LPC*%
G36*
X357123Y52323D02*
X357123Y52323D01*
X357123Y62646D01*
X358396Y62445D01*
X360183Y61864D01*
X361857Y61011D01*
X363378Y59906D01*
X364706Y58578D01*
X365811Y57057D01*
X366664Y55383D01*
X367245Y53596D01*
X367446Y52323D01*
X357123Y52323D01*
G37*
%LPD*%
%LPC*%
G36*
X26923Y52323D02*
X26923Y52323D01*
X26923Y62646D01*
X28196Y62445D01*
X29983Y61864D01*
X31657Y61011D01*
X33178Y59906D01*
X34506Y58578D01*
X35611Y57057D01*
X36464Y55383D01*
X37045Y53596D01*
X37246Y52323D01*
X26923Y52323D01*
G37*
%LPD*%
%LPC*%
G36*
X26923Y49277D02*
X26923Y49277D01*
X37246Y49277D01*
X37045Y48004D01*
X36464Y46217D01*
X35611Y44543D01*
X34506Y43022D01*
X33178Y41694D01*
X31657Y40589D01*
X29983Y39736D01*
X28196Y39155D01*
X26923Y38954D01*
X26923Y49277D01*
G37*
%LPD*%
%LPC*%
G36*
X13554Y52323D02*
X13554Y52323D01*
X13755Y53596D01*
X14336Y55383D01*
X15189Y57057D01*
X16294Y58578D01*
X17622Y59906D01*
X19143Y61011D01*
X20817Y61864D01*
X22604Y62445D01*
X23877Y62646D01*
X23877Y52323D01*
X13554Y52323D01*
G37*
%LPD*%
%LPC*%
G36*
X357123Y49277D02*
X357123Y49277D01*
X367446Y49277D01*
X367245Y48004D01*
X366664Y46217D01*
X365811Y44543D01*
X364706Y43022D01*
X363378Y41694D01*
X361857Y40589D01*
X360183Y39736D01*
X358396Y39155D01*
X357123Y38954D01*
X357123Y49277D01*
G37*
%LPD*%
%LPC*%
G36*
X13554Y26923D02*
X13554Y26923D01*
X13755Y28196D01*
X14336Y29983D01*
X15189Y31657D01*
X16294Y33178D01*
X17622Y34506D01*
X19143Y35611D01*
X20817Y36464D01*
X22604Y37045D01*
X23877Y37246D01*
X23877Y26923D01*
X13554Y26923D01*
G37*
%LPD*%
%LPC*%
G36*
X26923Y23877D02*
X26923Y23877D01*
X37246Y23877D01*
X37045Y22604D01*
X36464Y20817D01*
X35611Y19143D01*
X34506Y17622D01*
X33178Y16294D01*
X31657Y15189D01*
X29983Y14336D01*
X28196Y13755D01*
X26923Y13554D01*
X26923Y23877D01*
G37*
%LPD*%
%LPC*%
G36*
X343754Y52323D02*
X343754Y52323D01*
X343955Y53596D01*
X344536Y55383D01*
X345389Y57057D01*
X346494Y58578D01*
X347822Y59906D01*
X349343Y61011D01*
X351017Y61864D01*
X352804Y62445D01*
X354077Y62646D01*
X354077Y52323D01*
X343754Y52323D01*
G37*
%LPD*%
%LPC*%
G36*
X343754Y26923D02*
X343754Y26923D01*
X343955Y28196D01*
X344536Y29983D01*
X345389Y31657D01*
X346494Y33178D01*
X347822Y34506D01*
X349343Y35611D01*
X351017Y36464D01*
X352804Y37045D01*
X354077Y37246D01*
X354077Y26923D01*
X343754Y26923D01*
G37*
%LPD*%
%LPC*%
G36*
X357123Y23877D02*
X357123Y23877D01*
X367446Y23877D01*
X367245Y22604D01*
X366664Y20817D01*
X365811Y19143D01*
X364706Y17622D01*
X363378Y16294D01*
X361857Y15189D01*
X360183Y14336D01*
X358396Y13755D01*
X357123Y13554D01*
X357123Y23877D01*
G37*
%LPD*%
%LPC*%
G36*
X352804Y39155D02*
X352804Y39155D01*
X351017Y39736D01*
X349343Y40589D01*
X347822Y41694D01*
X346494Y43022D01*
X345389Y44543D01*
X344536Y46217D01*
X343955Y48004D01*
X343754Y49277D01*
X354077Y49277D01*
X354077Y38954D01*
X352804Y39155D01*
G37*
%LPD*%
%LPC*%
G36*
X22604Y39155D02*
X22604Y39155D01*
X20817Y39736D01*
X19143Y40589D01*
X17622Y41694D01*
X16294Y43022D01*
X15189Y44543D01*
X14336Y46217D01*
X13755Y48004D01*
X13554Y49277D01*
X23877Y49277D01*
X23877Y38954D01*
X22604Y39155D01*
G37*
%LPD*%
%LPC*%
G36*
X22604Y13755D02*
X22604Y13755D01*
X20817Y14336D01*
X19143Y15189D01*
X17622Y16294D01*
X16294Y17622D01*
X15189Y19143D01*
X14336Y20817D01*
X13755Y22604D01*
X13554Y23877D01*
X23877Y23877D01*
X23877Y13554D01*
X22604Y13755D01*
G37*
%LPD*%
%LPC*%
G36*
X352804Y13755D02*
X352804Y13755D01*
X351017Y14336D01*
X349343Y15189D01*
X347822Y16294D01*
X346494Y17622D01*
X345389Y19143D01*
X344536Y20817D01*
X343955Y22604D01*
X343754Y23877D01*
X354077Y23877D01*
X354077Y13554D01*
X352804Y13755D01*
G37*
%LPD*%
%LPC*%
G36*
X186943Y19303D02*
X186943Y19303D01*
X186943Y26925D01*
X189208Y26925D01*
X194565Y21568D01*
X194565Y19303D01*
X186943Y19303D01*
G37*
%LPD*%
%LPC*%
G36*
X331723Y65023D02*
X331723Y65023D01*
X331723Y72645D01*
X333988Y72645D01*
X339345Y67288D01*
X339345Y65023D01*
X331723Y65023D01*
G37*
%LPD*%
%LPC*%
G36*
X52323Y65023D02*
X52323Y65023D01*
X52323Y72645D01*
X54588Y72645D01*
X59945Y67288D01*
X59945Y65023D01*
X52323Y65023D01*
G37*
%LPD*%
%LPC*%
G36*
X52323Y85343D02*
X52323Y85343D01*
X52323Y92965D01*
X54588Y92965D01*
X59945Y87608D01*
X59945Y85343D01*
X52323Y85343D01*
G37*
%LPD*%
%LPC*%
G36*
X208533Y110743D02*
X208533Y110743D01*
X208533Y118365D01*
X210798Y118365D01*
X216155Y113008D01*
X216155Y110743D01*
X208533Y110743D01*
G37*
%LPD*%
%LPC*%
G36*
X165353Y19303D02*
X165353Y19303D01*
X165353Y26925D01*
X167618Y26925D01*
X172975Y21568D01*
X172975Y19303D01*
X165353Y19303D01*
G37*
%LPD*%
%LPC*%
G36*
X331723Y44703D02*
X331723Y44703D01*
X331723Y52325D01*
X333988Y52325D01*
X339345Y46968D01*
X339345Y44703D01*
X331723Y44703D01*
G37*
%LPD*%
%LPC*%
G36*
X230123Y110743D02*
X230123Y110743D01*
X230123Y118365D01*
X232388Y118365D01*
X237745Y113008D01*
X237745Y110743D01*
X230123Y110743D01*
G37*
%LPD*%
%LPC*%
G36*
X176275Y19303D02*
X176275Y19303D01*
X176275Y21568D01*
X181632Y26925D01*
X183897Y26925D01*
X183897Y19303D01*
X176275Y19303D01*
G37*
%LPD*%
%LPC*%
G36*
X219455Y110743D02*
X219455Y110743D01*
X219455Y113008D01*
X224812Y118365D01*
X227077Y118365D01*
X227077Y110743D01*
X219455Y110743D01*
G37*
%LPD*%
%LPC*%
G36*
X197865Y110743D02*
X197865Y110743D01*
X197865Y113008D01*
X203222Y118365D01*
X205487Y118365D01*
X205487Y110743D01*
X197865Y110743D01*
G37*
%LPD*%
%LPC*%
G36*
X154685Y19303D02*
X154685Y19303D01*
X154685Y21568D01*
X160042Y26925D01*
X162307Y26925D01*
X162307Y19303D01*
X154685Y19303D01*
G37*
%LPD*%
%LPC*%
G36*
X52323Y54355D02*
X52323Y54355D01*
X52323Y61977D01*
X59945Y61977D01*
X59945Y59712D01*
X54588Y54355D01*
X52323Y54355D01*
G37*
%LPD*%
%LPC*%
G36*
X165353Y8635D02*
X165353Y8635D01*
X165353Y16257D01*
X172975Y16257D01*
X172975Y13992D01*
X167618Y8635D01*
X165353Y8635D01*
G37*
%LPD*%
%LPC*%
G36*
X321055Y44703D02*
X321055Y44703D01*
X321055Y46968D01*
X326412Y52325D01*
X328677Y52325D01*
X328677Y44703D01*
X321055Y44703D01*
G37*
%LPD*%
%LPC*%
G36*
X41655Y85343D02*
X41655Y85343D01*
X41655Y87608D01*
X47012Y92965D01*
X49277Y92965D01*
X49277Y85343D01*
X41655Y85343D01*
G37*
%LPD*%
%LPC*%
G36*
X186943Y8635D02*
X186943Y8635D01*
X186943Y16257D01*
X194565Y16257D01*
X194565Y13992D01*
X189208Y8635D01*
X186943Y8635D01*
G37*
%LPD*%
%LPC*%
G36*
X331723Y34035D02*
X331723Y34035D01*
X331723Y41657D01*
X339345Y41657D01*
X339345Y39392D01*
X333988Y34035D01*
X331723Y34035D01*
G37*
%LPD*%
%LPC*%
G36*
X208533Y100075D02*
X208533Y100075D01*
X208533Y107697D01*
X216155Y107697D01*
X216155Y105432D01*
X210798Y100075D01*
X208533Y100075D01*
G37*
%LPD*%
%LPC*%
G36*
X52323Y74675D02*
X52323Y74675D01*
X52323Y82297D01*
X59945Y82297D01*
X59945Y80032D01*
X54588Y74675D01*
X52323Y74675D01*
G37*
%LPD*%
%LPC*%
G36*
X321055Y65023D02*
X321055Y65023D01*
X321055Y67288D01*
X326412Y72645D01*
X328677Y72645D01*
X328677Y65023D01*
X321055Y65023D01*
G37*
%LPD*%
%LPC*%
G36*
X331723Y54355D02*
X331723Y54355D01*
X331723Y61977D01*
X339345Y61977D01*
X339345Y59712D01*
X333988Y54355D01*
X331723Y54355D01*
G37*
%LPD*%
%LPC*%
G36*
X230123Y100075D02*
X230123Y100075D01*
X230123Y107697D01*
X237745Y107697D01*
X237745Y105432D01*
X232388Y100075D01*
X230123Y100075D01*
G37*
%LPD*%
%LPC*%
G36*
X41655Y65023D02*
X41655Y65023D01*
X41655Y67288D01*
X47012Y72645D01*
X49277Y72645D01*
X49277Y65023D01*
X41655Y65023D01*
G37*
%LPD*%
%LPC*%
G36*
X326412Y34035D02*
X326412Y34035D01*
X321055Y39392D01*
X321055Y41657D01*
X328677Y41657D01*
X328677Y34035D01*
X326412Y34035D01*
G37*
%LPD*%
%LPC*%
G36*
X326412Y54355D02*
X326412Y54355D01*
X321055Y59712D01*
X321055Y61977D01*
X328677Y61977D01*
X328677Y54355D01*
X326412Y54355D01*
G37*
%LPD*%
%LPC*%
G36*
X47012Y74675D02*
X47012Y74675D01*
X41655Y80032D01*
X41655Y82297D01*
X49277Y82297D01*
X49277Y74675D01*
X47012Y74675D01*
G37*
%LPD*%
%LPC*%
G36*
X47012Y54355D02*
X47012Y54355D01*
X41655Y59712D01*
X41655Y61977D01*
X49277Y61977D01*
X49277Y54355D01*
X47012Y54355D01*
G37*
%LPD*%
%LPC*%
G36*
X224812Y100075D02*
X224812Y100075D01*
X219455Y105432D01*
X219455Y107697D01*
X227077Y107697D01*
X227077Y100075D01*
X224812Y100075D01*
G37*
%LPD*%
%LPC*%
G36*
X160042Y8635D02*
X160042Y8635D01*
X154685Y13992D01*
X154685Y16257D01*
X162307Y16257D01*
X162307Y8635D01*
X160042Y8635D01*
G37*
%LPD*%
%LPC*%
G36*
X203222Y100075D02*
X203222Y100075D01*
X197865Y105432D01*
X197865Y107697D01*
X205487Y107697D01*
X205487Y100075D01*
X203222Y100075D01*
G37*
%LPD*%
%LPC*%
G36*
X181632Y8635D02*
X181632Y8635D01*
X176275Y13992D01*
X176275Y16257D01*
X183897Y16257D01*
X183897Y8635D01*
X181632Y8635D01*
G37*
%LPD*%
%LPC*%
G36*
X355599Y25399D02*
X355599Y25399D01*
X355599Y25401D01*
X355601Y25401D01*
X355601Y25399D01*
X355599Y25399D01*
G37*
%LPD*%
%LPC*%
G36*
X25399Y25399D02*
X25399Y25399D01*
X25399Y25401D01*
X25401Y25401D01*
X25401Y25399D01*
X25399Y25399D01*
G37*
%LPD*%
%LPC*%
G36*
X355599Y50799D02*
X355599Y50799D01*
X355599Y50801D01*
X355601Y50801D01*
X355601Y50799D01*
X355599Y50799D01*
G37*
%LPD*%
%LPC*%
G36*
X330199Y63499D02*
X330199Y63499D01*
X330199Y63501D01*
X330201Y63501D01*
X330201Y63499D01*
X330199Y63499D01*
G37*
%LPD*%
%LPC*%
G36*
X207009Y109219D02*
X207009Y109219D01*
X207009Y109221D01*
X207011Y109221D01*
X207011Y109219D01*
X207009Y109219D01*
G37*
%LPD*%
%LPC*%
G36*
X228599Y109219D02*
X228599Y109219D01*
X228599Y109221D01*
X228601Y109221D01*
X228601Y109219D01*
X228599Y109219D01*
G37*
%LPD*%
%LPC*%
G36*
X185419Y17779D02*
X185419Y17779D01*
X185419Y17781D01*
X185421Y17781D01*
X185421Y17779D01*
X185419Y17779D01*
G37*
%LPD*%
%LPC*%
G36*
X163829Y17779D02*
X163829Y17779D01*
X163829Y17781D01*
X163831Y17781D01*
X163831Y17779D01*
X163829Y17779D01*
G37*
%LPD*%
%LPC*%
G36*
X50799Y63499D02*
X50799Y63499D01*
X50799Y63501D01*
X50801Y63501D01*
X50801Y63499D01*
X50799Y63499D01*
G37*
%LPD*%
%LPC*%
G36*
X25399Y50799D02*
X25399Y50799D01*
X25399Y50801D01*
X25401Y50801D01*
X25401Y50799D01*
X25399Y50799D01*
G37*
%LPD*%
%LPC*%
G36*
X330199Y43179D02*
X330199Y43179D01*
X330199Y43181D01*
X330201Y43181D01*
X330201Y43179D01*
X330199Y43179D01*
G37*
%LPD*%
%LPC*%
G36*
X50799Y83819D02*
X50799Y83819D01*
X50799Y83821D01*
X50801Y83821D01*
X50801Y83819D01*
X50799Y83819D01*
G37*
%LPD*%
D10*
X25400Y25400D03*
X25400Y50800D03*
X25400Y76200D03*
X25400Y101600D03*
X355600Y25400D03*
X355600Y50800D03*
X355600Y76200D03*
X355600Y101600D03*
D11*
X50800Y109220D03*
X50800Y83820D03*
D12*
X50800Y38100D03*
X50800Y63500D03*
D13*
X254000Y109220D03*
X228600Y109220D03*
D14*
X181610Y109220D03*
X207010Y109220D03*
D13*
X210820Y17780D03*
X185420Y17780D03*
D14*
X138430Y17780D03*
X163830Y17780D03*
D11*
X330200Y88900D03*
X330200Y63500D03*
D12*
X330200Y17780D03*
X330200Y43180D03*
D15*
X68219Y21229D03*
X140061Y93071D03*
D16*
X160929Y99421D03*
X232771Y27579D03*
D15*
X251099Y36469D03*
X322941Y108311D03*
M02*
