%TF.GenerationSoftware,KiCad,Pcbnew,9.0.6*%
%TF.CreationDate,2026-01-07T20:23:40-06:00*%
%TF.ProjectId,K9HZ_100W_11band_LPF-TR-carrier_01_06_26,4b39485a-5f31-4303-9057-5f313162616e,rev?*%
%TF.SameCoordinates,Original*%
%TF.FileFunction,Soldermask,Bot*%
%TF.FilePolarity,Negative*%
%FSLAX46Y46*%
G04 Gerber Fmt 4.6, Leading zero omitted, Abs format (unit mm)*
G04 Created by KiCad (PCBNEW 9.0.6) date 2026-01-07 20:23:40*
%MOMM*%
%LPD*%
G01*
G04 APERTURE LIST*
%ADD10C,2.250000*%
%ADD11C,2.300000*%
%ADD12R,1.800000X1.800000*%
%ADD13C,1.800000*%
%ADD14R,1.700000X1.700000*%
%ADD15O,1.700000X1.700000*%
%ADD16R,1.600000X1.600000*%
%ADD17O,1.600000X1.600000*%
%ADD18R,1.050000X1.500000*%
%ADD19O,1.050000X1.500000*%
%ADD20C,2.050000*%
G04 APERTURE END LIST*
D10*
%TO.C,*%
X115062000Y-78994000D03*
%TD*%
%TO.C,*%
X115062000Y-84074000D03*
%TD*%
%TO.C,*%
X69088000Y-78740000D03*
%TD*%
%TO.C,*%
X120142000Y-84074000D03*
%TD*%
D11*
%TO.C,K2*%
X99020000Y-88900000D03*
X93980000Y-88900000D03*
X104060000Y-88900000D03*
D12*
X78860000Y-88900000D03*
D13*
X82640000Y-88900000D03*
%TD*%
D14*
%TO.C,J22.2*%
X74295000Y-83820000D03*
D15*
X74295000Y-86360000D03*
X74295000Y-88900000D03*
X74295000Y-91440000D03*
X74295000Y-93980000D03*
%TD*%
D11*
%TO.C,K1*%
X99020000Y-83185000D03*
X93980000Y-83185000D03*
X104060000Y-83185000D03*
D12*
X78860000Y-83185000D03*
D13*
X82640000Y-83185000D03*
%TD*%
D16*
%TO.C,D1*%
X84455000Y-95250000D03*
D17*
X92075000Y-95250000D03*
%TD*%
D18*
%TO.C,Q1*%
X102235000Y-96520000D03*
D19*
X103505000Y-96520000D03*
X104775000Y-96520000D03*
%TD*%
D14*
%TO.C,J23.2*%
X86995000Y-99060000D03*
D15*
X89535000Y-99060000D03*
X92075000Y-99060000D03*
X94615000Y-99060000D03*
X97155000Y-99060000D03*
%TD*%
D10*
%TO.C,*%
X120142000Y-78994000D03*
%TD*%
D14*
%TO.C,J23.1*%
X97155000Y-78740000D03*
D15*
X94615000Y-78740000D03*
X92075000Y-78740000D03*
X89535000Y-78740000D03*
X86995000Y-78740000D03*
%TD*%
D20*
%TO.C,*%
X117602000Y-81534000D03*
%TD*%
D14*
%TO.C,J22.1*%
X109855000Y-83820000D03*
D15*
X109855000Y-86360000D03*
X109855000Y-88900000D03*
X109855000Y-91440000D03*
X109855000Y-93980000D03*
%TD*%
D10*
%TO.C,*%
X69088000Y-83820000D03*
%TD*%
D20*
%TO.C,*%
X66548000Y-81280000D03*
%TD*%
D10*
%TO.C,*%
X64008000Y-78740000D03*
%TD*%
%TO.C,*%
X64008000Y-83820000D03*
%TD*%
M02*
