%TF.GenerationSoftware,KiCad,Pcbnew,9.0.6*%
%TF.CreationDate,2026-01-07T20:23:40-06:00*%
%TF.ProjectId,K9HZ_100W_11band_LPF-TR-carrier_01_06_26,4b39485a-5f31-4303-9057-5f313162616e,rev?*%
%TF.SameCoordinates,Original*%
%TF.FileFunction,Soldermask,Top*%
%TF.FilePolarity,Negative*%
%FSLAX46Y46*%
G04 Gerber Fmt 4.6, Leading zero omitted, Abs format (unit mm)*
G04 Created by KiCad (PCBNEW 9.0.6) date 2026-01-07 20:23:40*
%MOMM*%
%LPD*%
G01*
G04 APERTURE LIST*
G04 Aperture macros list*
%AMRoundRect*
0 Rectangle with rounded corners*
0 $1 Rounding radius*
0 $2 $3 $4 $5 $6 $7 $8 $9 X,Y pos of 4 corners*
0 Add a 4 corners polygon primitive as box body*
4,1,4,$2,$3,$4,$5,$6,$7,$8,$9,$2,$3,0*
0 Add four circle primitives for the rounded corners*
1,1,$1+$1,$2,$3*
1,1,$1+$1,$4,$5*
1,1,$1+$1,$6,$7*
1,1,$1+$1,$8,$9*
0 Add four rect primitives between the rounded corners*
20,1,$1+$1,$2,$3,$4,$5,0*
20,1,$1+$1,$4,$5,$6,$7,0*
20,1,$1+$1,$6,$7,$8,$9,0*
20,1,$1+$1,$8,$9,$2,$3,0*%
G04 Aperture macros list end*
%ADD10C,2.250000*%
%ADD11RoundRect,0.250000X-0.312500X-0.625000X0.312500X-0.625000X0.312500X0.625000X-0.312500X0.625000X0*%
%ADD12C,2.300000*%
%ADD13R,1.800000X1.800000*%
%ADD14C,1.800000*%
%ADD15RoundRect,0.250000X0.325000X0.650000X-0.325000X0.650000X-0.325000X-0.650000X0.325000X-0.650000X0*%
%ADD16R,1.700000X1.700000*%
%ADD17O,1.700000X1.700000*%
%ADD18R,1.600000X1.600000*%
%ADD19O,1.600000X1.600000*%
%ADD20R,1.050000X1.500000*%
%ADD21O,1.050000X1.500000*%
%ADD22C,2.050000*%
G04 APERTURE END LIST*
D10*
%TO.C,*%
X115062000Y-78994000D03*
%TD*%
%TO.C,*%
X115062000Y-84074000D03*
%TD*%
%TO.C,*%
X69088000Y-78740000D03*
%TD*%
D11*
%TO.C,R2*%
X107757500Y-99060000D03*
X110682500Y-99060000D03*
%TD*%
%TO.C,R1*%
X95692500Y-95250000D03*
X98617500Y-95250000D03*
%TD*%
D10*
%TO.C,*%
X120142000Y-84074000D03*
%TD*%
D12*
%TO.C,K2*%
X99020000Y-88900000D03*
X93980000Y-88900000D03*
X104060000Y-88900000D03*
D13*
X78860000Y-88900000D03*
D14*
X82640000Y-88900000D03*
%TD*%
D15*
%TO.C,C1*%
X80850000Y-95250000D03*
X77900000Y-95250000D03*
%TD*%
D16*
%TO.C,J22.2*%
X74295000Y-83820000D03*
D17*
X74295000Y-86360000D03*
X74295000Y-88900000D03*
X74295000Y-91440000D03*
X74295000Y-93980000D03*
%TD*%
D12*
%TO.C,K1*%
X99020000Y-83185000D03*
X93980000Y-83185000D03*
X104060000Y-83185000D03*
D13*
X78860000Y-83185000D03*
D14*
X82640000Y-83185000D03*
%TD*%
D18*
%TO.C,D1*%
X84455000Y-95250000D03*
D19*
X92075000Y-95250000D03*
%TD*%
D15*
%TO.C,C2*%
X80850000Y-99060000D03*
X77900000Y-99060000D03*
%TD*%
D20*
%TO.C,Q1*%
X102235000Y-96520000D03*
D21*
X103505000Y-96520000D03*
X104775000Y-96520000D03*
%TD*%
D16*
%TO.C,J23.2*%
X86995000Y-99060000D03*
D17*
X89535000Y-99060000D03*
X92075000Y-99060000D03*
X94615000Y-99060000D03*
X97155000Y-99060000D03*
%TD*%
D10*
%TO.C,*%
X120142000Y-78994000D03*
%TD*%
D16*
%TO.C,J23.1*%
X97155000Y-78740000D03*
D17*
X94615000Y-78740000D03*
X92075000Y-78740000D03*
X89535000Y-78740000D03*
X86995000Y-78740000D03*
%TD*%
D22*
%TO.C,*%
X117602000Y-81534000D03*
%TD*%
D16*
%TO.C,J22.1*%
X109855000Y-83820000D03*
D17*
X109855000Y-86360000D03*
X109855000Y-88900000D03*
X109855000Y-91440000D03*
X109855000Y-93980000D03*
%TD*%
D10*
%TO.C,*%
X69088000Y-83820000D03*
%TD*%
D22*
%TO.C,*%
X66548000Y-81280000D03*
%TD*%
D10*
%TO.C,*%
X64008000Y-78740000D03*
%TD*%
%TO.C,*%
X64008000Y-83820000D03*
%TD*%
M02*
