%TF.GenerationSoftware,KiCad,Pcbnew,9.0.2*%
%TF.CreationDate,2025-07-28T11:32:36-05:00*%
%TF.ProjectId,K9HZ_100W_11band_LPF-Control,4b39485a-5f31-4303-9057-5f313162616e,rev?*%
%TF.SameCoordinates,Original*%
%TF.FileFunction,Paste,Top*%
%TF.FilePolarity,Positive*%
%FSLAX46Y46*%
G04 Gerber Fmt 4.6, Leading zero omitted, Abs format (unit mm)*
G04 Created by KiCad (PCBNEW 9.0.2) date 2025-07-28 11:32:36*
%MOMM*%
%LPD*%
G01*
G04 APERTURE LIST*
G04 Aperture macros list*
%AMRoundRect*
0 Rectangle with rounded corners*
0 $1 Rounding radius*
0 $2 $3 $4 $5 $6 $7 $8 $9 X,Y pos of 4 corners*
0 Add a 4 corners polygon primitive as box body*
4,1,4,$2,$3,$4,$5,$6,$7,$8,$9,$2,$3,0*
0 Add four circle primitives for the rounded corners*
1,1,$1+$1,$2,$3*
1,1,$1+$1,$4,$5*
1,1,$1+$1,$6,$7*
1,1,$1+$1,$8,$9*
0 Add four rect primitives between the rounded corners*
20,1,$1+$1,$2,$3,$4,$5,0*
20,1,$1+$1,$4,$5,$6,$7,0*
20,1,$1+$1,$6,$7,$8,$9,0*
20,1,$1+$1,$8,$9,$2,$3,0*%
G04 Aperture macros list end*
%ADD10RoundRect,0.250000X-0.650000X0.325000X-0.650000X-0.325000X0.650000X-0.325000X0.650000X0.325000X0*%
%ADD11RoundRect,0.250000X-0.625000X0.312500X-0.625000X-0.312500X0.625000X-0.312500X0.625000X0.312500X0*%
%ADD12R,0.800000X0.550000*%
%ADD13RoundRect,0.250000X-0.325000X-0.650000X0.325000X-0.650000X0.325000X0.650000X-0.325000X0.650000X0*%
%ADD14R,1.780000X6.500000*%
%ADD15RoundRect,0.250000X0.325000X0.650000X-0.325000X0.650000X-0.325000X-0.650000X0.325000X-0.650000X0*%
%ADD16RoundRect,0.250000X0.625000X-0.312500X0.625000X0.312500X-0.625000X0.312500X-0.625000X-0.312500X0*%
%ADD17RoundRect,0.250000X-0.312500X-0.625000X0.312500X-0.625000X0.312500X0.625000X-0.312500X0.625000X0*%
%ADD18RoundRect,0.250000X-0.300000X0.300000X-0.300000X-0.300000X0.300000X-0.300000X0.300000X0.300000X0*%
%ADD19RoundRect,0.250000X0.650000X-0.325000X0.650000X0.325000X-0.650000X0.325000X-0.650000X-0.325000X0*%
%ADD20RoundRect,0.050000X-0.150000X0.425000X-0.150000X-0.425000X0.150000X-0.425000X0.150000X0.425000X0*%
%ADD21RoundRect,0.250000X0.275000X0.700000X-0.275000X0.700000X-0.275000X-0.700000X0.275000X-0.700000X0*%
%ADD22R,0.550000X0.800000*%
%ADD23RoundRect,0.125000X-0.125000X0.537500X-0.125000X-0.537500X0.125000X-0.537500X0.125000X0.537500X0*%
%ADD24RoundRect,0.150000X-0.825000X-0.150000X0.825000X-0.150000X0.825000X0.150000X-0.825000X0.150000X0*%
%ADD25RoundRect,0.150000X-0.150000X0.512500X-0.150000X-0.512500X0.150000X-0.512500X0.150000X0.512500X0*%
%ADD26RoundRect,0.250000X0.312500X0.625000X-0.312500X0.625000X-0.312500X-0.625000X0.312500X-0.625000X0*%
%ADD27RoundRect,0.050000X0.150000X-0.425000X0.150000X0.425000X-0.150000X0.425000X-0.150000X-0.425000X0*%
G04 APERTURE END LIST*
D10*
%TO.C,C135*%
X102870000Y-119429000D03*
X102870000Y-122379000D03*
%TD*%
D11*
%TO.C,R28*%
X121666000Y-89977500D03*
X121666000Y-92902500D03*
%TD*%
D12*
%TO.C,U8*%
X129929000Y-64196000D03*
X129929000Y-63246000D03*
X129929000Y-62296000D03*
X127529000Y-62296000D03*
X127529000Y-63246000D03*
X127529000Y-64196000D03*
%TD*%
D13*
%TO.C,C149*%
X102665000Y-88143000D03*
X105615000Y-88143000D03*
%TD*%
D14*
%TO.C,L200*%
X64950000Y-121412000D03*
X69670000Y-121412000D03*
%TD*%
D15*
%TO.C,C13*%
X136300000Y-63500000D03*
X133350000Y-63500000D03*
%TD*%
D16*
%TO.C,L40*%
X112522000Y-108142500D03*
X112522000Y-105217500D03*
%TD*%
D10*
%TO.C,C132*%
X80772000Y-119429000D03*
X80772000Y-122379000D03*
%TD*%
D16*
%TO.C,L38*%
X115316000Y-108142500D03*
X115316000Y-105217500D03*
%TD*%
D13*
%TO.C,C146*%
X134984500Y-118364000D03*
X137934500Y-118364000D03*
%TD*%
D17*
%TO.C,R22*%
X131064000Y-102870000D03*
X133989000Y-102870000D03*
%TD*%
D13*
%TO.C,C7*%
X143510000Y-53975000D03*
X146460000Y-53975000D03*
%TD*%
D15*
%TO.C,C145*%
X128028500Y-123444000D03*
X125078500Y-123444000D03*
%TD*%
D18*
%TO.C,D2*%
X117856000Y-90040000D03*
X117856000Y-92840000D03*
%TD*%
D15*
%TO.C,C154*%
X134001500Y-100076000D03*
X131051500Y-100076000D03*
%TD*%
D19*
%TO.C,C140*%
X93345000Y-52783000D03*
X93345000Y-49833000D03*
%TD*%
D10*
%TO.C,C139*%
X109220000Y-112063000D03*
X109220000Y-115013000D03*
%TD*%
D11*
%TO.C,L37*%
X99453000Y-62164500D03*
X99453000Y-65089500D03*
%TD*%
D13*
%TO.C,C10*%
X133350000Y-57150000D03*
X136300000Y-57150000D03*
%TD*%
D20*
%TO.C,U6*%
X137048000Y-59098000D03*
X136398000Y-59098000D03*
X135748000Y-59098000D03*
X135748000Y-61298000D03*
X137048000Y-61298000D03*
%TD*%
D16*
%TO.C,R26*%
X99822000Y-90621500D03*
X99822000Y-87696500D03*
%TD*%
D21*
%TO.C,L2*%
X113081000Y-63119000D03*
X109931000Y-63119000D03*
%TD*%
D18*
%TO.C,D1*%
X103876000Y-90423000D03*
X103876000Y-93223000D03*
%TD*%
D17*
%TO.C,L39*%
X130171000Y-122174000D03*
X133096000Y-122174000D03*
%TD*%
D22*
%TO.C,U21*%
X86680000Y-58018605D03*
X87630000Y-58018605D03*
X88580000Y-58018605D03*
X88580000Y-55618605D03*
X87630000Y-55618605D03*
X86680000Y-55618605D03*
%TD*%
D15*
%TO.C,C17*%
X136300000Y-53975000D03*
X133350000Y-53975000D03*
%TD*%
D11*
%TO.C,R29*%
X113792000Y-89977500D03*
X113792000Y-92902500D03*
%TD*%
D12*
%TO.C,U7*%
X129929000Y-59878000D03*
X129929000Y-58928000D03*
X129929000Y-57978000D03*
X127529000Y-57978000D03*
X127529000Y-58928000D03*
X127529000Y-59878000D03*
%TD*%
D16*
%TO.C,R25*%
X127954500Y-109158500D03*
X127954500Y-106233500D03*
%TD*%
D15*
%TO.C,C16*%
X115595000Y-56134000D03*
X112645000Y-56134000D03*
%TD*%
D20*
%TO.C,U5*%
X133238000Y-59098000D03*
X132588000Y-59098000D03*
X131938000Y-59098000D03*
X131938000Y-61298000D03*
X133238000Y-61298000D03*
%TD*%
D10*
%TO.C,C21*%
X100977000Y-68756000D03*
X100977000Y-71706000D03*
%TD*%
%TO.C,C143*%
X86868000Y-119429000D03*
X86868000Y-122379000D03*
%TD*%
D19*
%TO.C,C133*%
X71628000Y-115267000D03*
X71628000Y-112317000D03*
%TD*%
D13*
%TO.C,C151*%
X130158500Y-118364000D03*
X133108500Y-118364000D03*
%TD*%
D19*
%TO.C,C15*%
X115824000Y-67769000D03*
X115824000Y-64819000D03*
%TD*%
D13*
%TO.C,C20*%
X117270000Y-47625000D03*
X120220000Y-47625000D03*
%TD*%
D16*
%TO.C,L41*%
X141162500Y-109920500D03*
X141162500Y-106995500D03*
%TD*%
D15*
%TO.C,C24*%
X115013000Y-74168000D03*
X112063000Y-74168000D03*
%TD*%
D13*
%TO.C,C1*%
X149606000Y-54864000D03*
X152556000Y-54864000D03*
%TD*%
D23*
%TO.C,U20*%
X127853500Y-117988500D03*
X127203500Y-117988500D03*
X126553500Y-117988500D03*
X125903500Y-117988500D03*
X125903500Y-120263500D03*
X126553500Y-120263500D03*
X127203500Y-120263500D03*
X127853500Y-120263500D03*
%TD*%
D10*
%TO.C,C138*%
X103517000Y-62152000D03*
X103517000Y-65102000D03*
%TD*%
D12*
%TO.C,U1*%
X139721000Y-62296000D03*
X139721000Y-63246000D03*
X139721000Y-64196000D03*
X142121000Y-64196000D03*
X142121000Y-63246000D03*
X142121000Y-62296000D03*
%TD*%
D15*
%TO.C,C144*%
X121109000Y-102870000D03*
X118159000Y-102870000D03*
%TD*%
D11*
%TO.C,R23*%
X141478000Y-117663500D03*
X141478000Y-120588500D03*
%TD*%
D10*
%TO.C,C148*%
X81915000Y-49833000D03*
X81915000Y-52783000D03*
%TD*%
D15*
%TO.C,C18*%
X131474000Y-53975000D03*
X128524000Y-53975000D03*
%TD*%
D16*
%TO.C,R16*%
X118618000Y-108904500D03*
X118618000Y-105979500D03*
%TD*%
%TO.C,L43*%
X134050500Y-108142500D03*
X134050500Y-105217500D03*
%TD*%
D13*
%TO.C,C8*%
X149606000Y-67056000D03*
X152556000Y-67056000D03*
%TD*%
D15*
%TO.C,C136*%
X96217000Y-112014000D03*
X93267000Y-112014000D03*
%TD*%
D21*
%TO.C,L1*%
X113081000Y-69342000D03*
X109931000Y-69342000D03*
%TD*%
D11*
%TO.C,R20*%
X108448000Y-87696500D03*
X108448000Y-90621500D03*
%TD*%
D24*
%TO.C,U18*%
X90882000Y-61722000D03*
X90882000Y-62992000D03*
X90882000Y-64262000D03*
X90882000Y-65532000D03*
X95832000Y-65532000D03*
X95832000Y-64262000D03*
X95832000Y-62992000D03*
X95832000Y-61722000D03*
%TD*%
D16*
%TO.C,L36*%
X122428000Y-109920500D03*
X122428000Y-106995500D03*
%TD*%
D24*
%TO.C,U14*%
X113603000Y-111379000D03*
X113603000Y-112649000D03*
X113603000Y-113919000D03*
X113603000Y-115189000D03*
X118553000Y-115189000D03*
X118553000Y-113919000D03*
X118553000Y-112649000D03*
X118553000Y-111379000D03*
%TD*%
D25*
%TO.C,U17*%
X137409500Y-121798500D03*
X136459500Y-121798500D03*
X135509500Y-121798500D03*
X135509500Y-124073500D03*
X136459500Y-124073500D03*
X137409500Y-124073500D03*
%TD*%
D15*
%TO.C,C25*%
X115521000Y-59309000D03*
X112571000Y-59309000D03*
%TD*%
D10*
%TO.C,C22*%
X96659000Y-68756000D03*
X96659000Y-71706000D03*
%TD*%
D24*
%TO.C,U19*%
X132337500Y-111379000D03*
X132337500Y-112649000D03*
X132337500Y-113919000D03*
X132337500Y-115189000D03*
X137287500Y-115189000D03*
X137287500Y-113919000D03*
X137287500Y-112649000D03*
X137287500Y-111379000D03*
%TD*%
D26*
%TO.C,R13*%
X121035000Y-100076000D03*
X118110000Y-100076000D03*
%TD*%
D15*
%TO.C,C155*%
X139843500Y-102870000D03*
X136893500Y-102870000D03*
%TD*%
D27*
%TO.C,U22*%
X93584000Y-57996000D03*
X94234000Y-57996000D03*
X94884000Y-57996000D03*
X94884000Y-55796000D03*
X93584000Y-55796000D03*
%TD*%
D11*
%TO.C,R30*%
X141478000Y-123759500D03*
X141478000Y-126684500D03*
%TD*%
D13*
%TO.C,C156*%
X115619000Y-87376000D03*
X118569000Y-87376000D03*
%TD*%
D15*
%TO.C,C14*%
X115087000Y-77470000D03*
X112137000Y-77470000D03*
%TD*%
D10*
%TO.C,C23*%
X92595000Y-68756000D03*
X92595000Y-71706000D03*
%TD*%
%TO.C,C150*%
X141162500Y-112001500D03*
X141162500Y-114951500D03*
%TD*%
%TO.C,C137*%
X122428000Y-112063000D03*
X122428000Y-115013000D03*
%TD*%
D16*
%TO.C,R18*%
X109220000Y-109158500D03*
X109220000Y-106233500D03*
%TD*%
D26*
%TO.C,R21*%
X139769500Y-100076000D03*
X136844500Y-100076000D03*
%TD*%
D16*
%TO.C,R24*%
X137352500Y-108904500D03*
X137352500Y-105979500D03*
%TD*%
D17*
%TO.C,R17*%
X112329500Y-102870000D03*
X115254500Y-102870000D03*
%TD*%
D16*
%TO.C,L42*%
X131256500Y-108142500D03*
X131256500Y-105217500D03*
%TD*%
D12*
%TO.C,U3*%
X139721000Y-57978000D03*
X139721000Y-58928000D03*
X139721000Y-59878000D03*
X142121000Y-59878000D03*
X142121000Y-58928000D03*
X142121000Y-57978000D03*
%TD*%
D15*
%TO.C,C147*%
X115267000Y-100076000D03*
X112317000Y-100076000D03*
%TD*%
D13*
%TO.C,C6*%
X138684000Y-53975000D03*
X141634000Y-53975000D03*
%TD*%
D10*
%TO.C,C152*%
X127954500Y-112063000D03*
X127954500Y-115013000D03*
%TD*%
M02*
