%TF.GenerationSoftware,KiCad,Pcbnew,9.0.2*%
%TF.CreationDate,2025-07-28T11:32:36-05:00*%
%TF.ProjectId,K9HZ_100W_11band_LPF-Control,4b39485a-5f31-4303-9057-5f313162616e,rev?*%
%TF.SameCoordinates,Original*%
%TF.FileFunction,Paste,Bot*%
%TF.FilePolarity,Positive*%
%FSLAX46Y46*%
G04 Gerber Fmt 4.6, Leading zero omitted, Abs format (unit mm)*
G04 Created by KiCad (PCBNEW 9.0.2) date 2025-07-28 11:32:36*
%MOMM*%
%LPD*%
G01*
G04 APERTURE LIST*
G04 Aperture macros list*
%AMRoundRect*
0 Rectangle with rounded corners*
0 $1 Rounding radius*
0 $2 $3 $4 $5 $6 $7 $8 $9 X,Y pos of 4 corners*
0 Add a 4 corners polygon primitive as box body*
4,1,4,$2,$3,$4,$5,$6,$7,$8,$9,$2,$3,0*
0 Add four circle primitives for the rounded corners*
1,1,$1+$1,$2,$3*
1,1,$1+$1,$4,$5*
1,1,$1+$1,$6,$7*
1,1,$1+$1,$8,$9*
0 Add four rect primitives between the rounded corners*
20,1,$1+$1,$2,$3,$4,$5,0*
20,1,$1+$1,$4,$5,$6,$7,0*
20,1,$1+$1,$6,$7,$8,$9,0*
20,1,$1+$1,$8,$9,$2,$3,0*%
G04 Aperture macros list end*
%ADD10RoundRect,0.250000X-0.625000X0.312500X-0.625000X-0.312500X0.625000X-0.312500X0.625000X0.312500X0*%
%ADD11RoundRect,0.250000X-0.650000X0.325000X-0.650000X-0.325000X0.650000X-0.325000X0.650000X0.325000X0*%
%ADD12RoundRect,0.250000X-0.325000X-0.650000X0.325000X-0.650000X0.325000X0.650000X-0.325000X0.650000X0*%
%ADD13RoundRect,0.250000X-0.312500X-0.625000X0.312500X-0.625000X0.312500X0.625000X-0.312500X0.625000X0*%
%ADD14RoundRect,0.250000X0.625000X-0.312500X0.625000X0.312500X-0.625000X0.312500X-0.625000X-0.312500X0*%
%ADD15RoundRect,0.250000X0.650000X-0.325000X0.650000X0.325000X-0.650000X0.325000X-0.650000X-0.325000X0*%
%ADD16RoundRect,0.150000X0.150000X-0.875000X0.150000X0.875000X-0.150000X0.875000X-0.150000X-0.875000X0*%
%ADD17RoundRect,0.250000X0.325000X0.650000X-0.325000X0.650000X-0.325000X-0.650000X0.325000X-0.650000X0*%
%ADD18RoundRect,0.150000X-0.150000X0.875000X-0.150000X-0.875000X0.150000X-0.875000X0.150000X0.875000X0*%
%ADD19RoundRect,0.150000X-0.875000X-0.150000X0.875000X-0.150000X0.875000X0.150000X-0.875000X0.150000X0*%
%ADD20RoundRect,0.150000X-0.825000X-0.150000X0.825000X-0.150000X0.825000X0.150000X-0.825000X0.150000X0*%
G04 APERTURE END LIST*
D10*
%TO.C,R10*%
X95758000Y-135443500D03*
X95758000Y-138368500D03*
%TD*%
D11*
%TO.C,C129*%
X120750000Y-132875000D03*
X120750000Y-135825000D03*
%TD*%
D12*
%TO.C,C128*%
X81575000Y-132950000D03*
X84525000Y-132950000D03*
%TD*%
D13*
%TO.C,R1*%
X143063500Y-137160000D03*
X145988500Y-137160000D03*
%TD*%
D14*
%TO.C,R12*%
X102108000Y-111952500D03*
X102108000Y-109027500D03*
%TD*%
D15*
%TO.C,C2*%
X145288000Y-100027000D03*
X145288000Y-97077000D03*
%TD*%
%TO.C,C3*%
X141732000Y-100027000D03*
X141732000Y-97077000D03*
%TD*%
D14*
%TO.C,R14*%
X104648000Y-111952500D03*
X104648000Y-109027500D03*
%TD*%
D16*
%TO.C,U12*%
X103251000Y-130126000D03*
X101981000Y-130126000D03*
X100711000Y-130126000D03*
X99441000Y-130126000D03*
X98171000Y-130126000D03*
X96901000Y-130126000D03*
X95631000Y-130126000D03*
X94361000Y-130126000D03*
X93091000Y-130126000D03*
X91821000Y-130126000D03*
X90551000Y-130126000D03*
X89281000Y-130126000D03*
X89281000Y-120826000D03*
X90551000Y-120826000D03*
X91821000Y-120826000D03*
X93091000Y-120826000D03*
X94361000Y-120826000D03*
X95631000Y-120826000D03*
X96901000Y-120826000D03*
X98171000Y-120826000D03*
X99441000Y-120826000D03*
X100711000Y-120826000D03*
X101981000Y-120826000D03*
X103251000Y-120826000D03*
%TD*%
D10*
%TO.C,R9*%
X98552000Y-135443500D03*
X98552000Y-138368500D03*
%TD*%
%TO.C,R8*%
X101346000Y-135443500D03*
X101346000Y-138368500D03*
%TD*%
D17*
%TO.C,C19*%
X115775000Y-61595000D03*
X112825000Y-61595000D03*
%TD*%
D15*
%TO.C,C11*%
X131050000Y-100027000D03*
X131050000Y-97077000D03*
%TD*%
D17*
%TO.C,C12*%
X131015000Y-104394000D03*
X128065000Y-104394000D03*
%TD*%
D15*
%TO.C,C5*%
X134620000Y-100027000D03*
X134620000Y-97077000D03*
%TD*%
D18*
%TO.C,U15*%
X125349000Y-120572000D03*
X126619000Y-120572000D03*
X127889000Y-120572000D03*
X129159000Y-120572000D03*
X130429000Y-120572000D03*
X131699000Y-120572000D03*
X132969000Y-120572000D03*
X134239000Y-120572000D03*
X135509000Y-120572000D03*
X136779000Y-120572000D03*
X138049000Y-120572000D03*
X139319000Y-120572000D03*
X140589000Y-120572000D03*
X141859000Y-120572000D03*
X141859000Y-129872000D03*
X140589000Y-129872000D03*
X139319000Y-129872000D03*
X138049000Y-129872000D03*
X136779000Y-129872000D03*
X135509000Y-129872000D03*
X134239000Y-129872000D03*
X132969000Y-129872000D03*
X131699000Y-129872000D03*
X130429000Y-129872000D03*
X129159000Y-129872000D03*
X127889000Y-129872000D03*
X126619000Y-129872000D03*
X125349000Y-129872000D03*
%TD*%
D14*
%TO.C,R7*%
X114935000Y-71312500D03*
X114935000Y-68387500D03*
%TD*%
D19*
%TO.C,U4*%
X134950000Y-115960000D03*
X134950000Y-114690000D03*
X134950000Y-113420000D03*
X134950000Y-112150000D03*
X134950000Y-110880000D03*
X134950000Y-109610000D03*
X134950000Y-108340000D03*
X134950000Y-107070000D03*
X134950000Y-105800000D03*
X134950000Y-104530000D03*
X144250000Y-104530000D03*
X144250000Y-105800000D03*
X144250000Y-107070000D03*
X144250000Y-108340000D03*
X144250000Y-109610000D03*
X144250000Y-110880000D03*
X144250000Y-112150000D03*
X144250000Y-113420000D03*
X144250000Y-114690000D03*
X144250000Y-115960000D03*
%TD*%
D15*
%TO.C,C141*%
X145796000Y-123141000D03*
X145796000Y-120191000D03*
%TD*%
D18*
%TO.C,U10*%
X108985000Y-120750000D03*
X110255000Y-120750000D03*
X111525000Y-120750000D03*
X112795000Y-120750000D03*
X114065000Y-120750000D03*
X115335000Y-120750000D03*
X116605000Y-120750000D03*
X117875000Y-120750000D03*
X119145000Y-120750000D03*
X120415000Y-120750000D03*
X120415000Y-130050000D03*
X119145000Y-130050000D03*
X117875000Y-130050000D03*
X116605000Y-130050000D03*
X115335000Y-130050000D03*
X114065000Y-130050000D03*
X112795000Y-130050000D03*
X111525000Y-130050000D03*
X110255000Y-130050000D03*
X108985000Y-130050000D03*
%TD*%
D13*
%TO.C,R2*%
X143063500Y-134747000D03*
X145988500Y-134747000D03*
%TD*%
D18*
%TO.C,U9*%
X72235000Y-120850000D03*
X73505000Y-120850000D03*
X74775000Y-120850000D03*
X76045000Y-120850000D03*
X77315000Y-120850000D03*
X78585000Y-120850000D03*
X79855000Y-120850000D03*
X81125000Y-120850000D03*
X82395000Y-120850000D03*
X83665000Y-120850000D03*
X83665000Y-130150000D03*
X82395000Y-130150000D03*
X81125000Y-130150000D03*
X79855000Y-130150000D03*
X78585000Y-130150000D03*
X77315000Y-130150000D03*
X76045000Y-130150000D03*
X74775000Y-130150000D03*
X73505000Y-130150000D03*
X72235000Y-130150000D03*
%TD*%
D11*
%TO.C,C130*%
X106172000Y-130048000D03*
X106172000Y-132998000D03*
%TD*%
D20*
%TO.C,U2*%
X125733000Y-116078000D03*
X125733000Y-114808000D03*
X125733000Y-113538000D03*
X125733000Y-112268000D03*
X125733000Y-110998000D03*
X125733000Y-109728000D03*
X125733000Y-108458000D03*
X125733000Y-107188000D03*
X130683000Y-107188000D03*
X130683000Y-108458000D03*
X130683000Y-109728000D03*
X130683000Y-110998000D03*
X130683000Y-112268000D03*
X130683000Y-113538000D03*
X130683000Y-114808000D03*
X130683000Y-116078000D03*
%TD*%
D10*
%TO.C,R15*%
X145796000Y-126807500D03*
X145796000Y-129732500D03*
%TD*%
D13*
%TO.C,R3*%
X143063500Y-132334000D03*
X145988500Y-132334000D03*
%TD*%
D15*
%TO.C,C4*%
X138176000Y-100027000D03*
X138176000Y-97077000D03*
%TD*%
D10*
%TO.C,R11*%
X92964000Y-135443500D03*
X92964000Y-138368500D03*
%TD*%
M02*
