%TF.GenerationSoftware,KiCad,Pcbnew,9.0.2*%
%TF.CreationDate,2025-07-28T11:32:36-05:00*%
%TF.ProjectId,K9HZ_100W_11band_LPF-Control,4b39485a-5f31-4303-9057-5f313162616e,rev?*%
%TF.SameCoordinates,Original*%
%TF.FileFunction,Soldermask,Bot*%
%TF.FilePolarity,Negative*%
%FSLAX46Y46*%
G04 Gerber Fmt 4.6, Leading zero omitted, Abs format (unit mm)*
G04 Created by KiCad (PCBNEW 9.0.2) date 2025-07-28 11:32:36*
%MOMM*%
%LPD*%
G01*
G04 APERTURE LIST*
G04 Aperture macros list*
%AMRoundRect*
0 Rectangle with rounded corners*
0 $1 Rounding radius*
0 $2 $3 $4 $5 $6 $7 $8 $9 X,Y pos of 4 corners*
0 Add a 4 corners polygon primitive as box body*
4,1,4,$2,$3,$4,$5,$6,$7,$8,$9,$2,$3,0*
0 Add four circle primitives for the rounded corners*
1,1,$1+$1,$2,$3*
1,1,$1+$1,$4,$5*
1,1,$1+$1,$6,$7*
1,1,$1+$1,$8,$9*
0 Add four rect primitives between the rounded corners*
20,1,$1+$1,$2,$3,$4,$5,0*
20,1,$1+$1,$4,$5,$6,$7,0*
20,1,$1+$1,$6,$7,$8,$9,0*
20,1,$1+$1,$8,$9,$2,$3,0*%
G04 Aperture macros list end*
%ADD10C,2.050000*%
%ADD11C,2.250000*%
%ADD12R,1.700000X1.700000*%
%ADD13O,1.700000X1.700000*%
%ADD14R,3.000000X3.000000*%
%ADD15C,3.000000*%
%ADD16C,1.440000*%
%ADD17RoundRect,0.250000X0.600000X-0.600000X0.600000X0.600000X-0.600000X0.600000X-0.600000X-0.600000X0*%
%ADD18C,1.700000*%
%ADD19R,1.905000X2.000000*%
%ADD20O,1.905000X2.000000*%
%ADD21C,7.500000*%
%ADD22C,2.300000*%
%ADD23R,1.800000X1.800000*%
%ADD24C,1.800000*%
%ADD25RoundRect,0.250000X0.600000X0.600000X-0.600000X0.600000X-0.600000X-0.600000X0.600000X-0.600000X0*%
%ADD26R,2.000000X2.000000*%
%ADD27C,2.000000*%
%ADD28RoundRect,0.250000X-0.625000X0.312500X-0.625000X-0.312500X0.625000X-0.312500X0.625000X0.312500X0*%
%ADD29RoundRect,0.250000X-0.650000X0.325000X-0.650000X-0.325000X0.650000X-0.325000X0.650000X0.325000X0*%
%ADD30RoundRect,0.250000X-0.325000X-0.650000X0.325000X-0.650000X0.325000X0.650000X-0.325000X0.650000X0*%
%ADD31RoundRect,0.250000X-0.312500X-0.625000X0.312500X-0.625000X0.312500X0.625000X-0.312500X0.625000X0*%
%ADD32RoundRect,0.250000X0.625000X-0.312500X0.625000X0.312500X-0.625000X0.312500X-0.625000X-0.312500X0*%
%ADD33RoundRect,0.250000X0.650000X-0.325000X0.650000X0.325000X-0.650000X0.325000X-0.650000X-0.325000X0*%
%ADD34RoundRect,0.150000X0.150000X-0.875000X0.150000X0.875000X-0.150000X0.875000X-0.150000X-0.875000X0*%
%ADD35R,2.000000X1.905000*%
%ADD36O,2.000000X1.905000*%
%ADD37RoundRect,0.250000X0.325000X0.650000X-0.325000X0.650000X-0.325000X-0.650000X0.325000X-0.650000X0*%
%ADD38O,1.400000X2.500000*%
%ADD39O,2.500000X1.400000*%
%ADD40RoundRect,0.150000X-0.150000X0.875000X-0.150000X-0.875000X0.150000X-0.875000X0.150000X0.875000X0*%
%ADD41RoundRect,0.150000X-0.875000X-0.150000X0.875000X-0.150000X0.875000X0.150000X-0.875000X0.150000X0*%
%ADD42R,1.050000X1.500000*%
%ADD43O,1.050000X1.500000*%
%ADD44RoundRect,0.150000X-0.825000X-0.150000X0.825000X-0.150000X0.825000X0.150000X-0.825000X0.150000X0*%
G04 APERTURE END LIST*
D10*
%TO.C,J3*%
X154305000Y-48260000D03*
D11*
X156845000Y-50800000D03*
X156845000Y-45720000D03*
X151765000Y-50800000D03*
X151765000Y-45720000D03*
%TD*%
D10*
%TO.C,J10*%
X65405000Y-72644000D03*
D11*
X67945000Y-70104000D03*
X62865000Y-70104000D03*
X67945000Y-75184000D03*
X62865000Y-75184000D03*
%TD*%
D12*
%TO.C,J16.2*%
X85418000Y-61722000D03*
D13*
X85418000Y-64262000D03*
X85418000Y-66802000D03*
X85418000Y-69342000D03*
X85418000Y-71882000D03*
%TD*%
D12*
%TO.C,J17.1*%
X108278000Y-56642000D03*
D13*
X105738000Y-56642000D03*
X103198000Y-56642000D03*
X100658000Y-56642000D03*
X98118000Y-56642000D03*
%TD*%
D10*
%TO.C,J8*%
X65405000Y-48260000D03*
D11*
X67945000Y-50800000D03*
X67945000Y-45720000D03*
X62865000Y-50800000D03*
X62865000Y-45720000D03*
%TD*%
D14*
%TO.C,J20*%
X64262000Y-108712000D03*
D15*
X64262000Y-113792000D03*
%TD*%
D16*
%TO.C,RV19*%
X100828000Y-84079000D03*
X103368000Y-81539000D03*
X105908000Y-84079000D03*
%TD*%
D17*
%TO.C,J1*%
X129540000Y-138176000D03*
D18*
X129540000Y-135636000D03*
X132080000Y-138176000D03*
X132080000Y-135636000D03*
X134620000Y-138176000D03*
X134620000Y-135636000D03*
X137160000Y-138176000D03*
X137160000Y-135636000D03*
X139700000Y-138176000D03*
X139700000Y-135636000D03*
%TD*%
D19*
%TO.C,U13*%
X102870000Y-114808000D03*
D20*
X100330000Y-114808000D03*
X97790000Y-114808000D03*
%TD*%
D21*
%TO.C,H2*%
X64516000Y-138684000D03*
%TD*%
D22*
%TO.C,K5*%
X140208000Y-88008000D03*
X140208000Y-82968000D03*
X140208000Y-93048000D03*
D23*
X140208000Y-67848000D03*
D24*
X140208000Y-71628000D03*
%TD*%
D10*
%TO.C,J18*%
X132715000Y-48260000D03*
D11*
X135255000Y-50800000D03*
X135255000Y-45720000D03*
X130175000Y-50800000D03*
X130175000Y-45720000D03*
%TD*%
D25*
%TO.C,J21*%
X154178000Y-126492000D03*
D18*
X151638000Y-126492000D03*
X154178000Y-123952000D03*
X151638000Y-123952000D03*
X154178000Y-121412000D03*
X151638000Y-121412000D03*
X154178000Y-118872000D03*
X151638000Y-118872000D03*
X154178000Y-116332000D03*
X151638000Y-116332000D03*
%TD*%
D22*
%TO.C,K7*%
X128524000Y-87975000D03*
X128524000Y-82935000D03*
X128524000Y-93015000D03*
D23*
X128524000Y-67815000D03*
D24*
X128524000Y-71595000D03*
%TD*%
D10*
%TO.C,J23*%
X65405000Y-97282000D03*
D11*
X67945000Y-94742000D03*
X62865000Y-94742000D03*
X67945000Y-99822000D03*
X62865000Y-99822000D03*
%TD*%
D12*
%TO.C,J17.2*%
X98118000Y-76962000D03*
D13*
X100658000Y-76962000D03*
X103198000Y-76962000D03*
X105738000Y-76962000D03*
X108278000Y-76962000D03*
%TD*%
D10*
%TO.C,J11*%
X154305000Y-73152000D03*
D11*
X151765000Y-75692000D03*
X156845000Y-75692000D03*
X151765000Y-70612000D03*
X156845000Y-70612000D03*
%TD*%
D22*
%TO.C,K6*%
X134366000Y-88008000D03*
X134366000Y-82968000D03*
X134366000Y-93048000D03*
D23*
X134366000Y-67848000D03*
D24*
X134366000Y-71628000D03*
%TD*%
D19*
%TO.C,U11*%
X80772000Y-114808000D03*
D20*
X78232000Y-114808000D03*
X75692000Y-114808000D03*
%TD*%
D10*
%TO.C,J5*%
X87630000Y-48260000D03*
D11*
X90170000Y-50800000D03*
X90170000Y-45720000D03*
X85090000Y-50800000D03*
X85090000Y-45720000D03*
%TD*%
D16*
%TO.C,RV27*%
X115316000Y-84079000D03*
X117856000Y-81539000D03*
X120396000Y-84079000D03*
%TD*%
D26*
%TO.C,C134*%
X97616000Y-106426000D03*
D27*
X102616000Y-106426000D03*
%TD*%
D10*
%TO.C,J14*%
X154305000Y-104648000D03*
D11*
X151765000Y-107188000D03*
X156845000Y-107188000D03*
X151765000Y-102108000D03*
X156845000Y-102108000D03*
%TD*%
D22*
%TO.C,K4*%
X146050000Y-88008000D03*
X146050000Y-82968000D03*
X146050000Y-93048000D03*
D23*
X146050000Y-67848000D03*
D24*
X146050000Y-71628000D03*
%TD*%
D26*
%TO.C,C142*%
X91775677Y-106426000D03*
D27*
X86775677Y-106426000D03*
%TD*%
D10*
%TO.C,J13*%
X154305000Y-93980000D03*
D11*
X151765000Y-96520000D03*
X156845000Y-96520000D03*
X151765000Y-91440000D03*
X156845000Y-91440000D03*
%TD*%
D10*
%TO.C,J16*%
X65405000Y-84582000D03*
D11*
X67945000Y-82042000D03*
X62865000Y-82042000D03*
X67945000Y-87122000D03*
X62865000Y-87122000D03*
%TD*%
D10*
%TO.C,J4*%
X109855000Y-48260000D03*
D11*
X112395000Y-50800000D03*
X112395000Y-45720000D03*
X107315000Y-50800000D03*
X107315000Y-45720000D03*
%TD*%
D15*
%TO.C,L44*%
X75438000Y-87122000D03*
X95504000Y-87122000D03*
X75438000Y-95952000D03*
X95504000Y-95952000D03*
X95504000Y-91537000D03*
X75438000Y-91537000D03*
%TD*%
D17*
%TO.C,J25*%
X79502000Y-138176000D03*
D18*
X79502000Y-135636000D03*
X82042000Y-138176000D03*
X82042000Y-135636000D03*
X84582000Y-138176000D03*
X84582000Y-135636000D03*
X87122000Y-138176000D03*
X87122000Y-135636000D03*
X89662000Y-138176000D03*
X89662000Y-135636000D03*
%TD*%
D17*
%TO.C,J24*%
X104902000Y-138176000D03*
D18*
X104902000Y-135636000D03*
X107442000Y-138176000D03*
X107442000Y-135636000D03*
X109982000Y-138176000D03*
X109982000Y-135636000D03*
X112522000Y-138176000D03*
X112522000Y-135636000D03*
X115062000Y-138176000D03*
X115062000Y-135636000D03*
%TD*%
D19*
%TO.C,U16*%
X91948000Y-114808000D03*
D20*
X89408000Y-114808000D03*
X86868000Y-114808000D03*
%TD*%
D10*
%TO.C,J7*%
X76200000Y-48260000D03*
D11*
X78740000Y-50800000D03*
X78740000Y-45720000D03*
X73660000Y-50800000D03*
X73660000Y-45720000D03*
%TD*%
D12*
%TO.C,J16.1*%
X120978000Y-61722000D03*
D13*
X120978000Y-64262000D03*
X120978000Y-66802000D03*
X120978000Y-69342000D03*
X120978000Y-71882000D03*
%TD*%
D26*
%TO.C,C131*%
X75692000Y-106680000D03*
D27*
X80692000Y-106680000D03*
%TD*%
D10*
%TO.C,J12*%
X154305000Y-83566000D03*
D11*
X151765000Y-86106000D03*
X156845000Y-86106000D03*
X151765000Y-81026000D03*
X156845000Y-81026000D03*
%TD*%
D10*
%TO.C,J6*%
X99060000Y-48260000D03*
D11*
X101600000Y-50800000D03*
X101600000Y-45720000D03*
X96520000Y-50800000D03*
X96520000Y-45720000D03*
%TD*%
D21*
%TO.C,H1*%
X155516000Y-138684000D03*
%TD*%
D10*
%TO.C,J15*%
X143510000Y-48260000D03*
D11*
X146050000Y-50800000D03*
X146050000Y-45720000D03*
X140970000Y-50800000D03*
X140970000Y-45720000D03*
%TD*%
D10*
%TO.C,J9*%
X65405000Y-60325000D03*
D11*
X67945000Y-57785000D03*
X62865000Y-57785000D03*
X67945000Y-62865000D03*
X62865000Y-62865000D03*
%TD*%
D10*
%TO.C,J2*%
X154305000Y-61595000D03*
D11*
X151765000Y-64135000D03*
X156845000Y-64135000D03*
X151765000Y-59055000D03*
X156845000Y-59055000D03*
%TD*%
D28*
%TO.C,R10*%
X95758000Y-135443500D03*
X95758000Y-138368500D03*
%TD*%
D29*
%TO.C,C129*%
X120750000Y-132875000D03*
X120750000Y-135825000D03*
%TD*%
D30*
%TO.C,C128*%
X81575000Y-132950000D03*
X84525000Y-132950000D03*
%TD*%
D31*
%TO.C,R1*%
X143063500Y-137160000D03*
X145988500Y-137160000D03*
%TD*%
D32*
%TO.C,R12*%
X102108000Y-111952500D03*
X102108000Y-109027500D03*
%TD*%
D33*
%TO.C,C2*%
X145288000Y-100027000D03*
X145288000Y-97077000D03*
%TD*%
%TO.C,C3*%
X141732000Y-100027000D03*
X141732000Y-97077000D03*
%TD*%
D32*
%TO.C,R14*%
X104648000Y-111952500D03*
X104648000Y-109027500D03*
%TD*%
D34*
%TO.C,U12*%
X103251000Y-130126000D03*
X101981000Y-130126000D03*
X100711000Y-130126000D03*
X99441000Y-130126000D03*
X98171000Y-130126000D03*
X96901000Y-130126000D03*
X95631000Y-130126000D03*
X94361000Y-130126000D03*
X93091000Y-130126000D03*
X91821000Y-130126000D03*
X90551000Y-130126000D03*
X89281000Y-130126000D03*
X89281000Y-120826000D03*
X90551000Y-120826000D03*
X91821000Y-120826000D03*
X93091000Y-120826000D03*
X94361000Y-120826000D03*
X95631000Y-120826000D03*
X96901000Y-120826000D03*
X98171000Y-120826000D03*
X99441000Y-120826000D03*
X100711000Y-120826000D03*
X101981000Y-120826000D03*
X103251000Y-120826000D03*
%TD*%
D28*
%TO.C,R9*%
X98552000Y-135443500D03*
X98552000Y-138368500D03*
%TD*%
D35*
%TO.C,Q1*%
X123825000Y-65405000D03*
D36*
X123825000Y-62865000D03*
X123825000Y-60325000D03*
%TD*%
D28*
%TO.C,R8*%
X101346000Y-135443500D03*
X101346000Y-138368500D03*
%TD*%
D37*
%TO.C,C19*%
X115775000Y-61595000D03*
X112825000Y-61595000D03*
%TD*%
D33*
%TO.C,C11*%
X131050000Y-100027000D03*
X131050000Y-97077000D03*
%TD*%
D37*
%TO.C,C12*%
X131015000Y-104394000D03*
X128065000Y-104394000D03*
%TD*%
D22*
%TO.C,K2*%
X75946000Y-61682000D03*
X75946000Y-66722000D03*
X75946000Y-56642000D03*
D23*
X75946000Y-81842000D03*
D24*
X75946000Y-78062000D03*
%TD*%
D38*
%TO.C,J19*%
X116730000Y-52780000D03*
X119230000Y-51480000D03*
D39*
X121730000Y-44780000D03*
D38*
X126230000Y-48480000D03*
D39*
X125730000Y-55880000D03*
%TD*%
D22*
%TO.C,K3*%
X79248000Y-75816000D03*
X79248000Y-70776000D03*
X79248000Y-80856000D03*
D23*
X79248000Y-55656000D03*
D24*
X79248000Y-59436000D03*
%TD*%
D33*
%TO.C,C5*%
X134620000Y-100027000D03*
X134620000Y-97077000D03*
%TD*%
D40*
%TO.C,U15*%
X125349000Y-120572000D03*
X126619000Y-120572000D03*
X127889000Y-120572000D03*
X129159000Y-120572000D03*
X130429000Y-120572000D03*
X131699000Y-120572000D03*
X132969000Y-120572000D03*
X134239000Y-120572000D03*
X135509000Y-120572000D03*
X136779000Y-120572000D03*
X138049000Y-120572000D03*
X139319000Y-120572000D03*
X140589000Y-120572000D03*
X141859000Y-120572000D03*
X141859000Y-129872000D03*
X140589000Y-129872000D03*
X139319000Y-129872000D03*
X138049000Y-129872000D03*
X136779000Y-129872000D03*
X135509000Y-129872000D03*
X134239000Y-129872000D03*
X132969000Y-129872000D03*
X131699000Y-129872000D03*
X130429000Y-129872000D03*
X129159000Y-129872000D03*
X127889000Y-129872000D03*
X126619000Y-129872000D03*
X125349000Y-129872000D03*
%TD*%
D32*
%TO.C,R7*%
X114935000Y-71312500D03*
X114935000Y-68387500D03*
%TD*%
D41*
%TO.C,U4*%
X134950000Y-115960000D03*
X134950000Y-114690000D03*
X134950000Y-113420000D03*
X134950000Y-112150000D03*
X134950000Y-110880000D03*
X134950000Y-109610000D03*
X134950000Y-108340000D03*
X134950000Y-107070000D03*
X134950000Y-105800000D03*
X134950000Y-104530000D03*
X144250000Y-104530000D03*
X144250000Y-105800000D03*
X144250000Y-107070000D03*
X144250000Y-108340000D03*
X144250000Y-109610000D03*
X144250000Y-110880000D03*
X144250000Y-112150000D03*
X144250000Y-113420000D03*
X144250000Y-114690000D03*
X144250000Y-115960000D03*
%TD*%
D42*
%TO.C,Q2*%
X111252000Y-66654000D03*
D43*
X109982000Y-66654000D03*
X108712000Y-66654000D03*
%TD*%
D33*
%TO.C,C141*%
X145796000Y-123141000D03*
X145796000Y-120191000D03*
%TD*%
D40*
%TO.C,U10*%
X108985000Y-120750000D03*
X110255000Y-120750000D03*
X111525000Y-120750000D03*
X112795000Y-120750000D03*
X114065000Y-120750000D03*
X115335000Y-120750000D03*
X116605000Y-120750000D03*
X117875000Y-120750000D03*
X119145000Y-120750000D03*
X120415000Y-120750000D03*
X120415000Y-130050000D03*
X119145000Y-130050000D03*
X117875000Y-130050000D03*
X116605000Y-130050000D03*
X115335000Y-130050000D03*
X114065000Y-130050000D03*
X112795000Y-130050000D03*
X111525000Y-130050000D03*
X110255000Y-130050000D03*
X108985000Y-130050000D03*
%TD*%
D31*
%TO.C,R2*%
X143063500Y-134747000D03*
X145988500Y-134747000D03*
%TD*%
D40*
%TO.C,U9*%
X72235000Y-120850000D03*
X73505000Y-120850000D03*
X74775000Y-120850000D03*
X76045000Y-120850000D03*
X77315000Y-120850000D03*
X78585000Y-120850000D03*
X79855000Y-120850000D03*
X81125000Y-120850000D03*
X82395000Y-120850000D03*
X83665000Y-120850000D03*
X83665000Y-130150000D03*
X82395000Y-130150000D03*
X81125000Y-130150000D03*
X79855000Y-130150000D03*
X78585000Y-130150000D03*
X77315000Y-130150000D03*
X76045000Y-130150000D03*
X74775000Y-130150000D03*
X73505000Y-130150000D03*
X72235000Y-130150000D03*
%TD*%
D29*
%TO.C,C130*%
X106172000Y-130048000D03*
X106172000Y-132998000D03*
%TD*%
D44*
%TO.C,U2*%
X125733000Y-116078000D03*
X125733000Y-114808000D03*
X125733000Y-113538000D03*
X125733000Y-112268000D03*
X125733000Y-110998000D03*
X125733000Y-109728000D03*
X125733000Y-108458000D03*
X125733000Y-107188000D03*
X130683000Y-107188000D03*
X130683000Y-108458000D03*
X130683000Y-109728000D03*
X130683000Y-110998000D03*
X130683000Y-112268000D03*
X130683000Y-113538000D03*
X130683000Y-114808000D03*
X130683000Y-116078000D03*
%TD*%
D28*
%TO.C,R15*%
X145796000Y-126807500D03*
X145796000Y-129732500D03*
%TD*%
D31*
%TO.C,R3*%
X143063500Y-132334000D03*
X145988500Y-132334000D03*
%TD*%
D33*
%TO.C,C4*%
X138176000Y-100027000D03*
X138176000Y-97077000D03*
%TD*%
D28*
%TO.C,R11*%
X92964000Y-135443500D03*
X92964000Y-138368500D03*
%TD*%
M02*
